%TF.GenerationSoftware,KiCad,Pcbnew,(5.1.10)-1*%
%TF.CreationDate,2022-10-29T14:49:15-06:00*%
%TF.ProjectId,MainBoard,4d61696e-426f-4617-9264-2e6b69636164,rev?*%
%TF.SameCoordinates,Original*%
%TF.FileFunction,Soldermask,Top*%
%TF.FilePolarity,Negative*%
%FSLAX46Y46*%
G04 Gerber Fmt 4.6, Leading zero omitted, Abs format (unit mm)*
G04 Created by KiCad (PCBNEW (5.1.10)-1) date 2022-10-29 14:49:15*
%MOMM*%
%LPD*%
G01*
G04 APERTURE LIST*
%ADD10C,2.200000*%
%ADD11R,1.750000X0.600000*%
%ADD12O,1.950000X1.700000*%
%ADD13O,1.700000X1.950000*%
%ADD14R,0.600000X1.750000*%
%ADD15C,1.000000*%
%ADD16C,1.600000*%
%ADD17R,1.600000X1.600000*%
%ADD18R,1.200000X1.200000*%
%ADD19R,1.200000X0.800001*%
G04 APERTURE END LIST*
D10*
%TO.C,REF\u002A\u002A*%
X91389200Y-70104000D03*
%TD*%
%TO.C,REF\u002A\u002A*%
X83540600Y-42316400D03*
%TD*%
%TO.C,REF\u002A\u002A*%
X65760600Y-30149800D03*
%TD*%
%TO.C,U6*%
G36*
G01*
X45543600Y-64793000D02*
X45543600Y-64493000D01*
G75*
G02*
X45693600Y-64343000I150000J0D01*
G01*
X47343600Y-64343000D01*
G75*
G02*
X47493600Y-64493000I0J-150000D01*
G01*
X47493600Y-64793000D01*
G75*
G02*
X47343600Y-64943000I-150000J0D01*
G01*
X45693600Y-64943000D01*
G75*
G02*
X45543600Y-64793000I0J150000D01*
G01*
G37*
G36*
G01*
X45543600Y-66063000D02*
X45543600Y-65763000D01*
G75*
G02*
X45693600Y-65613000I150000J0D01*
G01*
X47343600Y-65613000D01*
G75*
G02*
X47493600Y-65763000I0J-150000D01*
G01*
X47493600Y-66063000D01*
G75*
G02*
X47343600Y-66213000I-150000J0D01*
G01*
X45693600Y-66213000D01*
G75*
G02*
X45543600Y-66063000I0J150000D01*
G01*
G37*
G36*
G01*
X45543600Y-67333000D02*
X45543600Y-67033000D01*
G75*
G02*
X45693600Y-66883000I150000J0D01*
G01*
X47343600Y-66883000D01*
G75*
G02*
X47493600Y-67033000I0J-150000D01*
G01*
X47493600Y-67333000D01*
G75*
G02*
X47343600Y-67483000I-150000J0D01*
G01*
X45693600Y-67483000D01*
G75*
G02*
X45543600Y-67333000I0J150000D01*
G01*
G37*
G36*
G01*
X45543600Y-68603000D02*
X45543600Y-68303000D01*
G75*
G02*
X45693600Y-68153000I150000J0D01*
G01*
X47343600Y-68153000D01*
G75*
G02*
X47493600Y-68303000I0J-150000D01*
G01*
X47493600Y-68603000D01*
G75*
G02*
X47343600Y-68753000I-150000J0D01*
G01*
X45693600Y-68753000D01*
G75*
G02*
X45543600Y-68603000I0J150000D01*
G01*
G37*
G36*
G01*
X40593600Y-68603000D02*
X40593600Y-68303000D01*
G75*
G02*
X40743600Y-68153000I150000J0D01*
G01*
X42393600Y-68153000D01*
G75*
G02*
X42543600Y-68303000I0J-150000D01*
G01*
X42543600Y-68603000D01*
G75*
G02*
X42393600Y-68753000I-150000J0D01*
G01*
X40743600Y-68753000D01*
G75*
G02*
X40593600Y-68603000I0J150000D01*
G01*
G37*
G36*
G01*
X40593600Y-67333000D02*
X40593600Y-67033000D01*
G75*
G02*
X40743600Y-66883000I150000J0D01*
G01*
X42393600Y-66883000D01*
G75*
G02*
X42543600Y-67033000I0J-150000D01*
G01*
X42543600Y-67333000D01*
G75*
G02*
X42393600Y-67483000I-150000J0D01*
G01*
X40743600Y-67483000D01*
G75*
G02*
X40593600Y-67333000I0J150000D01*
G01*
G37*
G36*
G01*
X40593600Y-66063000D02*
X40593600Y-65763000D01*
G75*
G02*
X40743600Y-65613000I150000J0D01*
G01*
X42393600Y-65613000D01*
G75*
G02*
X42543600Y-65763000I0J-150000D01*
G01*
X42543600Y-66063000D01*
G75*
G02*
X42393600Y-66213000I-150000J0D01*
G01*
X40743600Y-66213000D01*
G75*
G02*
X40593600Y-66063000I0J150000D01*
G01*
G37*
G36*
G01*
X40593600Y-64793000D02*
X40593600Y-64493000D01*
G75*
G02*
X40743600Y-64343000I150000J0D01*
G01*
X42393600Y-64343000D01*
G75*
G02*
X42543600Y-64493000I0J-150000D01*
G01*
X42543600Y-64793000D01*
G75*
G02*
X42393600Y-64943000I-150000J0D01*
G01*
X40743600Y-64943000D01*
G75*
G02*
X40593600Y-64793000I0J150000D01*
G01*
G37*
%TD*%
%TO.C,C9*%
G36*
G01*
X97823000Y-65916000D02*
X98773000Y-65916000D01*
G75*
G02*
X99023000Y-66166000I0J-250000D01*
G01*
X99023000Y-66666000D01*
G75*
G02*
X98773000Y-66916000I-250000J0D01*
G01*
X97823000Y-66916000D01*
G75*
G02*
X97573000Y-66666000I0J250000D01*
G01*
X97573000Y-66166000D01*
G75*
G02*
X97823000Y-65916000I250000J0D01*
G01*
G37*
G36*
G01*
X97823000Y-64016000D02*
X98773000Y-64016000D01*
G75*
G02*
X99023000Y-64266000I0J-250000D01*
G01*
X99023000Y-64766000D01*
G75*
G02*
X98773000Y-65016000I-250000J0D01*
G01*
X97823000Y-65016000D01*
G75*
G02*
X97573000Y-64766000I0J250000D01*
G01*
X97573000Y-64266000D01*
G75*
G02*
X97823000Y-64016000I250000J0D01*
G01*
G37*
%TD*%
%TO.C,R5*%
G36*
G01*
X84793500Y-66351999D02*
X84793500Y-67252001D01*
G75*
G02*
X84543501Y-67502000I-249999J0D01*
G01*
X84018499Y-67502000D01*
G75*
G02*
X83768500Y-67252001I0J249999D01*
G01*
X83768500Y-66351999D01*
G75*
G02*
X84018499Y-66102000I249999J0D01*
G01*
X84543501Y-66102000D01*
G75*
G02*
X84793500Y-66351999I0J-249999D01*
G01*
G37*
G36*
G01*
X86618500Y-66351999D02*
X86618500Y-67252001D01*
G75*
G02*
X86368501Y-67502000I-249999J0D01*
G01*
X85843499Y-67502000D01*
G75*
G02*
X85593500Y-67252001I0J249999D01*
G01*
X85593500Y-66351999D01*
G75*
G02*
X85843499Y-66102000I249999J0D01*
G01*
X86368501Y-66102000D01*
G75*
G02*
X86618500Y-66351999I0J-249999D01*
G01*
G37*
%TD*%
%TO.C,R7*%
G36*
G01*
X91689500Y-61664001D02*
X91689500Y-60763999D01*
G75*
G02*
X91939499Y-60514000I249999J0D01*
G01*
X92464501Y-60514000D01*
G75*
G02*
X92714500Y-60763999I0J-249999D01*
G01*
X92714500Y-61664001D01*
G75*
G02*
X92464501Y-61914000I-249999J0D01*
G01*
X91939499Y-61914000D01*
G75*
G02*
X91689500Y-61664001I0J249999D01*
G01*
G37*
G36*
G01*
X89864500Y-61664001D02*
X89864500Y-60763999D01*
G75*
G02*
X90114499Y-60514000I249999J0D01*
G01*
X90639501Y-60514000D01*
G75*
G02*
X90889500Y-60763999I0J-249999D01*
G01*
X90889500Y-61664001D01*
G75*
G02*
X90639501Y-61914000I-249999J0D01*
G01*
X90114499Y-61914000D01*
G75*
G02*
X89864500Y-61664001I0J249999D01*
G01*
G37*
%TD*%
%TO.C,C16*%
G36*
G01*
X70147200Y-67835400D02*
X69197200Y-67835400D01*
G75*
G02*
X68947200Y-67585400I0J250000D01*
G01*
X68947200Y-67085400D01*
G75*
G02*
X69197200Y-66835400I250000J0D01*
G01*
X70147200Y-66835400D01*
G75*
G02*
X70397200Y-67085400I0J-250000D01*
G01*
X70397200Y-67585400D01*
G75*
G02*
X70147200Y-67835400I-250000J0D01*
G01*
G37*
G36*
G01*
X70147200Y-69735400D02*
X69197200Y-69735400D01*
G75*
G02*
X68947200Y-69485400I0J250000D01*
G01*
X68947200Y-68985400D01*
G75*
G02*
X69197200Y-68735400I250000J0D01*
G01*
X70147200Y-68735400D01*
G75*
G02*
X70397200Y-68985400I0J-250000D01*
G01*
X70397200Y-69485400D01*
G75*
G02*
X70147200Y-69735400I-250000J0D01*
G01*
G37*
%TD*%
%TO.C,C6*%
G36*
G01*
X33774000Y-39149000D02*
X33774000Y-40099000D01*
G75*
G02*
X33524000Y-40349000I-250000J0D01*
G01*
X33024000Y-40349000D01*
G75*
G02*
X32774000Y-40099000I0J250000D01*
G01*
X32774000Y-39149000D01*
G75*
G02*
X33024000Y-38899000I250000J0D01*
G01*
X33524000Y-38899000D01*
G75*
G02*
X33774000Y-39149000I0J-250000D01*
G01*
G37*
G36*
G01*
X35674000Y-39149000D02*
X35674000Y-40099000D01*
G75*
G02*
X35424000Y-40349000I-250000J0D01*
G01*
X34924000Y-40349000D01*
G75*
G02*
X34674000Y-40099000I0J250000D01*
G01*
X34674000Y-39149000D01*
G75*
G02*
X34924000Y-38899000I250000J0D01*
G01*
X35424000Y-38899000D01*
G75*
G02*
X35674000Y-39149000I0J-250000D01*
G01*
G37*
%TD*%
%TO.C,C11*%
G36*
G01*
X95029000Y-65916000D02*
X95979000Y-65916000D01*
G75*
G02*
X96229000Y-66166000I0J-250000D01*
G01*
X96229000Y-66666000D01*
G75*
G02*
X95979000Y-66916000I-250000J0D01*
G01*
X95029000Y-66916000D01*
G75*
G02*
X94779000Y-66666000I0J250000D01*
G01*
X94779000Y-66166000D01*
G75*
G02*
X95029000Y-65916000I250000J0D01*
G01*
G37*
G36*
G01*
X95029000Y-64016000D02*
X95979000Y-64016000D01*
G75*
G02*
X96229000Y-64266000I0J-250000D01*
G01*
X96229000Y-64766000D01*
G75*
G02*
X95979000Y-65016000I-250000J0D01*
G01*
X95029000Y-65016000D01*
G75*
G02*
X94779000Y-64766000I0J250000D01*
G01*
X94779000Y-64266000D01*
G75*
G02*
X95029000Y-64016000I250000J0D01*
G01*
G37*
%TD*%
%TO.C,C2*%
G36*
G01*
X34414000Y-34577000D02*
X34414000Y-35527000D01*
G75*
G02*
X34164000Y-35777000I-250000J0D01*
G01*
X33664000Y-35777000D01*
G75*
G02*
X33414000Y-35527000I0J250000D01*
G01*
X33414000Y-34577000D01*
G75*
G02*
X33664000Y-34327000I250000J0D01*
G01*
X34164000Y-34327000D01*
G75*
G02*
X34414000Y-34577000I0J-250000D01*
G01*
G37*
G36*
G01*
X36314000Y-34577000D02*
X36314000Y-35527000D01*
G75*
G02*
X36064000Y-35777000I-250000J0D01*
G01*
X35564000Y-35777000D01*
G75*
G02*
X35314000Y-35527000I0J250000D01*
G01*
X35314000Y-34577000D01*
G75*
G02*
X35564000Y-34327000I250000J0D01*
G01*
X36064000Y-34327000D01*
G75*
G02*
X36314000Y-34577000I0J-250000D01*
G01*
G37*
%TD*%
%TO.C,C24*%
G36*
G01*
X48521600Y-67165600D02*
X49471600Y-67165600D01*
G75*
G02*
X49721600Y-67415600I0J-250000D01*
G01*
X49721600Y-67915600D01*
G75*
G02*
X49471600Y-68165600I-250000J0D01*
G01*
X48521600Y-68165600D01*
G75*
G02*
X48271600Y-67915600I0J250000D01*
G01*
X48271600Y-67415600D01*
G75*
G02*
X48521600Y-67165600I250000J0D01*
G01*
G37*
G36*
G01*
X48521600Y-65265600D02*
X49471600Y-65265600D01*
G75*
G02*
X49721600Y-65515600I0J-250000D01*
G01*
X49721600Y-66015600D01*
G75*
G02*
X49471600Y-66265600I-250000J0D01*
G01*
X48521600Y-66265600D01*
G75*
G02*
X48271600Y-66015600I0J250000D01*
G01*
X48271600Y-65515600D01*
G75*
G02*
X48521600Y-65265600I250000J0D01*
G01*
G37*
%TD*%
%TO.C,C17*%
G36*
G01*
X67962800Y-64005000D02*
X67012800Y-64005000D01*
G75*
G02*
X66762800Y-63755000I0J250000D01*
G01*
X66762800Y-63255000D01*
G75*
G02*
X67012800Y-63005000I250000J0D01*
G01*
X67962800Y-63005000D01*
G75*
G02*
X68212800Y-63255000I0J-250000D01*
G01*
X68212800Y-63755000D01*
G75*
G02*
X67962800Y-64005000I-250000J0D01*
G01*
G37*
G36*
G01*
X67962800Y-65905000D02*
X67012800Y-65905000D01*
G75*
G02*
X66762800Y-65655000I0J250000D01*
G01*
X66762800Y-65155000D01*
G75*
G02*
X67012800Y-64905000I250000J0D01*
G01*
X67962800Y-64905000D01*
G75*
G02*
X68212800Y-65155000I0J-250000D01*
G01*
X68212800Y-65655000D01*
G75*
G02*
X67962800Y-65905000I-250000J0D01*
G01*
G37*
%TD*%
%TO.C,C10*%
G36*
G01*
X86352000Y-58453000D02*
X86352000Y-59403000D01*
G75*
G02*
X86102000Y-59653000I-250000J0D01*
G01*
X85602000Y-59653000D01*
G75*
G02*
X85352000Y-59403000I0J250000D01*
G01*
X85352000Y-58453000D01*
G75*
G02*
X85602000Y-58203000I250000J0D01*
G01*
X86102000Y-58203000D01*
G75*
G02*
X86352000Y-58453000I0J-250000D01*
G01*
G37*
G36*
G01*
X88252000Y-58453000D02*
X88252000Y-59403000D01*
G75*
G02*
X88002000Y-59653000I-250000J0D01*
G01*
X87502000Y-59653000D01*
G75*
G02*
X87252000Y-59403000I0J250000D01*
G01*
X87252000Y-58453000D01*
G75*
G02*
X87502000Y-58203000I250000J0D01*
G01*
X88002000Y-58203000D01*
G75*
G02*
X88252000Y-58453000I0J-250000D01*
G01*
G37*
%TD*%
%TO.C,D1*%
G36*
G01*
X89967750Y-58440500D02*
X90880250Y-58440500D01*
G75*
G02*
X91124000Y-58684250I0J-243750D01*
G01*
X91124000Y-59171750D01*
G75*
G02*
X90880250Y-59415500I-243750J0D01*
G01*
X89967750Y-59415500D01*
G75*
G02*
X89724000Y-59171750I0J243750D01*
G01*
X89724000Y-58684250D01*
G75*
G02*
X89967750Y-58440500I243750J0D01*
G01*
G37*
G36*
G01*
X89967750Y-56565500D02*
X90880250Y-56565500D01*
G75*
G02*
X91124000Y-56809250I0J-243750D01*
G01*
X91124000Y-57296750D01*
G75*
G02*
X90880250Y-57540500I-243750J0D01*
G01*
X89967750Y-57540500D01*
G75*
G02*
X89724000Y-57296750I0J243750D01*
G01*
X89724000Y-56809250D01*
G75*
G02*
X89967750Y-56565500I243750J0D01*
G01*
G37*
%TD*%
D11*
%TO.C,J1*%
X29718000Y-30036000D03*
X29718000Y-32036000D03*
X29718000Y-34036000D03*
X31468000Y-29036000D03*
X31468000Y-31036000D03*
X31468000Y-33036000D03*
X31468000Y-35036000D03*
%TD*%
%TO.C,C3*%
G36*
G01*
X30930000Y-37813000D02*
X30930000Y-36863000D01*
G75*
G02*
X31180000Y-36613000I250000J0D01*
G01*
X31680000Y-36613000D01*
G75*
G02*
X31930000Y-36863000I0J-250000D01*
G01*
X31930000Y-37813000D01*
G75*
G02*
X31680000Y-38063000I-250000J0D01*
G01*
X31180000Y-38063000D01*
G75*
G02*
X30930000Y-37813000I0J250000D01*
G01*
G37*
G36*
G01*
X29030000Y-37813000D02*
X29030000Y-36863000D01*
G75*
G02*
X29280000Y-36613000I250000J0D01*
G01*
X29780000Y-36613000D01*
G75*
G02*
X30030000Y-36863000I0J-250000D01*
G01*
X30030000Y-37813000D01*
G75*
G02*
X29780000Y-38063000I-250000J0D01*
G01*
X29280000Y-38063000D01*
G75*
G02*
X29030000Y-37813000I0J250000D01*
G01*
G37*
%TD*%
D12*
%TO.C,J4*%
X70764400Y-50016400D03*
X70764400Y-52516400D03*
G36*
G01*
X71489400Y-55866400D02*
X70039400Y-55866400D01*
G75*
G02*
X69789400Y-55616400I0J250000D01*
G01*
X69789400Y-54416400D01*
G75*
G02*
X70039400Y-54166400I250000J0D01*
G01*
X71489400Y-54166400D01*
G75*
G02*
X71739400Y-54416400I0J-250000D01*
G01*
X71739400Y-55616400D01*
G75*
G02*
X71489400Y-55866400I-250000J0D01*
G01*
G37*
%TD*%
D13*
%TO.C,J5*%
X48543200Y-35915600D03*
X51043200Y-35915600D03*
X53543200Y-35915600D03*
G36*
G01*
X56893200Y-35190600D02*
X56893200Y-36640600D01*
G75*
G02*
X56643200Y-36890600I-250000J0D01*
G01*
X55443200Y-36890600D01*
G75*
G02*
X55193200Y-36640600I0J250000D01*
G01*
X55193200Y-35190600D01*
G75*
G02*
X55443200Y-34940600I250000J0D01*
G01*
X56643200Y-34940600D01*
G75*
G02*
X56893200Y-35190600I0J-250000D01*
G01*
G37*
%TD*%
%TO.C,C14*%
G36*
G01*
X67886600Y-50538000D02*
X66936600Y-50538000D01*
G75*
G02*
X66686600Y-50288000I0J250000D01*
G01*
X66686600Y-49788000D01*
G75*
G02*
X66936600Y-49538000I250000J0D01*
G01*
X67886600Y-49538000D01*
G75*
G02*
X68136600Y-49788000I0J-250000D01*
G01*
X68136600Y-50288000D01*
G75*
G02*
X67886600Y-50538000I-250000J0D01*
G01*
G37*
G36*
G01*
X67886600Y-52438000D02*
X66936600Y-52438000D01*
G75*
G02*
X66686600Y-52188000I0J250000D01*
G01*
X66686600Y-51688000D01*
G75*
G02*
X66936600Y-51438000I250000J0D01*
G01*
X67886600Y-51438000D01*
G75*
G02*
X68136600Y-51688000I0J-250000D01*
G01*
X68136600Y-52188000D01*
G75*
G02*
X67886600Y-52438000I-250000J0D01*
G01*
G37*
%TD*%
%TO.C,C19*%
G36*
G01*
X72031400Y-61856600D02*
X72031400Y-62806600D01*
G75*
G02*
X71781400Y-63056600I-250000J0D01*
G01*
X71281400Y-63056600D01*
G75*
G02*
X71031400Y-62806600I0J250000D01*
G01*
X71031400Y-61856600D01*
G75*
G02*
X71281400Y-61606600I250000J0D01*
G01*
X71781400Y-61606600D01*
G75*
G02*
X72031400Y-61856600I0J-250000D01*
G01*
G37*
G36*
G01*
X73931400Y-61856600D02*
X73931400Y-62806600D01*
G75*
G02*
X73681400Y-63056600I-250000J0D01*
G01*
X73181400Y-63056600D01*
G75*
G02*
X72931400Y-62806600I0J250000D01*
G01*
X72931400Y-61856600D01*
G75*
G02*
X73181400Y-61606600I250000J0D01*
G01*
X73681400Y-61606600D01*
G75*
G02*
X73931400Y-61856600I0J-250000D01*
G01*
G37*
%TD*%
%TO.C,C22*%
G36*
G01*
X30040200Y-68232000D02*
X30040200Y-69182000D01*
G75*
G02*
X29790200Y-69432000I-250000J0D01*
G01*
X29290200Y-69432000D01*
G75*
G02*
X29040200Y-69182000I0J250000D01*
G01*
X29040200Y-68232000D01*
G75*
G02*
X29290200Y-67982000I250000J0D01*
G01*
X29790200Y-67982000D01*
G75*
G02*
X30040200Y-68232000I0J-250000D01*
G01*
G37*
G36*
G01*
X31940200Y-68232000D02*
X31940200Y-69182000D01*
G75*
G02*
X31690200Y-69432000I-250000J0D01*
G01*
X31190200Y-69432000D01*
G75*
G02*
X30940200Y-69182000I0J250000D01*
G01*
X30940200Y-68232000D01*
G75*
G02*
X31190200Y-67982000I250000J0D01*
G01*
X31690200Y-67982000D01*
G75*
G02*
X31940200Y-68232000I0J-250000D01*
G01*
G37*
%TD*%
%TO.C,C8*%
G36*
G01*
X100460000Y-62959000D02*
X100460000Y-62009000D01*
G75*
G02*
X100710000Y-61759000I250000J0D01*
G01*
X101210000Y-61759000D01*
G75*
G02*
X101460000Y-62009000I0J-250000D01*
G01*
X101460000Y-62959000D01*
G75*
G02*
X101210000Y-63209000I-250000J0D01*
G01*
X100710000Y-63209000D01*
G75*
G02*
X100460000Y-62959000I0J250000D01*
G01*
G37*
G36*
G01*
X98560000Y-62959000D02*
X98560000Y-62009000D01*
G75*
G02*
X98810000Y-61759000I250000J0D01*
G01*
X99310000Y-61759000D01*
G75*
G02*
X99560000Y-62009000I0J-250000D01*
G01*
X99560000Y-62959000D01*
G75*
G02*
X99310000Y-63209000I-250000J0D01*
G01*
X98810000Y-63209000D01*
G75*
G02*
X98560000Y-62959000I0J250000D01*
G01*
G37*
%TD*%
%TO.C,C13*%
G36*
G01*
X94374000Y-59403000D02*
X94374000Y-58453000D01*
G75*
G02*
X94624000Y-58203000I250000J0D01*
G01*
X95124000Y-58203000D01*
G75*
G02*
X95374000Y-58453000I0J-250000D01*
G01*
X95374000Y-59403000D01*
G75*
G02*
X95124000Y-59653000I-250000J0D01*
G01*
X94624000Y-59653000D01*
G75*
G02*
X94374000Y-59403000I0J250000D01*
G01*
G37*
G36*
G01*
X96274000Y-59403000D02*
X96274000Y-58453000D01*
G75*
G02*
X96524000Y-58203000I250000J0D01*
G01*
X97024000Y-58203000D01*
G75*
G02*
X97274000Y-58453000I0J-250000D01*
G01*
X97274000Y-59403000D01*
G75*
G02*
X97024000Y-59653000I-250000J0D01*
G01*
X96524000Y-59653000D01*
G75*
G02*
X96274000Y-59403000I0J250000D01*
G01*
G37*
%TD*%
%TO.C,C18*%
G36*
G01*
X52651200Y-29116000D02*
X52651200Y-30066000D01*
G75*
G02*
X52401200Y-30316000I-250000J0D01*
G01*
X51901200Y-30316000D01*
G75*
G02*
X51651200Y-30066000I0J250000D01*
G01*
X51651200Y-29116000D01*
G75*
G02*
X51901200Y-28866000I250000J0D01*
G01*
X52401200Y-28866000D01*
G75*
G02*
X52651200Y-29116000I0J-250000D01*
G01*
G37*
G36*
G01*
X54551200Y-29116000D02*
X54551200Y-30066000D01*
G75*
G02*
X54301200Y-30316000I-250000J0D01*
G01*
X53801200Y-30316000D01*
G75*
G02*
X53551200Y-30066000I0J250000D01*
G01*
X53551200Y-29116000D01*
G75*
G02*
X53801200Y-28866000I250000J0D01*
G01*
X54301200Y-28866000D01*
G75*
G02*
X54551200Y-29116000I0J-250000D01*
G01*
G37*
%TD*%
%TO.C,R1*%
G36*
G01*
X55058900Y-32530201D02*
X55058900Y-31630199D01*
G75*
G02*
X55308899Y-31380200I249999J0D01*
G01*
X55833901Y-31380200D01*
G75*
G02*
X56083900Y-31630199I0J-249999D01*
G01*
X56083900Y-32530201D01*
G75*
G02*
X55833901Y-32780200I-249999J0D01*
G01*
X55308899Y-32780200D01*
G75*
G02*
X55058900Y-32530201I0J249999D01*
G01*
G37*
G36*
G01*
X53233900Y-32530201D02*
X53233900Y-31630199D01*
G75*
G02*
X53483899Y-31380200I249999J0D01*
G01*
X54008901Y-31380200D01*
G75*
G02*
X54258900Y-31630199I0J-249999D01*
G01*
X54258900Y-32530201D01*
G75*
G02*
X54008901Y-32780200I-249999J0D01*
G01*
X53483899Y-32780200D01*
G75*
G02*
X53233900Y-32530201I0J249999D01*
G01*
G37*
%TD*%
%TO.C,C15*%
G36*
G01*
X67937400Y-67784600D02*
X66987400Y-67784600D01*
G75*
G02*
X66737400Y-67534600I0J250000D01*
G01*
X66737400Y-67034600D01*
G75*
G02*
X66987400Y-66784600I250000J0D01*
G01*
X67937400Y-66784600D01*
G75*
G02*
X68187400Y-67034600I0J-250000D01*
G01*
X68187400Y-67534600D01*
G75*
G02*
X67937400Y-67784600I-250000J0D01*
G01*
G37*
G36*
G01*
X67937400Y-69684600D02*
X66987400Y-69684600D01*
G75*
G02*
X66737400Y-69434600I0J250000D01*
G01*
X66737400Y-68934600D01*
G75*
G02*
X66987400Y-68684600I250000J0D01*
G01*
X67937400Y-68684600D01*
G75*
G02*
X68187400Y-68934600I0J-250000D01*
G01*
X68187400Y-69434600D01*
G75*
G02*
X67937400Y-69684600I-250000J0D01*
G01*
G37*
%TD*%
%TO.C,C5*%
G36*
G01*
X65499000Y-50538000D02*
X64549000Y-50538000D01*
G75*
G02*
X64299000Y-50288000I0J250000D01*
G01*
X64299000Y-49788000D01*
G75*
G02*
X64549000Y-49538000I250000J0D01*
G01*
X65499000Y-49538000D01*
G75*
G02*
X65749000Y-49788000I0J-250000D01*
G01*
X65749000Y-50288000D01*
G75*
G02*
X65499000Y-50538000I-250000J0D01*
G01*
G37*
G36*
G01*
X65499000Y-52438000D02*
X64549000Y-52438000D01*
G75*
G02*
X64299000Y-52188000I0J250000D01*
G01*
X64299000Y-51688000D01*
G75*
G02*
X64549000Y-51438000I250000J0D01*
G01*
X65499000Y-51438000D01*
G75*
G02*
X65749000Y-51688000I0J-250000D01*
G01*
X65749000Y-52188000D01*
G75*
G02*
X65499000Y-52438000I-250000J0D01*
G01*
G37*
%TD*%
%TO.C,C21*%
G36*
G01*
X29994400Y-59570600D02*
X29994400Y-60520600D01*
G75*
G02*
X29744400Y-60770600I-250000J0D01*
G01*
X29244400Y-60770600D01*
G75*
G02*
X28994400Y-60520600I0J250000D01*
G01*
X28994400Y-59570600D01*
G75*
G02*
X29244400Y-59320600I250000J0D01*
G01*
X29744400Y-59320600D01*
G75*
G02*
X29994400Y-59570600I0J-250000D01*
G01*
G37*
G36*
G01*
X31894400Y-59570600D02*
X31894400Y-60520600D01*
G75*
G02*
X31644400Y-60770600I-250000J0D01*
G01*
X31144400Y-60770600D01*
G75*
G02*
X30894400Y-60520600I0J250000D01*
G01*
X30894400Y-59570600D01*
G75*
G02*
X31144400Y-59320600I250000J0D01*
G01*
X31644400Y-59320600D01*
G75*
G02*
X31894400Y-59570600I0J-250000D01*
G01*
G37*
%TD*%
%TO.C,C23*%
G36*
G01*
X34485600Y-68409400D02*
X33535600Y-68409400D01*
G75*
G02*
X33285600Y-68159400I0J250000D01*
G01*
X33285600Y-67659400D01*
G75*
G02*
X33535600Y-67409400I250000J0D01*
G01*
X34485600Y-67409400D01*
G75*
G02*
X34735600Y-67659400I0J-250000D01*
G01*
X34735600Y-68159400D01*
G75*
G02*
X34485600Y-68409400I-250000J0D01*
G01*
G37*
G36*
G01*
X34485600Y-70309400D02*
X33535600Y-70309400D01*
G75*
G02*
X33285600Y-70059400I0J250000D01*
G01*
X33285600Y-69559400D01*
G75*
G02*
X33535600Y-69309400I250000J0D01*
G01*
X34485600Y-69309400D01*
G75*
G02*
X34735600Y-69559400I0J-250000D01*
G01*
X34735600Y-70059400D01*
G75*
G02*
X34485600Y-70309400I-250000J0D01*
G01*
G37*
%TD*%
%TO.C,C7*%
G36*
G01*
X33774000Y-36863000D02*
X33774000Y-37813000D01*
G75*
G02*
X33524000Y-38063000I-250000J0D01*
G01*
X33024000Y-38063000D01*
G75*
G02*
X32774000Y-37813000I0J250000D01*
G01*
X32774000Y-36863000D01*
G75*
G02*
X33024000Y-36613000I250000J0D01*
G01*
X33524000Y-36613000D01*
G75*
G02*
X33774000Y-36863000I0J-250000D01*
G01*
G37*
G36*
G01*
X35674000Y-36863000D02*
X35674000Y-37813000D01*
G75*
G02*
X35424000Y-38063000I-250000J0D01*
G01*
X34924000Y-38063000D01*
G75*
G02*
X34674000Y-37813000I0J250000D01*
G01*
X34674000Y-36863000D01*
G75*
G02*
X34924000Y-36613000I250000J0D01*
G01*
X35424000Y-36613000D01*
G75*
G02*
X35674000Y-36863000I0J-250000D01*
G01*
G37*
%TD*%
%TO.C,C25*%
G36*
G01*
X37208000Y-64701400D02*
X37208000Y-65651400D01*
G75*
G02*
X36958000Y-65901400I-250000J0D01*
G01*
X36458000Y-65901400D01*
G75*
G02*
X36208000Y-65651400I0J250000D01*
G01*
X36208000Y-64701400D01*
G75*
G02*
X36458000Y-64451400I250000J0D01*
G01*
X36958000Y-64451400D01*
G75*
G02*
X37208000Y-64701400I0J-250000D01*
G01*
G37*
G36*
G01*
X39108000Y-64701400D02*
X39108000Y-65651400D01*
G75*
G02*
X38858000Y-65901400I-250000J0D01*
G01*
X38358000Y-65901400D01*
G75*
G02*
X38108000Y-65651400I0J250000D01*
G01*
X38108000Y-64701400D01*
G75*
G02*
X38358000Y-64451400I250000J0D01*
G01*
X38858000Y-64451400D01*
G75*
G02*
X39108000Y-64701400I0J-250000D01*
G01*
G37*
%TD*%
%TO.C,C20*%
G36*
G01*
X52747800Y-26804600D02*
X52747800Y-27754600D01*
G75*
G02*
X52497800Y-28004600I-250000J0D01*
G01*
X51997800Y-28004600D01*
G75*
G02*
X51747800Y-27754600I0J250000D01*
G01*
X51747800Y-26804600D01*
G75*
G02*
X51997800Y-26554600I250000J0D01*
G01*
X52497800Y-26554600D01*
G75*
G02*
X52747800Y-26804600I0J-250000D01*
G01*
G37*
G36*
G01*
X54647800Y-26804600D02*
X54647800Y-27754600D01*
G75*
G02*
X54397800Y-28004600I-250000J0D01*
G01*
X53897800Y-28004600D01*
G75*
G02*
X53647800Y-27754600I0J250000D01*
G01*
X53647800Y-26804600D01*
G75*
G02*
X53897800Y-26554600I250000J0D01*
G01*
X54397800Y-26554600D01*
G75*
G02*
X54647800Y-26804600I0J-250000D01*
G01*
G37*
%TD*%
D14*
%TO.C,J3*%
X43140000Y-36717000D03*
X41140000Y-36717000D03*
X39140000Y-36717000D03*
X42140000Y-38467000D03*
X40140000Y-38467000D03*
X38140000Y-38467000D03*
%TD*%
%TO.C,C4*%
G36*
G01*
X30930000Y-40099000D02*
X30930000Y-39149000D01*
G75*
G02*
X31180000Y-38899000I250000J0D01*
G01*
X31680000Y-38899000D01*
G75*
G02*
X31930000Y-39149000I0J-250000D01*
G01*
X31930000Y-40099000D01*
G75*
G02*
X31680000Y-40349000I-250000J0D01*
G01*
X31180000Y-40349000D01*
G75*
G02*
X30930000Y-40099000I0J250000D01*
G01*
G37*
G36*
G01*
X29030000Y-40099000D02*
X29030000Y-39149000D01*
G75*
G02*
X29280000Y-38899000I250000J0D01*
G01*
X29780000Y-38899000D01*
G75*
G02*
X30030000Y-39149000I0J-250000D01*
G01*
X30030000Y-40099000D01*
G75*
G02*
X29780000Y-40349000I-250000J0D01*
G01*
X29280000Y-40349000D01*
G75*
G02*
X29030000Y-40099000I0J250000D01*
G01*
G37*
%TD*%
%TO.C,C12*%
G36*
G01*
X79839800Y-65230200D02*
X80789800Y-65230200D01*
G75*
G02*
X81039800Y-65480200I0J-250000D01*
G01*
X81039800Y-65980200D01*
G75*
G02*
X80789800Y-66230200I-250000J0D01*
G01*
X79839800Y-66230200D01*
G75*
G02*
X79589800Y-65980200I0J250000D01*
G01*
X79589800Y-65480200D01*
G75*
G02*
X79839800Y-65230200I250000J0D01*
G01*
G37*
G36*
G01*
X79839800Y-63330200D02*
X80789800Y-63330200D01*
G75*
G02*
X81039800Y-63580200I0J-250000D01*
G01*
X81039800Y-64080200D01*
G75*
G02*
X80789800Y-64330200I-250000J0D01*
G01*
X79839800Y-64330200D01*
G75*
G02*
X79589800Y-64080200I0J250000D01*
G01*
X79589800Y-63580200D01*
G75*
G02*
X79839800Y-63330200I250000J0D01*
G01*
G37*
%TD*%
%TO.C,R2*%
G36*
G01*
X50706700Y-31680999D02*
X50706700Y-32581001D01*
G75*
G02*
X50456701Y-32831000I-249999J0D01*
G01*
X49931699Y-32831000D01*
G75*
G02*
X49681700Y-32581001I0J249999D01*
G01*
X49681700Y-31680999D01*
G75*
G02*
X49931699Y-31431000I249999J0D01*
G01*
X50456701Y-31431000D01*
G75*
G02*
X50706700Y-31680999I0J-249999D01*
G01*
G37*
G36*
G01*
X52531700Y-31680999D02*
X52531700Y-32581001D01*
G75*
G02*
X52281701Y-32831000I-249999J0D01*
G01*
X51756699Y-32831000D01*
G75*
G02*
X51506700Y-32581001I0J249999D01*
G01*
X51506700Y-31680999D01*
G75*
G02*
X51756699Y-31431000I249999J0D01*
G01*
X52281701Y-31431000D01*
G75*
G02*
X52531700Y-31680999I0J-249999D01*
G01*
G37*
%TD*%
%TO.C,R3*%
G36*
G01*
X96816500Y-62934001D02*
X96816500Y-62033999D01*
G75*
G02*
X97066499Y-61784000I249999J0D01*
G01*
X97591501Y-61784000D01*
G75*
G02*
X97841500Y-62033999I0J-249999D01*
G01*
X97841500Y-62934001D01*
G75*
G02*
X97591501Y-63184000I-249999J0D01*
G01*
X97066499Y-63184000D01*
G75*
G02*
X96816500Y-62934001I0J249999D01*
G01*
G37*
G36*
G01*
X94991500Y-62934001D02*
X94991500Y-62033999D01*
G75*
G02*
X95241499Y-61784000I249999J0D01*
G01*
X95766501Y-61784000D01*
G75*
G02*
X96016500Y-62033999I0J-249999D01*
G01*
X96016500Y-62934001D01*
G75*
G02*
X95766501Y-63184000I-249999J0D01*
G01*
X95241499Y-63184000D01*
G75*
G02*
X94991500Y-62934001I0J249999D01*
G01*
G37*
%TD*%
%TO.C,R4*%
G36*
G01*
X92752500Y-63950001D02*
X92752500Y-63049999D01*
G75*
G02*
X93002499Y-62800000I249999J0D01*
G01*
X93527501Y-62800000D01*
G75*
G02*
X93777500Y-63049999I0J-249999D01*
G01*
X93777500Y-63950001D01*
G75*
G02*
X93527501Y-64200000I-249999J0D01*
G01*
X93002499Y-64200000D01*
G75*
G02*
X92752500Y-63950001I0J249999D01*
G01*
G37*
G36*
G01*
X90927500Y-63950001D02*
X90927500Y-63049999D01*
G75*
G02*
X91177499Y-62800000I249999J0D01*
G01*
X91702501Y-62800000D01*
G75*
G02*
X91952500Y-63049999I0J-249999D01*
G01*
X91952500Y-63950001D01*
G75*
G02*
X91702501Y-64200000I-249999J0D01*
G01*
X91177499Y-64200000D01*
G75*
G02*
X90927500Y-63950001I0J249999D01*
G01*
G37*
%TD*%
%TO.C,R6*%
G36*
G01*
X75699199Y-65171900D02*
X76599201Y-65171900D01*
G75*
G02*
X76849200Y-65421899I0J-249999D01*
G01*
X76849200Y-65946901D01*
G75*
G02*
X76599201Y-66196900I-249999J0D01*
G01*
X75699199Y-66196900D01*
G75*
G02*
X75449200Y-65946901I0J249999D01*
G01*
X75449200Y-65421899D01*
G75*
G02*
X75699199Y-65171900I249999J0D01*
G01*
G37*
G36*
G01*
X75699199Y-63346900D02*
X76599201Y-63346900D01*
G75*
G02*
X76849200Y-63596899I0J-249999D01*
G01*
X76849200Y-64121901D01*
G75*
G02*
X76599201Y-64371900I-249999J0D01*
G01*
X75699199Y-64371900D01*
G75*
G02*
X75449200Y-64121901I0J249999D01*
G01*
X75449200Y-63596899D01*
G75*
G02*
X75699199Y-63346900I249999J0D01*
G01*
G37*
%TD*%
%TO.C,R14*%
G36*
G01*
X34409801Y-64778300D02*
X33509799Y-64778300D01*
G75*
G02*
X33259800Y-64528301I0J249999D01*
G01*
X33259800Y-64003299D01*
G75*
G02*
X33509799Y-63753300I249999J0D01*
G01*
X34409801Y-63753300D01*
G75*
G02*
X34659800Y-64003299I0J-249999D01*
G01*
X34659800Y-64528301D01*
G75*
G02*
X34409801Y-64778300I-249999J0D01*
G01*
G37*
G36*
G01*
X34409801Y-66603300D02*
X33509799Y-66603300D01*
G75*
G02*
X33259800Y-66353301I0J249999D01*
G01*
X33259800Y-65828299D01*
G75*
G02*
X33509799Y-65578300I249999J0D01*
G01*
X34409801Y-65578300D01*
G75*
G02*
X34659800Y-65828299I0J-249999D01*
G01*
X34659800Y-66353301D01*
G75*
G02*
X34409801Y-66603300I-249999J0D01*
G01*
G37*
%TD*%
%TO.C,R15*%
G36*
G01*
X37190100Y-67012399D02*
X37190100Y-67912401D01*
G75*
G02*
X36940101Y-68162400I-249999J0D01*
G01*
X36415099Y-68162400D01*
G75*
G02*
X36165100Y-67912401I0J249999D01*
G01*
X36165100Y-67012399D01*
G75*
G02*
X36415099Y-66762400I249999J0D01*
G01*
X36940101Y-66762400D01*
G75*
G02*
X37190100Y-67012399I0J-249999D01*
G01*
G37*
G36*
G01*
X39015100Y-67012399D02*
X39015100Y-67912401D01*
G75*
G02*
X38765101Y-68162400I-249999J0D01*
G01*
X38240099Y-68162400D01*
G75*
G02*
X37990100Y-67912401I0J249999D01*
G01*
X37990100Y-67012399D01*
G75*
G02*
X38240099Y-66762400I249999J0D01*
G01*
X38765101Y-66762400D01*
G75*
G02*
X39015100Y-67012399I0J-249999D01*
G01*
G37*
%TD*%
%TO.C,R12*%
G36*
G01*
X70046001Y-64065200D02*
X69145999Y-64065200D01*
G75*
G02*
X68896000Y-63815201I0J249999D01*
G01*
X68896000Y-63290199D01*
G75*
G02*
X69145999Y-63040200I249999J0D01*
G01*
X70046001Y-63040200D01*
G75*
G02*
X70296000Y-63290199I0J-249999D01*
G01*
X70296000Y-63815201D01*
G75*
G02*
X70046001Y-64065200I-249999J0D01*
G01*
G37*
G36*
G01*
X70046001Y-65890200D02*
X69145999Y-65890200D01*
G75*
G02*
X68896000Y-65640201I0J249999D01*
G01*
X68896000Y-65115199D01*
G75*
G02*
X69145999Y-64865200I249999J0D01*
G01*
X70046001Y-64865200D01*
G75*
G02*
X70296000Y-65115199I0J-249999D01*
G01*
X70296000Y-65640201D01*
G75*
G02*
X70046001Y-65890200I-249999J0D01*
G01*
G37*
%TD*%
D15*
%TO.C,TP1*%
X55219600Y-60553600D03*
%TD*%
%TO.C,R10*%
G36*
G01*
X96308500Y-57346001D02*
X96308500Y-56445999D01*
G75*
G02*
X96558499Y-56196000I249999J0D01*
G01*
X97083501Y-56196000D01*
G75*
G02*
X97333500Y-56445999I0J-249999D01*
G01*
X97333500Y-57346001D01*
G75*
G02*
X97083501Y-57596000I-249999J0D01*
G01*
X96558499Y-57596000D01*
G75*
G02*
X96308500Y-57346001I0J249999D01*
G01*
G37*
G36*
G01*
X94483500Y-57346001D02*
X94483500Y-56445999D01*
G75*
G02*
X94733499Y-56196000I249999J0D01*
G01*
X95258501Y-56196000D01*
G75*
G02*
X95508500Y-56445999I0J-249999D01*
G01*
X95508500Y-57346001D01*
G75*
G02*
X95258501Y-57596000I-249999J0D01*
G01*
X94733499Y-57596000D01*
G75*
G02*
X94483500Y-57346001I0J249999D01*
G01*
G37*
%TD*%
%TO.C,R11*%
G36*
G01*
X72255801Y-66857300D02*
X71355799Y-66857300D01*
G75*
G02*
X71105800Y-66607301I0J249999D01*
G01*
X71105800Y-66082299D01*
G75*
G02*
X71355799Y-65832300I249999J0D01*
G01*
X72255801Y-65832300D01*
G75*
G02*
X72505800Y-66082299I0J-249999D01*
G01*
X72505800Y-66607301D01*
G75*
G02*
X72255801Y-66857300I-249999J0D01*
G01*
G37*
G36*
G01*
X72255801Y-68682300D02*
X71355799Y-68682300D01*
G75*
G02*
X71105800Y-68432301I0J249999D01*
G01*
X71105800Y-67907299D01*
G75*
G02*
X71355799Y-67657300I249999J0D01*
G01*
X72255801Y-67657300D01*
G75*
G02*
X72505800Y-67907299I0J-249999D01*
G01*
X72505800Y-68432301D01*
G75*
G02*
X72255801Y-68682300I-249999J0D01*
G01*
G37*
%TD*%
%TO.C,TP3*%
X65176400Y-58928000D03*
%TD*%
%TO.C,TP8*%
X66294000Y-39370000D03*
%TD*%
%TO.C,TP4*%
X63246000Y-39370000D03*
%TD*%
%TO.C,TP14*%
X49809400Y-28295600D03*
%TD*%
%TO.C,TP13*%
X56616600Y-27965400D03*
%TD*%
%TO.C,TP15*%
X52781200Y-39547800D03*
%TD*%
%TO.C,TP2*%
X60401200Y-60477400D03*
%TD*%
%TO.C,TP7*%
X65176400Y-56692800D03*
%TD*%
%TO.C,R8*%
G36*
G01*
X77781999Y-65171900D02*
X78682001Y-65171900D01*
G75*
G02*
X78932000Y-65421899I0J-249999D01*
G01*
X78932000Y-65946901D01*
G75*
G02*
X78682001Y-66196900I-249999J0D01*
G01*
X77781999Y-66196900D01*
G75*
G02*
X77532000Y-65946901I0J249999D01*
G01*
X77532000Y-65421899D01*
G75*
G02*
X77781999Y-65171900I249999J0D01*
G01*
G37*
G36*
G01*
X77781999Y-63346900D02*
X78682001Y-63346900D01*
G75*
G02*
X78932000Y-63596899I0J-249999D01*
G01*
X78932000Y-64121901D01*
G75*
G02*
X78682001Y-64371900I-249999J0D01*
G01*
X77781999Y-64371900D01*
G75*
G02*
X77532000Y-64121901I0J249999D01*
G01*
X77532000Y-63596899D01*
G75*
G02*
X77781999Y-63346900I249999J0D01*
G01*
G37*
%TD*%
%TO.C,TP16*%
X48920400Y-39420800D03*
%TD*%
%TO.C,R13*%
G36*
G01*
X72165900Y-64015199D02*
X72165900Y-64915201D01*
G75*
G02*
X71915901Y-65165200I-249999J0D01*
G01*
X71390899Y-65165200D01*
G75*
G02*
X71140900Y-64915201I0J249999D01*
G01*
X71140900Y-64015199D01*
G75*
G02*
X71390899Y-63765200I249999J0D01*
G01*
X71915901Y-63765200D01*
G75*
G02*
X72165900Y-64015199I0J-249999D01*
G01*
G37*
G36*
G01*
X73990900Y-64015199D02*
X73990900Y-64915201D01*
G75*
G02*
X73740901Y-65165200I-249999J0D01*
G01*
X73215899Y-65165200D01*
G75*
G02*
X72965900Y-64915201I0J249999D01*
G01*
X72965900Y-64015199D01*
G75*
G02*
X73215899Y-63765200I249999J0D01*
G01*
X73740901Y-63765200D01*
G75*
G02*
X73990900Y-64015199I0J-249999D01*
G01*
G37*
%TD*%
D16*
%TO.C,U1*%
X29641800Y-51943000D03*
X29641800Y-49961800D03*
D17*
X29464000Y-57277000D03*
D16*
X32004000Y-57277000D03*
X34544000Y-57277000D03*
X37084000Y-57277000D03*
X39624000Y-57277000D03*
X42164000Y-57277000D03*
X44704000Y-57277000D03*
X47244000Y-57277000D03*
X49784000Y-57277000D03*
X52324000Y-57277000D03*
X54864000Y-57277000D03*
X57404000Y-57277000D03*
X59944000Y-57277000D03*
X42164000Y-44577000D03*
X39624000Y-44577000D03*
X37084000Y-44577000D03*
X32004000Y-44577000D03*
X29464000Y-42037000D03*
X32004000Y-42037000D03*
X34544000Y-42037000D03*
X37084000Y-42037000D03*
X39624000Y-42037000D03*
X42164000Y-42037000D03*
X44704000Y-42037000D03*
X47244000Y-42037000D03*
X49784000Y-42037000D03*
X52324000Y-42037000D03*
X54864000Y-42037000D03*
X57404000Y-42037000D03*
X59944000Y-42037000D03*
X62484000Y-57277000D03*
X62484000Y-54737000D03*
X62484000Y-52197000D03*
X62484000Y-42037000D03*
X62484000Y-44577000D03*
X62484000Y-47117000D03*
X62484000Y-49657000D03*
%TD*%
%TO.C,R9*%
G36*
G01*
X93160001Y-57408500D02*
X92259999Y-57408500D01*
G75*
G02*
X92010000Y-57158501I0J249999D01*
G01*
X92010000Y-56633499D01*
G75*
G02*
X92259999Y-56383500I249999J0D01*
G01*
X93160001Y-56383500D01*
G75*
G02*
X93410000Y-56633499I0J-249999D01*
G01*
X93410000Y-57158501D01*
G75*
G02*
X93160001Y-57408500I-249999J0D01*
G01*
G37*
G36*
G01*
X93160001Y-59233500D02*
X92259999Y-59233500D01*
G75*
G02*
X92010000Y-58983501I0J249999D01*
G01*
X92010000Y-58458499D01*
G75*
G02*
X92259999Y-58208500I249999J0D01*
G01*
X93160001Y-58208500D01*
G75*
G02*
X93410000Y-58458499I0J-249999D01*
G01*
X93410000Y-58983501D01*
G75*
G02*
X93160001Y-59233500I-249999J0D01*
G01*
G37*
%TD*%
D15*
%TO.C,TP6*%
X57988200Y-60477400D03*
%TD*%
%TO.C,TP5*%
X52679600Y-60502800D03*
%TD*%
%TO.C,U5*%
G36*
G01*
X31334800Y-65684700D02*
X31534800Y-65684700D01*
G75*
G02*
X31634800Y-65784700I0J-100000D01*
G01*
X31634800Y-67209700D01*
G75*
G02*
X31534800Y-67309700I-100000J0D01*
G01*
X31334800Y-67309700D01*
G75*
G02*
X31234800Y-67209700I0J100000D01*
G01*
X31234800Y-65784700D01*
G75*
G02*
X31334800Y-65684700I100000J0D01*
G01*
G37*
G36*
G01*
X30684800Y-65684700D02*
X30884800Y-65684700D01*
G75*
G02*
X30984800Y-65784700I0J-100000D01*
G01*
X30984800Y-67209700D01*
G75*
G02*
X30884800Y-67309700I-100000J0D01*
G01*
X30684800Y-67309700D01*
G75*
G02*
X30584800Y-67209700I0J100000D01*
G01*
X30584800Y-65784700D01*
G75*
G02*
X30684800Y-65684700I100000J0D01*
G01*
G37*
G36*
G01*
X30034800Y-65684700D02*
X30234800Y-65684700D01*
G75*
G02*
X30334800Y-65784700I0J-100000D01*
G01*
X30334800Y-67209700D01*
G75*
G02*
X30234800Y-67309700I-100000J0D01*
G01*
X30034800Y-67309700D01*
G75*
G02*
X29934800Y-67209700I0J100000D01*
G01*
X29934800Y-65784700D01*
G75*
G02*
X30034800Y-65684700I100000J0D01*
G01*
G37*
G36*
G01*
X29384800Y-65684700D02*
X29584800Y-65684700D01*
G75*
G02*
X29684800Y-65784700I0J-100000D01*
G01*
X29684800Y-67209700D01*
G75*
G02*
X29584800Y-67309700I-100000J0D01*
G01*
X29384800Y-67309700D01*
G75*
G02*
X29284800Y-67209700I0J100000D01*
G01*
X29284800Y-65784700D01*
G75*
G02*
X29384800Y-65684700I100000J0D01*
G01*
G37*
G36*
G01*
X29384800Y-61459700D02*
X29584800Y-61459700D01*
G75*
G02*
X29684800Y-61559700I0J-100000D01*
G01*
X29684800Y-62984700D01*
G75*
G02*
X29584800Y-63084700I-100000J0D01*
G01*
X29384800Y-63084700D01*
G75*
G02*
X29284800Y-62984700I0J100000D01*
G01*
X29284800Y-61559700D01*
G75*
G02*
X29384800Y-61459700I100000J0D01*
G01*
G37*
G36*
G01*
X30034800Y-61459700D02*
X30234800Y-61459700D01*
G75*
G02*
X30334800Y-61559700I0J-100000D01*
G01*
X30334800Y-62984700D01*
G75*
G02*
X30234800Y-63084700I-100000J0D01*
G01*
X30034800Y-63084700D01*
G75*
G02*
X29934800Y-62984700I0J100000D01*
G01*
X29934800Y-61559700D01*
G75*
G02*
X30034800Y-61459700I100000J0D01*
G01*
G37*
G36*
G01*
X30684800Y-61459700D02*
X30884800Y-61459700D01*
G75*
G02*
X30984800Y-61559700I0J-100000D01*
G01*
X30984800Y-62984700D01*
G75*
G02*
X30884800Y-63084700I-100000J0D01*
G01*
X30684800Y-63084700D01*
G75*
G02*
X30584800Y-62984700I0J100000D01*
G01*
X30584800Y-61559700D01*
G75*
G02*
X30684800Y-61459700I100000J0D01*
G01*
G37*
G36*
G01*
X31334800Y-61459700D02*
X31534800Y-61459700D01*
G75*
G02*
X31634800Y-61559700I0J-100000D01*
G01*
X31634800Y-62984700D01*
G75*
G02*
X31534800Y-63084700I-100000J0D01*
G01*
X31334800Y-63084700D01*
G75*
G02*
X31234800Y-62984700I0J100000D01*
G01*
X31234800Y-61559700D01*
G75*
G02*
X31334800Y-61459700I100000J0D01*
G01*
G37*
%TD*%
%TO.C,U2*%
G36*
G01*
X86655000Y-61110000D02*
X86655000Y-60810000D01*
G75*
G02*
X86805000Y-60660000I150000J0D01*
G01*
X88455000Y-60660000D01*
G75*
G02*
X88605000Y-60810000I0J-150000D01*
G01*
X88605000Y-61110000D01*
G75*
G02*
X88455000Y-61260000I-150000J0D01*
G01*
X86805000Y-61260000D01*
G75*
G02*
X86655000Y-61110000I0J150000D01*
G01*
G37*
G36*
G01*
X86655000Y-62380000D02*
X86655000Y-62080000D01*
G75*
G02*
X86805000Y-61930000I150000J0D01*
G01*
X88455000Y-61930000D01*
G75*
G02*
X88605000Y-62080000I0J-150000D01*
G01*
X88605000Y-62380000D01*
G75*
G02*
X88455000Y-62530000I-150000J0D01*
G01*
X86805000Y-62530000D01*
G75*
G02*
X86655000Y-62380000I0J150000D01*
G01*
G37*
G36*
G01*
X86655000Y-63650000D02*
X86655000Y-63350000D01*
G75*
G02*
X86805000Y-63200000I150000J0D01*
G01*
X88455000Y-63200000D01*
G75*
G02*
X88605000Y-63350000I0J-150000D01*
G01*
X88605000Y-63650000D01*
G75*
G02*
X88455000Y-63800000I-150000J0D01*
G01*
X86805000Y-63800000D01*
G75*
G02*
X86655000Y-63650000I0J150000D01*
G01*
G37*
G36*
G01*
X86655000Y-64920000D02*
X86655000Y-64620000D01*
G75*
G02*
X86805000Y-64470000I150000J0D01*
G01*
X88455000Y-64470000D01*
G75*
G02*
X88605000Y-64620000I0J-150000D01*
G01*
X88605000Y-64920000D01*
G75*
G02*
X88455000Y-65070000I-150000J0D01*
G01*
X86805000Y-65070000D01*
G75*
G02*
X86655000Y-64920000I0J150000D01*
G01*
G37*
G36*
G01*
X81705000Y-64920000D02*
X81705000Y-64620000D01*
G75*
G02*
X81855000Y-64470000I150000J0D01*
G01*
X83505000Y-64470000D01*
G75*
G02*
X83655000Y-64620000I0J-150000D01*
G01*
X83655000Y-64920000D01*
G75*
G02*
X83505000Y-65070000I-150000J0D01*
G01*
X81855000Y-65070000D01*
G75*
G02*
X81705000Y-64920000I0J150000D01*
G01*
G37*
G36*
G01*
X81705000Y-63650000D02*
X81705000Y-63350000D01*
G75*
G02*
X81855000Y-63200000I150000J0D01*
G01*
X83505000Y-63200000D01*
G75*
G02*
X83655000Y-63350000I0J-150000D01*
G01*
X83655000Y-63650000D01*
G75*
G02*
X83505000Y-63800000I-150000J0D01*
G01*
X81855000Y-63800000D01*
G75*
G02*
X81705000Y-63650000I0J150000D01*
G01*
G37*
G36*
G01*
X81705000Y-62380000D02*
X81705000Y-62080000D01*
G75*
G02*
X81855000Y-61930000I150000J0D01*
G01*
X83505000Y-61930000D01*
G75*
G02*
X83655000Y-62080000I0J-150000D01*
G01*
X83655000Y-62380000D01*
G75*
G02*
X83505000Y-62530000I-150000J0D01*
G01*
X81855000Y-62530000D01*
G75*
G02*
X81705000Y-62380000I0J150000D01*
G01*
G37*
G36*
G01*
X81705000Y-61110000D02*
X81705000Y-60810000D01*
G75*
G02*
X81855000Y-60660000I150000J0D01*
G01*
X83505000Y-60660000D01*
G75*
G02*
X83655000Y-60810000I0J-150000D01*
G01*
X83655000Y-61110000D01*
G75*
G02*
X83505000Y-61260000I-150000J0D01*
G01*
X81855000Y-61260000D01*
G75*
G02*
X81705000Y-61110000I0J150000D01*
G01*
G37*
%TD*%
%TO.C,TP18*%
X103632000Y-65280000D03*
%TD*%
%TO.C,TP17*%
X103632000Y-62230000D03*
%TD*%
D18*
%TO.C,U3*%
X65212399Y-64516000D03*
D19*
X65212399Y-65786000D03*
X65212399Y-67056000D03*
X65212399Y-68381499D03*
X57012401Y-68381499D03*
X57012401Y-67056000D03*
X57012401Y-65786000D03*
X57012401Y-64516000D03*
%TD*%
M02*
