M48
; DRILL file {KiCad (5.1.10)-1} date 10/29/22 14:49:20
; FORMAT={-:-/ absolute / inch / decimal}
; #@! TF.CreationDate,2022-10-29T14:49:20-06:00
; #@! TF.GenerationSoftware,Kicad,Pcbnew,(5.1.10)-1
; #@! TF.FileFunction,Plated,1,4,PTH
FMAT,2
INCH
T1C0.0157
T2C0.0374
T3C0.0433
%
G90
G05
T1
X1.04Y-1.273
X1.06Y-2.329
X1.085Y-1.223
X1.283Y-2.618
X1.304Y-2.423
X1.305Y-2.379
X1.307Y-2.336
X1.325Y-1.15
X1.325Y-1.225
X1.325Y-1.3
X1.446Y-1.514
X1.449Y-1.45
X1.474Y-1.407
X1.491Y-1.359
X1.6366Y-2.4644
X1.6984Y-1.3726
X2.001Y-2.554
X2.187Y-1.166
X2.235Y-1.166
X2.282Y-1.054
X2.285Y-1.166
X2.553Y-2.778
X2.6Y-2.834
X2.634Y-1.673
X2.662Y-2.166
X2.682Y-2.796
X2.752Y-2.845
X2.804Y-2.787
X2.854Y-2.84
X2.876Y-2.766
X2.898Y-1.673
X3.42Y-2.235
X3.74Y-2.177
X3.963Y-2.615
X4.025Y-2.663
X4.125Y-2.663
X4.162Y-2.556
X4.196Y-2.6
X4.235Y-2.556
X4.239Y-2.652
T2
X1.9111Y-1.414
X2.0096Y-1.414
X2.108Y-1.414
X2.2064Y-1.414
X2.786Y-1.9691
X2.786Y-2.0676
X2.786Y-2.166
T3
X1.16Y-1.655
X1.16Y-2.255
X1.167Y-1.967
X1.167Y-2.045
X1.26Y-1.655
X1.26Y-1.755
X1.26Y-2.255
X1.36Y-1.655
X1.36Y-2.255
X1.46Y-1.655
X1.46Y-1.755
X1.46Y-2.255
X1.56Y-1.655
X1.56Y-1.755
X1.56Y-2.255
X1.66Y-1.655
X1.66Y-1.755
X1.66Y-2.255
X1.76Y-1.655
X1.76Y-2.255
X1.86Y-1.655
X1.86Y-2.255
X1.96Y-1.655
X1.96Y-2.255
X2.06Y-1.655
X2.06Y-2.255
X2.16Y-1.655
X2.16Y-2.255
X2.26Y-1.655
X2.26Y-2.255
X2.36Y-1.655
X2.36Y-2.255
X2.46Y-1.655
X2.46Y-1.755
X2.46Y-1.855
X2.46Y-1.955
X2.46Y-2.055
X2.46Y-2.155
X2.46Y-2.255
T0
M30
