M48
; DRILL file {KiCad (5.1.10)-1} date 10/01/22 14:34:00
; FORMAT={-:-/ absolute / inch / decimal}
; #@! TF.CreationDate,2022-10-01T14:34:00-06:00
; #@! TF.GenerationSoftware,Kicad,Pcbnew,(5.1.10)-1
; #@! TF.FileFunction,Plated,1,4,PTH
FMAT,2
INCH
T1C0.0157
T2C0.0315
T3C0.0394
T4C0.0630
T5C0.0787
%
G90
G05
T1
X2.0992Y-2.8878
X2.0992Y-2.9567
X2.0992Y-3.0551
X2.1386Y-2.3563
X2.1386Y-2.4744
X2.1386Y-2.7598
X2.1583Y-2.2283
X2.1681Y-2.5728
X2.178Y-2.6713
X2.1878Y-1.9724
X2.1878Y-2.1102
X2.1976Y-1.7953
X2.2469Y-2.4154
X2.2567Y-1.8937
X2.2587Y-3.2494
X2.2587Y-3.3026
X2.2665Y-2.7402
X2.2764Y-2.0118
X2.2921Y-3.2494
X2.2921Y-3.3026
X2.3059Y-2.4646
X2.3157Y-2.1398
X2.3256Y-3.2494
X2.3256Y-3.3026
X2.3551Y-1.9232
X2.3591Y-3.2494
X2.3591Y-3.3026
X2.3748Y-1.8248
X2.3925Y-3.2494
X2.3925Y-3.3026
X2.4043Y-2.0217
X2.426Y-3.2494
X2.426Y-3.3026
X2.4594Y-3.2494
X2.4594Y-3.3026
X2.4929Y-3.2494
X2.4929Y-3.3026
X2.5815Y-3.1732
X2.7193Y-2.3627
X2.7488Y-2.0413
X2.8177Y-2.4154
X2.8669Y-2.2579
X2.8669Y-2.3268
X2.9358Y-2.2677
X2.9752Y-2.0315
X2.9752Y-2.1102
X2.9998Y-3.0797
X3.0441Y-2.3169
X3.1524Y-2.0217
X3.2016Y-3.0354
X3.3984Y-2.937
X3.4083Y-2.1004
X3.4083Y-3.0059
X3.4181Y-2.2382
X3.4772Y-2.4055
X3.4772Y-3.0256
X3.4969Y-2.9469
X3.6642Y-2.1594
X3.8118Y-2.5925
X3.8413Y-3.0157
X3.9738Y-2.4797
X4.1465Y-2.9764
X4.1563Y-2.7598
X4.2252Y-3.4587
X4.3138Y-1.7657
X4.3138Y-1.9626
X4.363Y-1.8543
X4.3925Y-2.0512
X4.422Y-1.7461
X4.4417Y-1.9626
X4.4417Y-2.9862
X4.4811Y-2.1398
X4.5106Y-1.8051
X4.5106Y-2.435
X4.5303Y-1.9331
X4.5303Y-2.0413
X4.55Y-3.2421
X4.5992Y-1.8543
X4.6091Y-2.1102
X4.6287Y-2.002
X4.6583Y-3.2323
X4.6681Y-1.7854
X4.6681Y-1.9232
X4.6976Y-2.189
X4.7173Y-2.061
X4.7764Y-1.7559
X4.7764Y-2.4744
X4.7862Y-1.8445
X4.7862Y-3.0453
X4.7862Y-3.1535
X4.7961Y-2.7008
X4.7961Y-2.8681
X4.8059Y-1.9724
X4.8059Y-2.1201
X4.8157Y-2.2382
X4.8256Y-2.7894
X4.8256Y-2.9567
X4.8354Y-2.3366
X4.8354Y-2.4547
X4.8354Y-2.6024
X4.8354Y-3.3602
X4.8354Y-3.5374
X4.865Y-3.0551
X4.865Y-3.1929
X4.865Y-3.2815
X4.8846Y-3.4685
T2
X2.4437Y-2.8354
X2.4437Y-3.0354
T3
X2.8472Y-2.6417
X3.0736Y-2.0906
X3.0736Y-2.189
X3.4472Y-2.6417
T4
G00X2.2057Y-3.4325
M15
G01X2.2057Y-3.4325
M16
G05
G00X2.5459Y-3.4325
M15
G01X2.5459Y-3.4325
M16
G05
T5
G00X2.2057Y-3.2691
M15
G01X2.2057Y-3.2691
M16
G05
G00X2.5459Y-3.2691
M15
G01X2.5459Y-3.2691
M16
G05
T0
M30
