%TF.GenerationSoftware,KiCad,Pcbnew,(5.1.10)-1*%
%TF.CreationDate,2022-10-02T14:19:25-06:00*%
%TF.ProjectId,PowerSupply,506f7765-7253-4757-9070-6c792e6b6963,rev?*%
%TF.SameCoordinates,Original*%
%TF.FileFunction,Copper,L3,Inr*%
%TF.FilePolarity,Positive*%
%FSLAX46Y46*%
G04 Gerber Fmt 4.6, Leading zero omitted, Abs format (unit mm)*
G04 Created by KiCad (PCBNEW (5.1.10)-1) date 2022-10-02 14:19:25*
%MOMM*%
%LPD*%
G01*
G04 APERTURE LIST*
%TA.AperFunction,ComponentPad*%
%ADD10O,2.000000X2.000000*%
%TD*%
%TA.AperFunction,ComponentPad*%
%ADD11C,2.000000*%
%TD*%
%TA.AperFunction,ComponentPad*%
%ADD12O,2.000000X1.700000*%
%TD*%
%TA.AperFunction,ComponentPad*%
%ADD13C,0.700000*%
%TD*%
%TA.AperFunction,ComponentPad*%
%ADD14R,0.700000X0.700000*%
%TD*%
%TA.AperFunction,ViaPad*%
%ADD15C,0.800000*%
%TD*%
%TA.AperFunction,Conductor*%
%ADD16C,0.254000*%
%TD*%
%TA.AperFunction,Conductor*%
%ADD17C,0.100000*%
%TD*%
G04 APERTURE END LIST*
D10*
%TO.N,Net-(D201-Pad2)*%
%TO.C,L201*%
X87560000Y-67100000D03*
D11*
%TO.N,VCC*%
X72320000Y-67100000D03*
%TD*%
D12*
%TO.N,GND*%
%TO.C,J302*%
X78070000Y-55600000D03*
%TO.N,+BATT*%
%TA.AperFunction,ComponentPad*%
G36*
G01*
X77320000Y-52250000D02*
X78820000Y-52250000D01*
G75*
G02*
X79070000Y-52500000I0J-250000D01*
G01*
X79070000Y-53700000D01*
G75*
G02*
X78820000Y-53950000I-250000J0D01*
G01*
X77320000Y-53950000D01*
G75*
G02*
X77070000Y-53700000I0J250000D01*
G01*
X77070000Y-52500000D01*
G75*
G02*
X77320000Y-52250000I250000J0D01*
G01*
G37*
%TD.AperFunction*%
%TD*%
%TO.N,N/C*%
%TO.C,e*%
%TA.AperFunction,ComponentPad*%
G36*
G01*
X64315000Y-87635001D02*
X64315000Y-86735001D01*
G75*
G02*
X64665000Y-86385001I350000J0D01*
G01*
X64665000Y-86385001D01*
G75*
G02*
X65015000Y-86735001I0J-350000D01*
G01*
X65015000Y-87635001D01*
G75*
G02*
X64665000Y-87985001I-350000J0D01*
G01*
X64665000Y-87985001D01*
G75*
G02*
X64315000Y-87635001I0J350000D01*
G01*
G37*
%TD.AperFunction*%
%TA.AperFunction,ComponentPad*%
G36*
G01*
X55675000Y-87635001D02*
X55675000Y-86735001D01*
G75*
G02*
X56025000Y-86385001I350000J0D01*
G01*
X56025000Y-86385001D01*
G75*
G02*
X56375000Y-86735001I0J-350000D01*
G01*
X56375000Y-87635001D01*
G75*
G02*
X56025000Y-87985001I-350000J0D01*
G01*
X56025000Y-87985001D01*
G75*
G02*
X55675000Y-87635001I0J350000D01*
G01*
G37*
%TD.AperFunction*%
D13*
X57370000Y-83885002D03*
X58220000Y-83885002D03*
X59070000Y-83885002D03*
X59920000Y-83885002D03*
X60770000Y-83885002D03*
X61620000Y-83885002D03*
X62470000Y-83885002D03*
X63320000Y-83885002D03*
%TO.N,GND*%
X63320000Y-82535001D03*
%TO.N,Net-(FB301-Pad1)*%
X62470000Y-82535001D03*
%TO.N,N/C*%
X61620000Y-82535001D03*
X60770000Y-82535001D03*
X59920000Y-82535001D03*
X59070000Y-82535001D03*
%TO.N,Net-(FB301-Pad1)*%
X58220000Y-82535001D03*
D14*
%TO.N,GND*%
X57370000Y-82535001D03*
%TO.N,N/C*%
%TA.AperFunction,ComponentPad*%
G36*
G01*
X64015000Y-83985001D02*
X64015000Y-82085001D01*
G75*
G02*
X64665000Y-81435001I650000J0D01*
G01*
X64665000Y-81435001D01*
G75*
G02*
X65315000Y-82085001I0J-650000D01*
G01*
X65315000Y-83985001D01*
G75*
G02*
X64665000Y-84635001I-650000J0D01*
G01*
X64665000Y-84635001D01*
G75*
G02*
X64015000Y-83985001I0J650000D01*
G01*
G37*
%TD.AperFunction*%
%TA.AperFunction,ComponentPad*%
G36*
G01*
X55375000Y-83985001D02*
X55375000Y-82085001D01*
G75*
G02*
X56025000Y-81435001I650000J0D01*
G01*
X56025000Y-81435001D01*
G75*
G02*
X56675000Y-82085001I0J-650000D01*
G01*
X56675000Y-83985001D01*
G75*
G02*
X56025000Y-84635001I-650000J0D01*
G01*
X56025000Y-84635001D01*
G75*
G02*
X55375000Y-83985001I0J650000D01*
G01*
G37*
%TD.AperFunction*%
%TD*%
D11*
%TO.N,Net-(FB301-Pad1)*%
%TO.C,FB301*%
X62070000Y-77100000D03*
%TO.N,VBUS*%
X62070000Y-72020000D03*
%TD*%
D15*
%TO.N,GND*%
X65570000Y-80600000D03*
X86820000Y-56850000D03*
X88320000Y-61100000D03*
X60320000Y-46350000D03*
X57320000Y-48100000D03*
X57820000Y-51100000D03*
X59820000Y-48850000D03*
X58820000Y-54350000D03*
X55570000Y-53600000D03*
X55820000Y-45600000D03*
X55570000Y-50100000D03*
X61070000Y-51350000D03*
X54820000Y-56600000D03*
X57070000Y-61350000D03*
X54320000Y-59850000D03*
X55070000Y-65350000D03*
X57570000Y-69600000D03*
X54320000Y-62850000D03*
X54320000Y-70100000D03*
X55320000Y-67850000D03*
X58570000Y-62600000D03*
X76195000Y-78225000D03*
X105570000Y-70100000D03*
X109570000Y-44850000D03*
X114570000Y-45850000D03*
X115070000Y-49100000D03*
X121570000Y-46850000D03*
X118570000Y-45350000D03*
X118570000Y-48850000D03*
X119820000Y-52350000D03*
X117070000Y-53600000D03*
X111570000Y-52100000D03*
X109570000Y-49850000D03*
X110820000Y-47100000D03*
X112820000Y-49850000D03*
X115070000Y-51850000D03*
X122070000Y-50100000D03*
X117570000Y-50850000D03*
X119320000Y-55600000D03*
X113820000Y-54350000D03*
X112320000Y-44350000D03*
X116820000Y-47100000D03*
X121320000Y-44600000D03*
X107320000Y-87850000D03*
X115570000Y-82350000D03*
X112820000Y-75850000D03*
X97570000Y-76600000D03*
X86320000Y-74600000D03*
X86570000Y-76350000D03*
X88820000Y-74850000D03*
X88320000Y-76850000D03*
X74570000Y-57600000D03*
X72820000Y-59100000D03*
X72820000Y-57350000D03*
X69070000Y-60012500D03*
X77320000Y-58850000D03*
X121570000Y-77350000D03*
X123570000Y-77600000D03*
X122570000Y-70850000D03*
X122570000Y-75100000D03*
X121820000Y-72850000D03*
X122820000Y-66100000D03*
X121820000Y-68600000D03*
X121320000Y-62850000D03*
X122820000Y-59350000D03*
X122820000Y-62350000D03*
X122320000Y-56850000D03*
X122070000Y-53850000D03*
X121570000Y-80100000D03*
X123570000Y-81100000D03*
X122820000Y-89850000D03*
X124070000Y-88100000D03*
X122820000Y-85350000D03*
X123570000Y-83350000D03*
X53320000Y-73350000D03*
X53320000Y-75100000D03*
X53320000Y-77600000D03*
%TO.N,Net-(C202-Pad1)*%
X86570000Y-53350000D03*
X93070000Y-54850000D03*
%TO.N,+BATT*%
X81320000Y-77100000D03*
X80070000Y-51350000D03*
X75570000Y-51600000D03*
X75570000Y-53600000D03*
X69820000Y-51850000D03*
%TO.N,Net-(R206-Pad1)*%
X96820000Y-65850000D03*
X105320000Y-75600000D03*
%TO.N,Net-(R209-Pad2)*%
X100935000Y-62985000D03*
X114570000Y-61850000D03*
%TO.N,CHG_STAT*%
X71570000Y-61350000D03*
X118320000Y-82100000D03*
%TD*%
D16*
%TO.N,GND*%
X137193000Y-93044728D02*
X44737000Y-94311248D01*
X44737000Y-88929117D01*
X46335000Y-88929117D01*
X46335000Y-89270883D01*
X46401675Y-89606081D01*
X46532463Y-89921831D01*
X46722337Y-90205998D01*
X46964002Y-90447663D01*
X47248169Y-90637537D01*
X47563919Y-90768325D01*
X47899117Y-90835000D01*
X48240883Y-90835000D01*
X48576081Y-90768325D01*
X48891831Y-90637537D01*
X49175998Y-90447663D01*
X49417663Y-90205998D01*
X49607537Y-89921831D01*
X49738325Y-89606081D01*
X49805000Y-89270883D01*
X49805000Y-88929117D01*
X131335000Y-88929117D01*
X131335000Y-89270883D01*
X131401675Y-89606081D01*
X131532463Y-89921831D01*
X131722337Y-90205998D01*
X131964002Y-90447663D01*
X132248169Y-90637537D01*
X132563919Y-90768325D01*
X132899117Y-90835000D01*
X133240883Y-90835000D01*
X133576081Y-90768325D01*
X133891831Y-90637537D01*
X134175998Y-90447663D01*
X134417663Y-90205998D01*
X134607537Y-89921831D01*
X134738325Y-89606081D01*
X134805000Y-89270883D01*
X134805000Y-88929117D01*
X134738325Y-88593919D01*
X134607537Y-88278169D01*
X134417663Y-87994002D01*
X134175998Y-87752337D01*
X133891831Y-87562463D01*
X133576081Y-87431675D01*
X133240883Y-87365000D01*
X132899117Y-87365000D01*
X132563919Y-87431675D01*
X132248169Y-87562463D01*
X131964002Y-87752337D01*
X131722337Y-87994002D01*
X131532463Y-88278169D01*
X131401675Y-88593919D01*
X131335000Y-88929117D01*
X49805000Y-88929117D01*
X49738325Y-88593919D01*
X49607537Y-88278169D01*
X49417663Y-87994002D01*
X49175998Y-87752337D01*
X48891831Y-87562463D01*
X48576081Y-87431675D01*
X48240883Y-87365000D01*
X47899117Y-87365000D01*
X47563919Y-87431675D01*
X47248169Y-87562463D01*
X46964002Y-87752337D01*
X46722337Y-87994002D01*
X46532463Y-88278169D01*
X46401675Y-88593919D01*
X46335000Y-88929117D01*
X44737000Y-88929117D01*
X44737000Y-86735001D01*
X55036927Y-86735001D01*
X55036927Y-87635001D01*
X55055913Y-87827764D01*
X55112140Y-88013120D01*
X55203447Y-88183944D01*
X55326327Y-88333673D01*
X55476056Y-88456553D01*
X55646880Y-88547860D01*
X55832236Y-88604087D01*
X56024999Y-88623073D01*
X56025001Y-88623073D01*
X56217764Y-88604087D01*
X56403120Y-88547860D01*
X56573944Y-88456553D01*
X56723673Y-88333673D01*
X56846553Y-88183944D01*
X56937860Y-88013120D01*
X56994087Y-87827764D01*
X57013073Y-87635001D01*
X57013073Y-86735001D01*
X63676927Y-86735001D01*
X63676927Y-87635001D01*
X63695913Y-87827764D01*
X63752140Y-88013120D01*
X63843447Y-88183944D01*
X63966327Y-88333673D01*
X64116056Y-88456553D01*
X64286880Y-88547860D01*
X64472236Y-88604087D01*
X64664999Y-88623073D01*
X64665001Y-88623073D01*
X64857764Y-88604087D01*
X65043120Y-88547860D01*
X65213944Y-88456553D01*
X65363673Y-88333673D01*
X65486553Y-88183944D01*
X65577860Y-88013120D01*
X65634087Y-87827764D01*
X65653073Y-87635001D01*
X65653073Y-86735001D01*
X65634087Y-86542238D01*
X65577860Y-86356882D01*
X65486553Y-86186058D01*
X65363673Y-86036329D01*
X65213944Y-85913449D01*
X65043120Y-85822142D01*
X64857764Y-85765915D01*
X64665001Y-85746929D01*
X64664999Y-85746929D01*
X64472236Y-85765915D01*
X64286880Y-85822142D01*
X64116056Y-85913449D01*
X63966327Y-86036329D01*
X63843447Y-86186058D01*
X63752140Y-86356882D01*
X63695913Y-86542238D01*
X63676927Y-86735001D01*
X57013073Y-86735001D01*
X56994087Y-86542238D01*
X56937860Y-86356882D01*
X56846553Y-86186058D01*
X56723673Y-86036329D01*
X56573944Y-85913449D01*
X56403120Y-85822142D01*
X56217764Y-85765915D01*
X56025001Y-85746929D01*
X56024999Y-85746929D01*
X55832236Y-85765915D01*
X55646880Y-85822142D01*
X55476056Y-85913449D01*
X55326327Y-86036329D01*
X55203447Y-86186058D01*
X55112140Y-86356882D01*
X55055913Y-86542238D01*
X55036927Y-86735001D01*
X44737000Y-86735001D01*
X44737000Y-82085001D01*
X54736927Y-82085001D01*
X54736927Y-83985001D01*
X54761677Y-84236291D01*
X54834976Y-84477925D01*
X54954006Y-84700615D01*
X55114195Y-84895805D01*
X55309385Y-85055994D01*
X55532075Y-85175024D01*
X55773709Y-85248323D01*
X56024999Y-85273073D01*
X56025001Y-85273073D01*
X56276291Y-85248323D01*
X56517925Y-85175024D01*
X56740615Y-85055994D01*
X56935805Y-84895805D01*
X57012056Y-84802893D01*
X57082686Y-84832149D01*
X57272986Y-84870002D01*
X57467014Y-84870002D01*
X57657314Y-84832149D01*
X57795000Y-84775118D01*
X57932686Y-84832149D01*
X58122986Y-84870002D01*
X58317014Y-84870002D01*
X58507314Y-84832149D01*
X58645000Y-84775118D01*
X58782686Y-84832149D01*
X58972986Y-84870002D01*
X59167014Y-84870002D01*
X59357314Y-84832149D01*
X59495000Y-84775118D01*
X59632686Y-84832149D01*
X59822986Y-84870002D01*
X60017014Y-84870002D01*
X60207314Y-84832149D01*
X60345000Y-84775118D01*
X60482686Y-84832149D01*
X60672986Y-84870002D01*
X60867014Y-84870002D01*
X61057314Y-84832149D01*
X61195000Y-84775118D01*
X61332686Y-84832149D01*
X61522986Y-84870002D01*
X61717014Y-84870002D01*
X61907314Y-84832149D01*
X62045000Y-84775118D01*
X62182686Y-84832149D01*
X62372986Y-84870002D01*
X62567014Y-84870002D01*
X62757314Y-84832149D01*
X62895000Y-84775118D01*
X63032686Y-84832149D01*
X63222986Y-84870002D01*
X63417014Y-84870002D01*
X63607314Y-84832149D01*
X63677944Y-84802893D01*
X63754195Y-84895805D01*
X63949385Y-85055994D01*
X64172075Y-85175024D01*
X64413709Y-85248323D01*
X64664999Y-85273073D01*
X64665001Y-85273073D01*
X64916291Y-85248323D01*
X65157925Y-85175024D01*
X65380615Y-85055994D01*
X65575805Y-84895805D01*
X65735994Y-84700615D01*
X65855024Y-84477925D01*
X65928323Y-84236291D01*
X65953073Y-83985001D01*
X65953073Y-82085001D01*
X65944511Y-81998061D01*
X117285000Y-81998061D01*
X117285000Y-82201939D01*
X117324774Y-82401898D01*
X117402795Y-82590256D01*
X117516063Y-82759774D01*
X117660226Y-82903937D01*
X117829744Y-83017205D01*
X118018102Y-83095226D01*
X118218061Y-83135000D01*
X118421939Y-83135000D01*
X118621898Y-83095226D01*
X118810256Y-83017205D01*
X118979774Y-82903937D01*
X119123937Y-82759774D01*
X119237205Y-82590256D01*
X119315226Y-82401898D01*
X119355000Y-82201939D01*
X119355000Y-81998061D01*
X119315226Y-81798102D01*
X119237205Y-81609744D01*
X119123937Y-81440226D01*
X118979774Y-81296063D01*
X118810256Y-81182795D01*
X118621898Y-81104774D01*
X118421939Y-81065000D01*
X118218061Y-81065000D01*
X118018102Y-81104774D01*
X117829744Y-81182795D01*
X117660226Y-81296063D01*
X117516063Y-81440226D01*
X117402795Y-81609744D01*
X117324774Y-81798102D01*
X117285000Y-81998061D01*
X65944511Y-81998061D01*
X65928323Y-81833711D01*
X65855024Y-81592077D01*
X65735994Y-81369387D01*
X65575805Y-81174197D01*
X65380615Y-81014008D01*
X65157925Y-80894978D01*
X64916291Y-80821679D01*
X64665001Y-80796929D01*
X64664999Y-80796929D01*
X64413709Y-80821679D01*
X64172075Y-80894978D01*
X63949385Y-81014008D01*
X63754195Y-81174197D01*
X63594006Y-81369387D01*
X63489852Y-81564247D01*
X63425656Y-81550891D01*
X63231636Y-81549188D01*
X63041011Y-81585369D01*
X62894349Y-81644616D01*
X62757314Y-81587854D01*
X62567014Y-81550001D01*
X62372986Y-81550001D01*
X62182686Y-81587854D01*
X62045000Y-81644885D01*
X61907314Y-81587854D01*
X61717014Y-81550001D01*
X61522986Y-81550001D01*
X61332686Y-81587854D01*
X61195000Y-81644885D01*
X61057314Y-81587854D01*
X60867014Y-81550001D01*
X60672986Y-81550001D01*
X60482686Y-81587854D01*
X60345000Y-81644885D01*
X60207314Y-81587854D01*
X60017014Y-81550001D01*
X59822986Y-81550001D01*
X59632686Y-81587854D01*
X59495000Y-81644885D01*
X59357314Y-81587854D01*
X59167014Y-81550001D01*
X58972986Y-81550001D01*
X58782686Y-81587854D01*
X58645000Y-81644885D01*
X58507314Y-81587854D01*
X58317014Y-81550001D01*
X58122986Y-81550001D01*
X57936486Y-81587098D01*
X57844482Y-81559189D01*
X57720000Y-81546929D01*
X57655750Y-81550001D01*
X57497000Y-81708751D01*
X57497000Y-81865001D01*
X57454901Y-81907100D01*
X57347104Y-82068429D01*
X57313073Y-82150587D01*
X57313073Y-82085001D01*
X57288323Y-81833711D01*
X57215024Y-81592077D01*
X57095994Y-81369387D01*
X56935805Y-81174197D01*
X56740615Y-81014008D01*
X56517925Y-80894978D01*
X56276291Y-80821679D01*
X56025001Y-80796929D01*
X56024999Y-80796929D01*
X55773709Y-80821679D01*
X55532075Y-80894978D01*
X55309385Y-81014008D01*
X55114195Y-81174197D01*
X54954006Y-81369387D01*
X54834976Y-81592077D01*
X54761677Y-81833711D01*
X54736927Y-82085001D01*
X44737000Y-82085001D01*
X44737000Y-76938967D01*
X60435000Y-76938967D01*
X60435000Y-77261033D01*
X60497832Y-77576912D01*
X60621082Y-77874463D01*
X60800013Y-78142252D01*
X61027748Y-78369987D01*
X61295537Y-78548918D01*
X61593088Y-78672168D01*
X61908967Y-78735000D01*
X62231033Y-78735000D01*
X62546912Y-78672168D01*
X62844463Y-78548918D01*
X63112252Y-78369987D01*
X63339987Y-78142252D01*
X63518918Y-77874463D01*
X63642168Y-77576912D01*
X63705000Y-77261033D01*
X63705000Y-76998061D01*
X80285000Y-76998061D01*
X80285000Y-77201939D01*
X80324774Y-77401898D01*
X80402795Y-77590256D01*
X80516063Y-77759774D01*
X80660226Y-77903937D01*
X80829744Y-78017205D01*
X81018102Y-78095226D01*
X81218061Y-78135000D01*
X81421939Y-78135000D01*
X81621898Y-78095226D01*
X81810256Y-78017205D01*
X81979774Y-77903937D01*
X82123937Y-77759774D01*
X82237205Y-77590256D01*
X82315226Y-77401898D01*
X82355000Y-77201939D01*
X82355000Y-76998061D01*
X82315226Y-76798102D01*
X82237205Y-76609744D01*
X82123937Y-76440226D01*
X81979774Y-76296063D01*
X81810256Y-76182795D01*
X81621898Y-76104774D01*
X81421939Y-76065000D01*
X81218061Y-76065000D01*
X81018102Y-76104774D01*
X80829744Y-76182795D01*
X80660226Y-76296063D01*
X80516063Y-76440226D01*
X80402795Y-76609744D01*
X80324774Y-76798102D01*
X80285000Y-76998061D01*
X63705000Y-76998061D01*
X63705000Y-76938967D01*
X63642168Y-76623088D01*
X63518918Y-76325537D01*
X63339987Y-76057748D01*
X63112252Y-75830013D01*
X62844463Y-75651082D01*
X62546912Y-75527832D01*
X62397243Y-75498061D01*
X104285000Y-75498061D01*
X104285000Y-75701939D01*
X104324774Y-75901898D01*
X104402795Y-76090256D01*
X104516063Y-76259774D01*
X104660226Y-76403937D01*
X104829744Y-76517205D01*
X105018102Y-76595226D01*
X105218061Y-76635000D01*
X105421939Y-76635000D01*
X105621898Y-76595226D01*
X105810256Y-76517205D01*
X105979774Y-76403937D01*
X106123937Y-76259774D01*
X106237205Y-76090256D01*
X106315226Y-75901898D01*
X106355000Y-75701939D01*
X106355000Y-75498061D01*
X106315226Y-75298102D01*
X106237205Y-75109744D01*
X106123937Y-74940226D01*
X105979774Y-74796063D01*
X105810256Y-74682795D01*
X105621898Y-74604774D01*
X105421939Y-74565000D01*
X105218061Y-74565000D01*
X105018102Y-74604774D01*
X104829744Y-74682795D01*
X104660226Y-74796063D01*
X104516063Y-74940226D01*
X104402795Y-75109744D01*
X104324774Y-75298102D01*
X104285000Y-75498061D01*
X62397243Y-75498061D01*
X62231033Y-75465000D01*
X61908967Y-75465000D01*
X61593088Y-75527832D01*
X61295537Y-75651082D01*
X61027748Y-75830013D01*
X60800013Y-76057748D01*
X60621082Y-76325537D01*
X60497832Y-76623088D01*
X60435000Y-76938967D01*
X44737000Y-76938967D01*
X44737000Y-71858967D01*
X60435000Y-71858967D01*
X60435000Y-72181033D01*
X60497832Y-72496912D01*
X60621082Y-72794463D01*
X60800013Y-73062252D01*
X61027748Y-73289987D01*
X61295537Y-73468918D01*
X61593088Y-73592168D01*
X61908967Y-73655000D01*
X62231033Y-73655000D01*
X62546912Y-73592168D01*
X62844463Y-73468918D01*
X63112252Y-73289987D01*
X63339987Y-73062252D01*
X63518918Y-72794463D01*
X63642168Y-72496912D01*
X63705000Y-72181033D01*
X63705000Y-71858967D01*
X63642168Y-71543088D01*
X63518918Y-71245537D01*
X63339987Y-70977748D01*
X63112252Y-70750013D01*
X62844463Y-70571082D01*
X62546912Y-70447832D01*
X62231033Y-70385000D01*
X61908967Y-70385000D01*
X61593088Y-70447832D01*
X61295537Y-70571082D01*
X61027748Y-70750013D01*
X60800013Y-70977748D01*
X60621082Y-71245537D01*
X60497832Y-71543088D01*
X60435000Y-71858967D01*
X44737000Y-71858967D01*
X44737000Y-66938967D01*
X70685000Y-66938967D01*
X70685000Y-67261033D01*
X70747832Y-67576912D01*
X70871082Y-67874463D01*
X71050013Y-68142252D01*
X71277748Y-68369987D01*
X71545537Y-68548918D01*
X71843088Y-68672168D01*
X72158967Y-68735000D01*
X72481033Y-68735000D01*
X72796912Y-68672168D01*
X73094463Y-68548918D01*
X73362252Y-68369987D01*
X73589987Y-68142252D01*
X73768918Y-67874463D01*
X73892168Y-67576912D01*
X73955000Y-67261033D01*
X73955000Y-66938967D01*
X85925000Y-66938967D01*
X85925000Y-67261033D01*
X85987832Y-67576912D01*
X86111082Y-67874463D01*
X86290013Y-68142252D01*
X86517748Y-68369987D01*
X86785537Y-68548918D01*
X87083088Y-68672168D01*
X87398967Y-68735000D01*
X87721033Y-68735000D01*
X88036912Y-68672168D01*
X88334463Y-68548918D01*
X88602252Y-68369987D01*
X88829987Y-68142252D01*
X89008918Y-67874463D01*
X89132168Y-67576912D01*
X89195000Y-67261033D01*
X89195000Y-66938967D01*
X89132168Y-66623088D01*
X89008918Y-66325537D01*
X88829987Y-66057748D01*
X88602252Y-65830013D01*
X88479603Y-65748061D01*
X95785000Y-65748061D01*
X95785000Y-65951939D01*
X95824774Y-66151898D01*
X95902795Y-66340256D01*
X96016063Y-66509774D01*
X96160226Y-66653937D01*
X96329744Y-66767205D01*
X96518102Y-66845226D01*
X96718061Y-66885000D01*
X96921939Y-66885000D01*
X97121898Y-66845226D01*
X97310256Y-66767205D01*
X97479774Y-66653937D01*
X97623937Y-66509774D01*
X97737205Y-66340256D01*
X97815226Y-66151898D01*
X97855000Y-65951939D01*
X97855000Y-65748061D01*
X97815226Y-65548102D01*
X97737205Y-65359744D01*
X97623937Y-65190226D01*
X97479774Y-65046063D01*
X97310256Y-64932795D01*
X97121898Y-64854774D01*
X96921939Y-64815000D01*
X96718061Y-64815000D01*
X96518102Y-64854774D01*
X96329744Y-64932795D01*
X96160226Y-65046063D01*
X96016063Y-65190226D01*
X95902795Y-65359744D01*
X95824774Y-65548102D01*
X95785000Y-65748061D01*
X88479603Y-65748061D01*
X88334463Y-65651082D01*
X88036912Y-65527832D01*
X87721033Y-65465000D01*
X87398967Y-65465000D01*
X87083088Y-65527832D01*
X86785537Y-65651082D01*
X86517748Y-65830013D01*
X86290013Y-66057748D01*
X86111082Y-66325537D01*
X85987832Y-66623088D01*
X85925000Y-66938967D01*
X73955000Y-66938967D01*
X73892168Y-66623088D01*
X73768918Y-66325537D01*
X73589987Y-66057748D01*
X73362252Y-65830013D01*
X73094463Y-65651082D01*
X72796912Y-65527832D01*
X72481033Y-65465000D01*
X72158967Y-65465000D01*
X71843088Y-65527832D01*
X71545537Y-65651082D01*
X71277748Y-65830013D01*
X71050013Y-66057748D01*
X70871082Y-66325537D01*
X70747832Y-66623088D01*
X70685000Y-66938967D01*
X44737000Y-66938967D01*
X44737000Y-62883061D01*
X99900000Y-62883061D01*
X99900000Y-63086939D01*
X99939774Y-63286898D01*
X100017795Y-63475256D01*
X100131063Y-63644774D01*
X100275226Y-63788937D01*
X100444744Y-63902205D01*
X100633102Y-63980226D01*
X100833061Y-64020000D01*
X101036939Y-64020000D01*
X101236898Y-63980226D01*
X101425256Y-63902205D01*
X101594774Y-63788937D01*
X101738937Y-63644774D01*
X101852205Y-63475256D01*
X101930226Y-63286898D01*
X101970000Y-63086939D01*
X101970000Y-62883061D01*
X101930226Y-62683102D01*
X101852205Y-62494744D01*
X101738937Y-62325226D01*
X101594774Y-62181063D01*
X101425256Y-62067795D01*
X101236898Y-61989774D01*
X101036939Y-61950000D01*
X100833061Y-61950000D01*
X100633102Y-61989774D01*
X100444744Y-62067795D01*
X100275226Y-62181063D01*
X100131063Y-62325226D01*
X100017795Y-62494744D01*
X99939774Y-62683102D01*
X99900000Y-62883061D01*
X44737000Y-62883061D01*
X44737000Y-61248061D01*
X70535000Y-61248061D01*
X70535000Y-61451939D01*
X70574774Y-61651898D01*
X70652795Y-61840256D01*
X70766063Y-62009774D01*
X70910226Y-62153937D01*
X71079744Y-62267205D01*
X71268102Y-62345226D01*
X71468061Y-62385000D01*
X71671939Y-62385000D01*
X71871898Y-62345226D01*
X72060256Y-62267205D01*
X72229774Y-62153937D01*
X72373937Y-62009774D01*
X72487205Y-61840256D01*
X72525393Y-61748061D01*
X113535000Y-61748061D01*
X113535000Y-61951939D01*
X113574774Y-62151898D01*
X113652795Y-62340256D01*
X113766063Y-62509774D01*
X113910226Y-62653937D01*
X114079744Y-62767205D01*
X114268102Y-62845226D01*
X114468061Y-62885000D01*
X114671939Y-62885000D01*
X114871898Y-62845226D01*
X115060256Y-62767205D01*
X115229774Y-62653937D01*
X115373937Y-62509774D01*
X115487205Y-62340256D01*
X115565226Y-62151898D01*
X115605000Y-61951939D01*
X115605000Y-61748061D01*
X115565226Y-61548102D01*
X115487205Y-61359744D01*
X115373937Y-61190226D01*
X115229774Y-61046063D01*
X115060256Y-60932795D01*
X114871898Y-60854774D01*
X114671939Y-60815000D01*
X114468061Y-60815000D01*
X114268102Y-60854774D01*
X114079744Y-60932795D01*
X113910226Y-61046063D01*
X113766063Y-61190226D01*
X113652795Y-61359744D01*
X113574774Y-61548102D01*
X113535000Y-61748061D01*
X72525393Y-61748061D01*
X72565226Y-61651898D01*
X72605000Y-61451939D01*
X72605000Y-61248061D01*
X72565226Y-61048102D01*
X72487205Y-60859744D01*
X72373937Y-60690226D01*
X72229774Y-60546063D01*
X72060256Y-60432795D01*
X71871898Y-60354774D01*
X71671939Y-60315000D01*
X71468061Y-60315000D01*
X71268102Y-60354774D01*
X71079744Y-60432795D01*
X70910226Y-60546063D01*
X70766063Y-60690226D01*
X70652795Y-60859744D01*
X70574774Y-61048102D01*
X70535000Y-61248061D01*
X44737000Y-61248061D01*
X44737000Y-55956890D01*
X76478524Y-55956890D01*
X76480446Y-55969261D01*
X76580146Y-56243009D01*
X76731336Y-56492046D01*
X76928205Y-56706802D01*
X77163188Y-56879025D01*
X77427255Y-57002096D01*
X77710258Y-57071285D01*
X77943000Y-56927232D01*
X77943000Y-55727000D01*
X78197000Y-55727000D01*
X78197000Y-56927232D01*
X78429742Y-57071285D01*
X78712745Y-57002096D01*
X78976812Y-56879025D01*
X79211795Y-56706802D01*
X79408664Y-56492046D01*
X79559854Y-56243009D01*
X79659554Y-55969261D01*
X79661476Y-55956890D01*
X79540155Y-55727000D01*
X78197000Y-55727000D01*
X77943000Y-55727000D01*
X76599845Y-55727000D01*
X76478524Y-55956890D01*
X44737000Y-55956890D01*
X44737000Y-51748061D01*
X68785000Y-51748061D01*
X68785000Y-51951939D01*
X68824774Y-52151898D01*
X68902795Y-52340256D01*
X69016063Y-52509774D01*
X69160226Y-52653937D01*
X69329744Y-52767205D01*
X69518102Y-52845226D01*
X69718061Y-52885000D01*
X69921939Y-52885000D01*
X70121898Y-52845226D01*
X70310256Y-52767205D01*
X70479774Y-52653937D01*
X70623937Y-52509774D01*
X70737205Y-52340256D01*
X70815226Y-52151898D01*
X70855000Y-51951939D01*
X70855000Y-51748061D01*
X70815226Y-51548102D01*
X70794499Y-51498061D01*
X74535000Y-51498061D01*
X74535000Y-51701939D01*
X74574774Y-51901898D01*
X74652795Y-52090256D01*
X74766063Y-52259774D01*
X74910226Y-52403937D01*
X75079744Y-52517205D01*
X75268102Y-52595226D01*
X75292103Y-52600000D01*
X75268102Y-52604774D01*
X75079744Y-52682795D01*
X74910226Y-52796063D01*
X74766063Y-52940226D01*
X74652795Y-53109744D01*
X74574774Y-53298102D01*
X74535000Y-53498061D01*
X74535000Y-53701939D01*
X74574774Y-53901898D01*
X74652795Y-54090256D01*
X74766063Y-54259774D01*
X74910226Y-54403937D01*
X75079744Y-54517205D01*
X75268102Y-54595226D01*
X75468061Y-54635000D01*
X75671939Y-54635000D01*
X75871898Y-54595226D01*
X76060256Y-54517205D01*
X76229774Y-54403937D01*
X76373937Y-54259774D01*
X76487205Y-54090256D01*
X76504348Y-54048868D01*
X76581595Y-54193386D01*
X76692038Y-54327962D01*
X76826614Y-54438405D01*
X76928593Y-54492914D01*
X76928205Y-54493198D01*
X76731336Y-54707954D01*
X76580146Y-54956991D01*
X76480446Y-55230739D01*
X76478524Y-55243110D01*
X76599845Y-55473000D01*
X77943000Y-55473000D01*
X77943000Y-55453000D01*
X78197000Y-55453000D01*
X78197000Y-55473000D01*
X79540155Y-55473000D01*
X79661476Y-55243110D01*
X79659554Y-55230739D01*
X79559854Y-54956991D01*
X79433013Y-54748061D01*
X92035000Y-54748061D01*
X92035000Y-54951939D01*
X92074774Y-55151898D01*
X92152795Y-55340256D01*
X92266063Y-55509774D01*
X92410226Y-55653937D01*
X92579744Y-55767205D01*
X92768102Y-55845226D01*
X92968061Y-55885000D01*
X93171939Y-55885000D01*
X93371898Y-55845226D01*
X93560256Y-55767205D01*
X93729774Y-55653937D01*
X93873937Y-55509774D01*
X93987205Y-55340256D01*
X94065226Y-55151898D01*
X94105000Y-54951939D01*
X94105000Y-54748061D01*
X94065226Y-54548102D01*
X93987205Y-54359744D01*
X93873937Y-54190226D01*
X93729774Y-54046063D01*
X93560256Y-53932795D01*
X93371898Y-53854774D01*
X93171939Y-53815000D01*
X92968061Y-53815000D01*
X92768102Y-53854774D01*
X92579744Y-53932795D01*
X92410226Y-54046063D01*
X92266063Y-54190226D01*
X92152795Y-54359744D01*
X92074774Y-54548102D01*
X92035000Y-54748061D01*
X79433013Y-54748061D01*
X79408664Y-54707954D01*
X79211795Y-54493198D01*
X79211407Y-54492914D01*
X79313386Y-54438405D01*
X79447962Y-54327962D01*
X79558405Y-54193386D01*
X79640472Y-54039850D01*
X79691008Y-53873254D01*
X79708072Y-53700000D01*
X79708072Y-53248061D01*
X85535000Y-53248061D01*
X85535000Y-53451939D01*
X85574774Y-53651898D01*
X85652795Y-53840256D01*
X85766063Y-54009774D01*
X85910226Y-54153937D01*
X86079744Y-54267205D01*
X86268102Y-54345226D01*
X86468061Y-54385000D01*
X86671939Y-54385000D01*
X86871898Y-54345226D01*
X87060256Y-54267205D01*
X87229774Y-54153937D01*
X87373937Y-54009774D01*
X87487205Y-53840256D01*
X87565226Y-53651898D01*
X87605000Y-53451939D01*
X87605000Y-53248061D01*
X87565226Y-53048102D01*
X87487205Y-52859744D01*
X87373937Y-52690226D01*
X87229774Y-52546063D01*
X87060256Y-52432795D01*
X86871898Y-52354774D01*
X86671939Y-52315000D01*
X86468061Y-52315000D01*
X86268102Y-52354774D01*
X86079744Y-52432795D01*
X85910226Y-52546063D01*
X85766063Y-52690226D01*
X85652795Y-52859744D01*
X85574774Y-53048102D01*
X85535000Y-53248061D01*
X79708072Y-53248061D01*
X79708072Y-52500000D01*
X79691008Y-52326746D01*
X79686340Y-52311359D01*
X79768102Y-52345226D01*
X79968061Y-52385000D01*
X80171939Y-52385000D01*
X80371898Y-52345226D01*
X80560256Y-52267205D01*
X80729774Y-52153937D01*
X80873937Y-52009774D01*
X80987205Y-51840256D01*
X81065226Y-51651898D01*
X81105000Y-51451939D01*
X81105000Y-51248061D01*
X81065226Y-51048102D01*
X80987205Y-50859744D01*
X80873937Y-50690226D01*
X80729774Y-50546063D01*
X80560256Y-50432795D01*
X80371898Y-50354774D01*
X80171939Y-50315000D01*
X79968061Y-50315000D01*
X79768102Y-50354774D01*
X79579744Y-50432795D01*
X79410226Y-50546063D01*
X79266063Y-50690226D01*
X79152795Y-50859744D01*
X79074774Y-51048102D01*
X79035000Y-51248061D01*
X79035000Y-51451939D01*
X79074774Y-51651898D01*
X79075637Y-51653983D01*
X78993254Y-51628992D01*
X78820000Y-51611928D01*
X77320000Y-51611928D01*
X77146746Y-51628992D01*
X76980150Y-51679528D01*
X76826614Y-51761595D01*
X76692038Y-51872038D01*
X76581595Y-52006614D01*
X76499528Y-52160150D01*
X76448992Y-52326746D01*
X76431928Y-52500000D01*
X76431928Y-53027016D01*
X76373937Y-52940226D01*
X76229774Y-52796063D01*
X76060256Y-52682795D01*
X75871898Y-52604774D01*
X75847897Y-52600000D01*
X75871898Y-52595226D01*
X76060256Y-52517205D01*
X76229774Y-52403937D01*
X76373937Y-52259774D01*
X76487205Y-52090256D01*
X76565226Y-51901898D01*
X76605000Y-51701939D01*
X76605000Y-51498061D01*
X76565226Y-51298102D01*
X76487205Y-51109744D01*
X76373937Y-50940226D01*
X76229774Y-50796063D01*
X76060256Y-50682795D01*
X75871898Y-50604774D01*
X75671939Y-50565000D01*
X75468061Y-50565000D01*
X75268102Y-50604774D01*
X75079744Y-50682795D01*
X74910226Y-50796063D01*
X74766063Y-50940226D01*
X74652795Y-51109744D01*
X74574774Y-51298102D01*
X74535000Y-51498061D01*
X70794499Y-51498061D01*
X70737205Y-51359744D01*
X70623937Y-51190226D01*
X70479774Y-51046063D01*
X70310256Y-50932795D01*
X70121898Y-50854774D01*
X69921939Y-50815000D01*
X69718061Y-50815000D01*
X69518102Y-50854774D01*
X69329744Y-50932795D01*
X69160226Y-51046063D01*
X69016063Y-51190226D01*
X68902795Y-51359744D01*
X68824774Y-51548102D01*
X68785000Y-51748061D01*
X44737000Y-51748061D01*
X44737000Y-47929117D01*
X46335000Y-47929117D01*
X46335000Y-48270883D01*
X46401675Y-48606081D01*
X46532463Y-48921831D01*
X46722337Y-49205998D01*
X46964002Y-49447663D01*
X47248169Y-49637537D01*
X47563919Y-49768325D01*
X47899117Y-49835000D01*
X48240883Y-49835000D01*
X48576081Y-49768325D01*
X48891831Y-49637537D01*
X49175998Y-49447663D01*
X49417663Y-49205998D01*
X49607537Y-48921831D01*
X49738325Y-48606081D01*
X49805000Y-48270883D01*
X49805000Y-47929117D01*
X131335000Y-47929117D01*
X131335000Y-48270883D01*
X131401675Y-48606081D01*
X131532463Y-48921831D01*
X131722337Y-49205998D01*
X131964002Y-49447663D01*
X132248169Y-49637537D01*
X132563919Y-49768325D01*
X132899117Y-49835000D01*
X133240883Y-49835000D01*
X133576081Y-49768325D01*
X133891831Y-49637537D01*
X134175998Y-49447663D01*
X134417663Y-49205998D01*
X134607537Y-48921831D01*
X134738325Y-48606081D01*
X134805000Y-48270883D01*
X134805000Y-47929117D01*
X134738325Y-47593919D01*
X134607537Y-47278169D01*
X134417663Y-46994002D01*
X134175998Y-46752337D01*
X133891831Y-46562463D01*
X133576081Y-46431675D01*
X133240883Y-46365000D01*
X132899117Y-46365000D01*
X132563919Y-46431675D01*
X132248169Y-46562463D01*
X131964002Y-46752337D01*
X131722337Y-46994002D01*
X131532463Y-47278169D01*
X131401675Y-47593919D01*
X131335000Y-47929117D01*
X49805000Y-47929117D01*
X49738325Y-47593919D01*
X49607537Y-47278169D01*
X49417663Y-46994002D01*
X49175998Y-46752337D01*
X48891831Y-46562463D01*
X48576081Y-46431675D01*
X48240883Y-46365000D01*
X47899117Y-46365000D01*
X47563919Y-46431675D01*
X47248169Y-46562463D01*
X46964002Y-46752337D01*
X46722337Y-46994002D01*
X46532463Y-47278169D01*
X46401675Y-47593919D01*
X46335000Y-47929117D01*
X44737000Y-47929117D01*
X44737000Y-43767000D01*
X137193000Y-43767000D01*
X137193000Y-93044728D01*
%TA.AperFunction,Conductor*%
D17*
G36*
X137193000Y-93044728D02*
G01*
X44737000Y-94311248D01*
X44737000Y-88929117D01*
X46335000Y-88929117D01*
X46335000Y-89270883D01*
X46401675Y-89606081D01*
X46532463Y-89921831D01*
X46722337Y-90205998D01*
X46964002Y-90447663D01*
X47248169Y-90637537D01*
X47563919Y-90768325D01*
X47899117Y-90835000D01*
X48240883Y-90835000D01*
X48576081Y-90768325D01*
X48891831Y-90637537D01*
X49175998Y-90447663D01*
X49417663Y-90205998D01*
X49607537Y-89921831D01*
X49738325Y-89606081D01*
X49805000Y-89270883D01*
X49805000Y-88929117D01*
X131335000Y-88929117D01*
X131335000Y-89270883D01*
X131401675Y-89606081D01*
X131532463Y-89921831D01*
X131722337Y-90205998D01*
X131964002Y-90447663D01*
X132248169Y-90637537D01*
X132563919Y-90768325D01*
X132899117Y-90835000D01*
X133240883Y-90835000D01*
X133576081Y-90768325D01*
X133891831Y-90637537D01*
X134175998Y-90447663D01*
X134417663Y-90205998D01*
X134607537Y-89921831D01*
X134738325Y-89606081D01*
X134805000Y-89270883D01*
X134805000Y-88929117D01*
X134738325Y-88593919D01*
X134607537Y-88278169D01*
X134417663Y-87994002D01*
X134175998Y-87752337D01*
X133891831Y-87562463D01*
X133576081Y-87431675D01*
X133240883Y-87365000D01*
X132899117Y-87365000D01*
X132563919Y-87431675D01*
X132248169Y-87562463D01*
X131964002Y-87752337D01*
X131722337Y-87994002D01*
X131532463Y-88278169D01*
X131401675Y-88593919D01*
X131335000Y-88929117D01*
X49805000Y-88929117D01*
X49738325Y-88593919D01*
X49607537Y-88278169D01*
X49417663Y-87994002D01*
X49175998Y-87752337D01*
X48891831Y-87562463D01*
X48576081Y-87431675D01*
X48240883Y-87365000D01*
X47899117Y-87365000D01*
X47563919Y-87431675D01*
X47248169Y-87562463D01*
X46964002Y-87752337D01*
X46722337Y-87994002D01*
X46532463Y-88278169D01*
X46401675Y-88593919D01*
X46335000Y-88929117D01*
X44737000Y-88929117D01*
X44737000Y-86735001D01*
X55036927Y-86735001D01*
X55036927Y-87635001D01*
X55055913Y-87827764D01*
X55112140Y-88013120D01*
X55203447Y-88183944D01*
X55326327Y-88333673D01*
X55476056Y-88456553D01*
X55646880Y-88547860D01*
X55832236Y-88604087D01*
X56024999Y-88623073D01*
X56025001Y-88623073D01*
X56217764Y-88604087D01*
X56403120Y-88547860D01*
X56573944Y-88456553D01*
X56723673Y-88333673D01*
X56846553Y-88183944D01*
X56937860Y-88013120D01*
X56994087Y-87827764D01*
X57013073Y-87635001D01*
X57013073Y-86735001D01*
X63676927Y-86735001D01*
X63676927Y-87635001D01*
X63695913Y-87827764D01*
X63752140Y-88013120D01*
X63843447Y-88183944D01*
X63966327Y-88333673D01*
X64116056Y-88456553D01*
X64286880Y-88547860D01*
X64472236Y-88604087D01*
X64664999Y-88623073D01*
X64665001Y-88623073D01*
X64857764Y-88604087D01*
X65043120Y-88547860D01*
X65213944Y-88456553D01*
X65363673Y-88333673D01*
X65486553Y-88183944D01*
X65577860Y-88013120D01*
X65634087Y-87827764D01*
X65653073Y-87635001D01*
X65653073Y-86735001D01*
X65634087Y-86542238D01*
X65577860Y-86356882D01*
X65486553Y-86186058D01*
X65363673Y-86036329D01*
X65213944Y-85913449D01*
X65043120Y-85822142D01*
X64857764Y-85765915D01*
X64665001Y-85746929D01*
X64664999Y-85746929D01*
X64472236Y-85765915D01*
X64286880Y-85822142D01*
X64116056Y-85913449D01*
X63966327Y-86036329D01*
X63843447Y-86186058D01*
X63752140Y-86356882D01*
X63695913Y-86542238D01*
X63676927Y-86735001D01*
X57013073Y-86735001D01*
X56994087Y-86542238D01*
X56937860Y-86356882D01*
X56846553Y-86186058D01*
X56723673Y-86036329D01*
X56573944Y-85913449D01*
X56403120Y-85822142D01*
X56217764Y-85765915D01*
X56025001Y-85746929D01*
X56024999Y-85746929D01*
X55832236Y-85765915D01*
X55646880Y-85822142D01*
X55476056Y-85913449D01*
X55326327Y-86036329D01*
X55203447Y-86186058D01*
X55112140Y-86356882D01*
X55055913Y-86542238D01*
X55036927Y-86735001D01*
X44737000Y-86735001D01*
X44737000Y-82085001D01*
X54736927Y-82085001D01*
X54736927Y-83985001D01*
X54761677Y-84236291D01*
X54834976Y-84477925D01*
X54954006Y-84700615D01*
X55114195Y-84895805D01*
X55309385Y-85055994D01*
X55532075Y-85175024D01*
X55773709Y-85248323D01*
X56024999Y-85273073D01*
X56025001Y-85273073D01*
X56276291Y-85248323D01*
X56517925Y-85175024D01*
X56740615Y-85055994D01*
X56935805Y-84895805D01*
X57012056Y-84802893D01*
X57082686Y-84832149D01*
X57272986Y-84870002D01*
X57467014Y-84870002D01*
X57657314Y-84832149D01*
X57795000Y-84775118D01*
X57932686Y-84832149D01*
X58122986Y-84870002D01*
X58317014Y-84870002D01*
X58507314Y-84832149D01*
X58645000Y-84775118D01*
X58782686Y-84832149D01*
X58972986Y-84870002D01*
X59167014Y-84870002D01*
X59357314Y-84832149D01*
X59495000Y-84775118D01*
X59632686Y-84832149D01*
X59822986Y-84870002D01*
X60017014Y-84870002D01*
X60207314Y-84832149D01*
X60345000Y-84775118D01*
X60482686Y-84832149D01*
X60672986Y-84870002D01*
X60867014Y-84870002D01*
X61057314Y-84832149D01*
X61195000Y-84775118D01*
X61332686Y-84832149D01*
X61522986Y-84870002D01*
X61717014Y-84870002D01*
X61907314Y-84832149D01*
X62045000Y-84775118D01*
X62182686Y-84832149D01*
X62372986Y-84870002D01*
X62567014Y-84870002D01*
X62757314Y-84832149D01*
X62895000Y-84775118D01*
X63032686Y-84832149D01*
X63222986Y-84870002D01*
X63417014Y-84870002D01*
X63607314Y-84832149D01*
X63677944Y-84802893D01*
X63754195Y-84895805D01*
X63949385Y-85055994D01*
X64172075Y-85175024D01*
X64413709Y-85248323D01*
X64664999Y-85273073D01*
X64665001Y-85273073D01*
X64916291Y-85248323D01*
X65157925Y-85175024D01*
X65380615Y-85055994D01*
X65575805Y-84895805D01*
X65735994Y-84700615D01*
X65855024Y-84477925D01*
X65928323Y-84236291D01*
X65953073Y-83985001D01*
X65953073Y-82085001D01*
X65944511Y-81998061D01*
X117285000Y-81998061D01*
X117285000Y-82201939D01*
X117324774Y-82401898D01*
X117402795Y-82590256D01*
X117516063Y-82759774D01*
X117660226Y-82903937D01*
X117829744Y-83017205D01*
X118018102Y-83095226D01*
X118218061Y-83135000D01*
X118421939Y-83135000D01*
X118621898Y-83095226D01*
X118810256Y-83017205D01*
X118979774Y-82903937D01*
X119123937Y-82759774D01*
X119237205Y-82590256D01*
X119315226Y-82401898D01*
X119355000Y-82201939D01*
X119355000Y-81998061D01*
X119315226Y-81798102D01*
X119237205Y-81609744D01*
X119123937Y-81440226D01*
X118979774Y-81296063D01*
X118810256Y-81182795D01*
X118621898Y-81104774D01*
X118421939Y-81065000D01*
X118218061Y-81065000D01*
X118018102Y-81104774D01*
X117829744Y-81182795D01*
X117660226Y-81296063D01*
X117516063Y-81440226D01*
X117402795Y-81609744D01*
X117324774Y-81798102D01*
X117285000Y-81998061D01*
X65944511Y-81998061D01*
X65928323Y-81833711D01*
X65855024Y-81592077D01*
X65735994Y-81369387D01*
X65575805Y-81174197D01*
X65380615Y-81014008D01*
X65157925Y-80894978D01*
X64916291Y-80821679D01*
X64665001Y-80796929D01*
X64664999Y-80796929D01*
X64413709Y-80821679D01*
X64172075Y-80894978D01*
X63949385Y-81014008D01*
X63754195Y-81174197D01*
X63594006Y-81369387D01*
X63489852Y-81564247D01*
X63425656Y-81550891D01*
X63231636Y-81549188D01*
X63041011Y-81585369D01*
X62894349Y-81644616D01*
X62757314Y-81587854D01*
X62567014Y-81550001D01*
X62372986Y-81550001D01*
X62182686Y-81587854D01*
X62045000Y-81644885D01*
X61907314Y-81587854D01*
X61717014Y-81550001D01*
X61522986Y-81550001D01*
X61332686Y-81587854D01*
X61195000Y-81644885D01*
X61057314Y-81587854D01*
X60867014Y-81550001D01*
X60672986Y-81550001D01*
X60482686Y-81587854D01*
X60345000Y-81644885D01*
X60207314Y-81587854D01*
X60017014Y-81550001D01*
X59822986Y-81550001D01*
X59632686Y-81587854D01*
X59495000Y-81644885D01*
X59357314Y-81587854D01*
X59167014Y-81550001D01*
X58972986Y-81550001D01*
X58782686Y-81587854D01*
X58645000Y-81644885D01*
X58507314Y-81587854D01*
X58317014Y-81550001D01*
X58122986Y-81550001D01*
X57936486Y-81587098D01*
X57844482Y-81559189D01*
X57720000Y-81546929D01*
X57655750Y-81550001D01*
X57497000Y-81708751D01*
X57497000Y-81865001D01*
X57454901Y-81907100D01*
X57347104Y-82068429D01*
X57313073Y-82150587D01*
X57313073Y-82085001D01*
X57288323Y-81833711D01*
X57215024Y-81592077D01*
X57095994Y-81369387D01*
X56935805Y-81174197D01*
X56740615Y-81014008D01*
X56517925Y-80894978D01*
X56276291Y-80821679D01*
X56025001Y-80796929D01*
X56024999Y-80796929D01*
X55773709Y-80821679D01*
X55532075Y-80894978D01*
X55309385Y-81014008D01*
X55114195Y-81174197D01*
X54954006Y-81369387D01*
X54834976Y-81592077D01*
X54761677Y-81833711D01*
X54736927Y-82085001D01*
X44737000Y-82085001D01*
X44737000Y-76938967D01*
X60435000Y-76938967D01*
X60435000Y-77261033D01*
X60497832Y-77576912D01*
X60621082Y-77874463D01*
X60800013Y-78142252D01*
X61027748Y-78369987D01*
X61295537Y-78548918D01*
X61593088Y-78672168D01*
X61908967Y-78735000D01*
X62231033Y-78735000D01*
X62546912Y-78672168D01*
X62844463Y-78548918D01*
X63112252Y-78369987D01*
X63339987Y-78142252D01*
X63518918Y-77874463D01*
X63642168Y-77576912D01*
X63705000Y-77261033D01*
X63705000Y-76998061D01*
X80285000Y-76998061D01*
X80285000Y-77201939D01*
X80324774Y-77401898D01*
X80402795Y-77590256D01*
X80516063Y-77759774D01*
X80660226Y-77903937D01*
X80829744Y-78017205D01*
X81018102Y-78095226D01*
X81218061Y-78135000D01*
X81421939Y-78135000D01*
X81621898Y-78095226D01*
X81810256Y-78017205D01*
X81979774Y-77903937D01*
X82123937Y-77759774D01*
X82237205Y-77590256D01*
X82315226Y-77401898D01*
X82355000Y-77201939D01*
X82355000Y-76998061D01*
X82315226Y-76798102D01*
X82237205Y-76609744D01*
X82123937Y-76440226D01*
X81979774Y-76296063D01*
X81810256Y-76182795D01*
X81621898Y-76104774D01*
X81421939Y-76065000D01*
X81218061Y-76065000D01*
X81018102Y-76104774D01*
X80829744Y-76182795D01*
X80660226Y-76296063D01*
X80516063Y-76440226D01*
X80402795Y-76609744D01*
X80324774Y-76798102D01*
X80285000Y-76998061D01*
X63705000Y-76998061D01*
X63705000Y-76938967D01*
X63642168Y-76623088D01*
X63518918Y-76325537D01*
X63339987Y-76057748D01*
X63112252Y-75830013D01*
X62844463Y-75651082D01*
X62546912Y-75527832D01*
X62397243Y-75498061D01*
X104285000Y-75498061D01*
X104285000Y-75701939D01*
X104324774Y-75901898D01*
X104402795Y-76090256D01*
X104516063Y-76259774D01*
X104660226Y-76403937D01*
X104829744Y-76517205D01*
X105018102Y-76595226D01*
X105218061Y-76635000D01*
X105421939Y-76635000D01*
X105621898Y-76595226D01*
X105810256Y-76517205D01*
X105979774Y-76403937D01*
X106123937Y-76259774D01*
X106237205Y-76090256D01*
X106315226Y-75901898D01*
X106355000Y-75701939D01*
X106355000Y-75498061D01*
X106315226Y-75298102D01*
X106237205Y-75109744D01*
X106123937Y-74940226D01*
X105979774Y-74796063D01*
X105810256Y-74682795D01*
X105621898Y-74604774D01*
X105421939Y-74565000D01*
X105218061Y-74565000D01*
X105018102Y-74604774D01*
X104829744Y-74682795D01*
X104660226Y-74796063D01*
X104516063Y-74940226D01*
X104402795Y-75109744D01*
X104324774Y-75298102D01*
X104285000Y-75498061D01*
X62397243Y-75498061D01*
X62231033Y-75465000D01*
X61908967Y-75465000D01*
X61593088Y-75527832D01*
X61295537Y-75651082D01*
X61027748Y-75830013D01*
X60800013Y-76057748D01*
X60621082Y-76325537D01*
X60497832Y-76623088D01*
X60435000Y-76938967D01*
X44737000Y-76938967D01*
X44737000Y-71858967D01*
X60435000Y-71858967D01*
X60435000Y-72181033D01*
X60497832Y-72496912D01*
X60621082Y-72794463D01*
X60800013Y-73062252D01*
X61027748Y-73289987D01*
X61295537Y-73468918D01*
X61593088Y-73592168D01*
X61908967Y-73655000D01*
X62231033Y-73655000D01*
X62546912Y-73592168D01*
X62844463Y-73468918D01*
X63112252Y-73289987D01*
X63339987Y-73062252D01*
X63518918Y-72794463D01*
X63642168Y-72496912D01*
X63705000Y-72181033D01*
X63705000Y-71858967D01*
X63642168Y-71543088D01*
X63518918Y-71245537D01*
X63339987Y-70977748D01*
X63112252Y-70750013D01*
X62844463Y-70571082D01*
X62546912Y-70447832D01*
X62231033Y-70385000D01*
X61908967Y-70385000D01*
X61593088Y-70447832D01*
X61295537Y-70571082D01*
X61027748Y-70750013D01*
X60800013Y-70977748D01*
X60621082Y-71245537D01*
X60497832Y-71543088D01*
X60435000Y-71858967D01*
X44737000Y-71858967D01*
X44737000Y-66938967D01*
X70685000Y-66938967D01*
X70685000Y-67261033D01*
X70747832Y-67576912D01*
X70871082Y-67874463D01*
X71050013Y-68142252D01*
X71277748Y-68369987D01*
X71545537Y-68548918D01*
X71843088Y-68672168D01*
X72158967Y-68735000D01*
X72481033Y-68735000D01*
X72796912Y-68672168D01*
X73094463Y-68548918D01*
X73362252Y-68369987D01*
X73589987Y-68142252D01*
X73768918Y-67874463D01*
X73892168Y-67576912D01*
X73955000Y-67261033D01*
X73955000Y-66938967D01*
X85925000Y-66938967D01*
X85925000Y-67261033D01*
X85987832Y-67576912D01*
X86111082Y-67874463D01*
X86290013Y-68142252D01*
X86517748Y-68369987D01*
X86785537Y-68548918D01*
X87083088Y-68672168D01*
X87398967Y-68735000D01*
X87721033Y-68735000D01*
X88036912Y-68672168D01*
X88334463Y-68548918D01*
X88602252Y-68369987D01*
X88829987Y-68142252D01*
X89008918Y-67874463D01*
X89132168Y-67576912D01*
X89195000Y-67261033D01*
X89195000Y-66938967D01*
X89132168Y-66623088D01*
X89008918Y-66325537D01*
X88829987Y-66057748D01*
X88602252Y-65830013D01*
X88479603Y-65748061D01*
X95785000Y-65748061D01*
X95785000Y-65951939D01*
X95824774Y-66151898D01*
X95902795Y-66340256D01*
X96016063Y-66509774D01*
X96160226Y-66653937D01*
X96329744Y-66767205D01*
X96518102Y-66845226D01*
X96718061Y-66885000D01*
X96921939Y-66885000D01*
X97121898Y-66845226D01*
X97310256Y-66767205D01*
X97479774Y-66653937D01*
X97623937Y-66509774D01*
X97737205Y-66340256D01*
X97815226Y-66151898D01*
X97855000Y-65951939D01*
X97855000Y-65748061D01*
X97815226Y-65548102D01*
X97737205Y-65359744D01*
X97623937Y-65190226D01*
X97479774Y-65046063D01*
X97310256Y-64932795D01*
X97121898Y-64854774D01*
X96921939Y-64815000D01*
X96718061Y-64815000D01*
X96518102Y-64854774D01*
X96329744Y-64932795D01*
X96160226Y-65046063D01*
X96016063Y-65190226D01*
X95902795Y-65359744D01*
X95824774Y-65548102D01*
X95785000Y-65748061D01*
X88479603Y-65748061D01*
X88334463Y-65651082D01*
X88036912Y-65527832D01*
X87721033Y-65465000D01*
X87398967Y-65465000D01*
X87083088Y-65527832D01*
X86785537Y-65651082D01*
X86517748Y-65830013D01*
X86290013Y-66057748D01*
X86111082Y-66325537D01*
X85987832Y-66623088D01*
X85925000Y-66938967D01*
X73955000Y-66938967D01*
X73892168Y-66623088D01*
X73768918Y-66325537D01*
X73589987Y-66057748D01*
X73362252Y-65830013D01*
X73094463Y-65651082D01*
X72796912Y-65527832D01*
X72481033Y-65465000D01*
X72158967Y-65465000D01*
X71843088Y-65527832D01*
X71545537Y-65651082D01*
X71277748Y-65830013D01*
X71050013Y-66057748D01*
X70871082Y-66325537D01*
X70747832Y-66623088D01*
X70685000Y-66938967D01*
X44737000Y-66938967D01*
X44737000Y-62883061D01*
X99900000Y-62883061D01*
X99900000Y-63086939D01*
X99939774Y-63286898D01*
X100017795Y-63475256D01*
X100131063Y-63644774D01*
X100275226Y-63788937D01*
X100444744Y-63902205D01*
X100633102Y-63980226D01*
X100833061Y-64020000D01*
X101036939Y-64020000D01*
X101236898Y-63980226D01*
X101425256Y-63902205D01*
X101594774Y-63788937D01*
X101738937Y-63644774D01*
X101852205Y-63475256D01*
X101930226Y-63286898D01*
X101970000Y-63086939D01*
X101970000Y-62883061D01*
X101930226Y-62683102D01*
X101852205Y-62494744D01*
X101738937Y-62325226D01*
X101594774Y-62181063D01*
X101425256Y-62067795D01*
X101236898Y-61989774D01*
X101036939Y-61950000D01*
X100833061Y-61950000D01*
X100633102Y-61989774D01*
X100444744Y-62067795D01*
X100275226Y-62181063D01*
X100131063Y-62325226D01*
X100017795Y-62494744D01*
X99939774Y-62683102D01*
X99900000Y-62883061D01*
X44737000Y-62883061D01*
X44737000Y-61248061D01*
X70535000Y-61248061D01*
X70535000Y-61451939D01*
X70574774Y-61651898D01*
X70652795Y-61840256D01*
X70766063Y-62009774D01*
X70910226Y-62153937D01*
X71079744Y-62267205D01*
X71268102Y-62345226D01*
X71468061Y-62385000D01*
X71671939Y-62385000D01*
X71871898Y-62345226D01*
X72060256Y-62267205D01*
X72229774Y-62153937D01*
X72373937Y-62009774D01*
X72487205Y-61840256D01*
X72525393Y-61748061D01*
X113535000Y-61748061D01*
X113535000Y-61951939D01*
X113574774Y-62151898D01*
X113652795Y-62340256D01*
X113766063Y-62509774D01*
X113910226Y-62653937D01*
X114079744Y-62767205D01*
X114268102Y-62845226D01*
X114468061Y-62885000D01*
X114671939Y-62885000D01*
X114871898Y-62845226D01*
X115060256Y-62767205D01*
X115229774Y-62653937D01*
X115373937Y-62509774D01*
X115487205Y-62340256D01*
X115565226Y-62151898D01*
X115605000Y-61951939D01*
X115605000Y-61748061D01*
X115565226Y-61548102D01*
X115487205Y-61359744D01*
X115373937Y-61190226D01*
X115229774Y-61046063D01*
X115060256Y-60932795D01*
X114871898Y-60854774D01*
X114671939Y-60815000D01*
X114468061Y-60815000D01*
X114268102Y-60854774D01*
X114079744Y-60932795D01*
X113910226Y-61046063D01*
X113766063Y-61190226D01*
X113652795Y-61359744D01*
X113574774Y-61548102D01*
X113535000Y-61748061D01*
X72525393Y-61748061D01*
X72565226Y-61651898D01*
X72605000Y-61451939D01*
X72605000Y-61248061D01*
X72565226Y-61048102D01*
X72487205Y-60859744D01*
X72373937Y-60690226D01*
X72229774Y-60546063D01*
X72060256Y-60432795D01*
X71871898Y-60354774D01*
X71671939Y-60315000D01*
X71468061Y-60315000D01*
X71268102Y-60354774D01*
X71079744Y-60432795D01*
X70910226Y-60546063D01*
X70766063Y-60690226D01*
X70652795Y-60859744D01*
X70574774Y-61048102D01*
X70535000Y-61248061D01*
X44737000Y-61248061D01*
X44737000Y-55956890D01*
X76478524Y-55956890D01*
X76480446Y-55969261D01*
X76580146Y-56243009D01*
X76731336Y-56492046D01*
X76928205Y-56706802D01*
X77163188Y-56879025D01*
X77427255Y-57002096D01*
X77710258Y-57071285D01*
X77943000Y-56927232D01*
X77943000Y-55727000D01*
X78197000Y-55727000D01*
X78197000Y-56927232D01*
X78429742Y-57071285D01*
X78712745Y-57002096D01*
X78976812Y-56879025D01*
X79211795Y-56706802D01*
X79408664Y-56492046D01*
X79559854Y-56243009D01*
X79659554Y-55969261D01*
X79661476Y-55956890D01*
X79540155Y-55727000D01*
X78197000Y-55727000D01*
X77943000Y-55727000D01*
X76599845Y-55727000D01*
X76478524Y-55956890D01*
X44737000Y-55956890D01*
X44737000Y-51748061D01*
X68785000Y-51748061D01*
X68785000Y-51951939D01*
X68824774Y-52151898D01*
X68902795Y-52340256D01*
X69016063Y-52509774D01*
X69160226Y-52653937D01*
X69329744Y-52767205D01*
X69518102Y-52845226D01*
X69718061Y-52885000D01*
X69921939Y-52885000D01*
X70121898Y-52845226D01*
X70310256Y-52767205D01*
X70479774Y-52653937D01*
X70623937Y-52509774D01*
X70737205Y-52340256D01*
X70815226Y-52151898D01*
X70855000Y-51951939D01*
X70855000Y-51748061D01*
X70815226Y-51548102D01*
X70794499Y-51498061D01*
X74535000Y-51498061D01*
X74535000Y-51701939D01*
X74574774Y-51901898D01*
X74652795Y-52090256D01*
X74766063Y-52259774D01*
X74910226Y-52403937D01*
X75079744Y-52517205D01*
X75268102Y-52595226D01*
X75292103Y-52600000D01*
X75268102Y-52604774D01*
X75079744Y-52682795D01*
X74910226Y-52796063D01*
X74766063Y-52940226D01*
X74652795Y-53109744D01*
X74574774Y-53298102D01*
X74535000Y-53498061D01*
X74535000Y-53701939D01*
X74574774Y-53901898D01*
X74652795Y-54090256D01*
X74766063Y-54259774D01*
X74910226Y-54403937D01*
X75079744Y-54517205D01*
X75268102Y-54595226D01*
X75468061Y-54635000D01*
X75671939Y-54635000D01*
X75871898Y-54595226D01*
X76060256Y-54517205D01*
X76229774Y-54403937D01*
X76373937Y-54259774D01*
X76487205Y-54090256D01*
X76504348Y-54048868D01*
X76581595Y-54193386D01*
X76692038Y-54327962D01*
X76826614Y-54438405D01*
X76928593Y-54492914D01*
X76928205Y-54493198D01*
X76731336Y-54707954D01*
X76580146Y-54956991D01*
X76480446Y-55230739D01*
X76478524Y-55243110D01*
X76599845Y-55473000D01*
X77943000Y-55473000D01*
X77943000Y-55453000D01*
X78197000Y-55453000D01*
X78197000Y-55473000D01*
X79540155Y-55473000D01*
X79661476Y-55243110D01*
X79659554Y-55230739D01*
X79559854Y-54956991D01*
X79433013Y-54748061D01*
X92035000Y-54748061D01*
X92035000Y-54951939D01*
X92074774Y-55151898D01*
X92152795Y-55340256D01*
X92266063Y-55509774D01*
X92410226Y-55653937D01*
X92579744Y-55767205D01*
X92768102Y-55845226D01*
X92968061Y-55885000D01*
X93171939Y-55885000D01*
X93371898Y-55845226D01*
X93560256Y-55767205D01*
X93729774Y-55653937D01*
X93873937Y-55509774D01*
X93987205Y-55340256D01*
X94065226Y-55151898D01*
X94105000Y-54951939D01*
X94105000Y-54748061D01*
X94065226Y-54548102D01*
X93987205Y-54359744D01*
X93873937Y-54190226D01*
X93729774Y-54046063D01*
X93560256Y-53932795D01*
X93371898Y-53854774D01*
X93171939Y-53815000D01*
X92968061Y-53815000D01*
X92768102Y-53854774D01*
X92579744Y-53932795D01*
X92410226Y-54046063D01*
X92266063Y-54190226D01*
X92152795Y-54359744D01*
X92074774Y-54548102D01*
X92035000Y-54748061D01*
X79433013Y-54748061D01*
X79408664Y-54707954D01*
X79211795Y-54493198D01*
X79211407Y-54492914D01*
X79313386Y-54438405D01*
X79447962Y-54327962D01*
X79558405Y-54193386D01*
X79640472Y-54039850D01*
X79691008Y-53873254D01*
X79708072Y-53700000D01*
X79708072Y-53248061D01*
X85535000Y-53248061D01*
X85535000Y-53451939D01*
X85574774Y-53651898D01*
X85652795Y-53840256D01*
X85766063Y-54009774D01*
X85910226Y-54153937D01*
X86079744Y-54267205D01*
X86268102Y-54345226D01*
X86468061Y-54385000D01*
X86671939Y-54385000D01*
X86871898Y-54345226D01*
X87060256Y-54267205D01*
X87229774Y-54153937D01*
X87373937Y-54009774D01*
X87487205Y-53840256D01*
X87565226Y-53651898D01*
X87605000Y-53451939D01*
X87605000Y-53248061D01*
X87565226Y-53048102D01*
X87487205Y-52859744D01*
X87373937Y-52690226D01*
X87229774Y-52546063D01*
X87060256Y-52432795D01*
X86871898Y-52354774D01*
X86671939Y-52315000D01*
X86468061Y-52315000D01*
X86268102Y-52354774D01*
X86079744Y-52432795D01*
X85910226Y-52546063D01*
X85766063Y-52690226D01*
X85652795Y-52859744D01*
X85574774Y-53048102D01*
X85535000Y-53248061D01*
X79708072Y-53248061D01*
X79708072Y-52500000D01*
X79691008Y-52326746D01*
X79686340Y-52311359D01*
X79768102Y-52345226D01*
X79968061Y-52385000D01*
X80171939Y-52385000D01*
X80371898Y-52345226D01*
X80560256Y-52267205D01*
X80729774Y-52153937D01*
X80873937Y-52009774D01*
X80987205Y-51840256D01*
X81065226Y-51651898D01*
X81105000Y-51451939D01*
X81105000Y-51248061D01*
X81065226Y-51048102D01*
X80987205Y-50859744D01*
X80873937Y-50690226D01*
X80729774Y-50546063D01*
X80560256Y-50432795D01*
X80371898Y-50354774D01*
X80171939Y-50315000D01*
X79968061Y-50315000D01*
X79768102Y-50354774D01*
X79579744Y-50432795D01*
X79410226Y-50546063D01*
X79266063Y-50690226D01*
X79152795Y-50859744D01*
X79074774Y-51048102D01*
X79035000Y-51248061D01*
X79035000Y-51451939D01*
X79074774Y-51651898D01*
X79075637Y-51653983D01*
X78993254Y-51628992D01*
X78820000Y-51611928D01*
X77320000Y-51611928D01*
X77146746Y-51628992D01*
X76980150Y-51679528D01*
X76826614Y-51761595D01*
X76692038Y-51872038D01*
X76581595Y-52006614D01*
X76499528Y-52160150D01*
X76448992Y-52326746D01*
X76431928Y-52500000D01*
X76431928Y-53027016D01*
X76373937Y-52940226D01*
X76229774Y-52796063D01*
X76060256Y-52682795D01*
X75871898Y-52604774D01*
X75847897Y-52600000D01*
X75871898Y-52595226D01*
X76060256Y-52517205D01*
X76229774Y-52403937D01*
X76373937Y-52259774D01*
X76487205Y-52090256D01*
X76565226Y-51901898D01*
X76605000Y-51701939D01*
X76605000Y-51498061D01*
X76565226Y-51298102D01*
X76487205Y-51109744D01*
X76373937Y-50940226D01*
X76229774Y-50796063D01*
X76060256Y-50682795D01*
X75871898Y-50604774D01*
X75671939Y-50565000D01*
X75468061Y-50565000D01*
X75268102Y-50604774D01*
X75079744Y-50682795D01*
X74910226Y-50796063D01*
X74766063Y-50940226D01*
X74652795Y-51109744D01*
X74574774Y-51298102D01*
X74535000Y-51498061D01*
X70794499Y-51498061D01*
X70737205Y-51359744D01*
X70623937Y-51190226D01*
X70479774Y-51046063D01*
X70310256Y-50932795D01*
X70121898Y-50854774D01*
X69921939Y-50815000D01*
X69718061Y-50815000D01*
X69518102Y-50854774D01*
X69329744Y-50932795D01*
X69160226Y-51046063D01*
X69016063Y-51190226D01*
X68902795Y-51359744D01*
X68824774Y-51548102D01*
X68785000Y-51748061D01*
X44737000Y-51748061D01*
X44737000Y-47929117D01*
X46335000Y-47929117D01*
X46335000Y-48270883D01*
X46401675Y-48606081D01*
X46532463Y-48921831D01*
X46722337Y-49205998D01*
X46964002Y-49447663D01*
X47248169Y-49637537D01*
X47563919Y-49768325D01*
X47899117Y-49835000D01*
X48240883Y-49835000D01*
X48576081Y-49768325D01*
X48891831Y-49637537D01*
X49175998Y-49447663D01*
X49417663Y-49205998D01*
X49607537Y-48921831D01*
X49738325Y-48606081D01*
X49805000Y-48270883D01*
X49805000Y-47929117D01*
X131335000Y-47929117D01*
X131335000Y-48270883D01*
X131401675Y-48606081D01*
X131532463Y-48921831D01*
X131722337Y-49205998D01*
X131964002Y-49447663D01*
X132248169Y-49637537D01*
X132563919Y-49768325D01*
X132899117Y-49835000D01*
X133240883Y-49835000D01*
X133576081Y-49768325D01*
X133891831Y-49637537D01*
X134175998Y-49447663D01*
X134417663Y-49205998D01*
X134607537Y-48921831D01*
X134738325Y-48606081D01*
X134805000Y-48270883D01*
X134805000Y-47929117D01*
X134738325Y-47593919D01*
X134607537Y-47278169D01*
X134417663Y-46994002D01*
X134175998Y-46752337D01*
X133891831Y-46562463D01*
X133576081Y-46431675D01*
X133240883Y-46365000D01*
X132899117Y-46365000D01*
X132563919Y-46431675D01*
X132248169Y-46562463D01*
X131964002Y-46752337D01*
X131722337Y-46994002D01*
X131532463Y-47278169D01*
X131401675Y-47593919D01*
X131335000Y-47929117D01*
X49805000Y-47929117D01*
X49738325Y-47593919D01*
X49607537Y-47278169D01*
X49417663Y-46994002D01*
X49175998Y-46752337D01*
X48891831Y-46562463D01*
X48576081Y-46431675D01*
X48240883Y-46365000D01*
X47899117Y-46365000D01*
X47563919Y-46431675D01*
X47248169Y-46562463D01*
X46964002Y-46752337D01*
X46722337Y-46994002D01*
X46532463Y-47278169D01*
X46401675Y-47593919D01*
X46335000Y-47929117D01*
X44737000Y-47929117D01*
X44737000Y-43767000D01*
X137193000Y-43767000D01*
X137193000Y-93044728D01*
G37*
%TD.AperFunction*%
%TD*%
M02*
