%TF.GenerationSoftware,KiCad,Pcbnew,(5.1.10)-1*%
%TF.CreationDate,2022-10-02T14:19:25-06:00*%
%TF.ProjectId,PowerSupply,506f7765-7253-4757-9070-6c792e6b6963,rev?*%
%TF.SameCoordinates,Original*%
%TF.FileFunction,Legend,Top*%
%TF.FilePolarity,Positive*%
%FSLAX46Y46*%
G04 Gerber Fmt 4.6, Leading zero omitted, Abs format (unit mm)*
G04 Created by KiCad (PCBNEW (5.1.10)-1) date 2022-10-02 14:19:25*
%MOMM*%
%LPD*%
G01*
G04 APERTURE LIST*
%ADD10C,0.150000*%
%ADD11C,0.120000*%
%ADD12C,0.250000*%
%ADD13C,0.152400*%
%ADD14C,0.100000*%
%ADD15C,0.127000*%
%ADD16C,0.200000*%
%ADD17C,0.381000*%
G04 APERTURE END LIST*
D10*
X62782142Y-56315000D02*
X62746428Y-56279285D01*
X62710714Y-56172142D01*
X62710714Y-56100714D01*
X62746428Y-55993571D01*
X62817857Y-55922142D01*
X62889285Y-55886428D01*
X63032142Y-55850714D01*
X63139285Y-55850714D01*
X63282142Y-55886428D01*
X63353571Y-55922142D01*
X63425000Y-55993571D01*
X63460714Y-56100714D01*
X63460714Y-56172142D01*
X63425000Y-56279285D01*
X63389285Y-56315000D01*
X62925000Y-56600714D02*
X62925000Y-56957857D01*
X62710714Y-56529285D02*
X63460714Y-56779285D01*
X62710714Y-57029285D01*
X63460714Y-57172142D02*
X63460714Y-57600714D01*
X62710714Y-57386428D02*
X63460714Y-57386428D01*
X62710714Y-57850714D02*
X63460714Y-57850714D01*
X63103571Y-57850714D02*
X63103571Y-58279285D01*
X62710714Y-58279285D02*
X63460714Y-58279285D01*
X63460714Y-58779285D02*
X63460714Y-58922142D01*
X63425000Y-58993571D01*
X63353571Y-59065000D01*
X63210714Y-59100714D01*
X62960714Y-59100714D01*
X62817857Y-59065000D01*
X62746428Y-58993571D01*
X62710714Y-58922142D01*
X62710714Y-58779285D01*
X62746428Y-58707857D01*
X62817857Y-58636428D01*
X62960714Y-58600714D01*
X63210714Y-58600714D01*
X63353571Y-58636428D01*
X63425000Y-58707857D01*
X63460714Y-58779285D01*
X62710714Y-59422142D02*
X63460714Y-59422142D01*
X63460714Y-59600714D01*
X63425000Y-59707857D01*
X63353571Y-59779285D01*
X63282142Y-59815000D01*
X63139285Y-59850714D01*
X63032142Y-59850714D01*
X62889285Y-59815000D01*
X62817857Y-59779285D01*
X62746428Y-59707857D01*
X62710714Y-59600714D01*
X62710714Y-59422142D01*
X63103571Y-60172142D02*
X63103571Y-60422142D01*
X62710714Y-60529285D02*
X62710714Y-60172142D01*
X63460714Y-60172142D01*
X63460714Y-60529285D01*
D11*
X84044558Y-79400000D02*
G75*
G03*
X84044558Y-79400000I-254558J0D01*
G01*
%TO.C,J104*%
X120515000Y-84040000D02*
X120515000Y-83160000D01*
X120515000Y-86040000D02*
X120515000Y-85160000D01*
X120515000Y-88040000D02*
X120515000Y-87160000D01*
X119125000Y-83040000D02*
X119125000Y-82040000D01*
X119125000Y-85040000D02*
X119125000Y-84160000D01*
X119125000Y-87040000D02*
X119125000Y-86160000D01*
X119125000Y-89160000D02*
X119125000Y-88160000D01*
X119125000Y-82040000D02*
X119125000Y-82040000D01*
X120515000Y-89160000D02*
X120515000Y-89160000D01*
X120515000Y-89160000D02*
X121510000Y-89160000D01*
X120515000Y-82040000D02*
X119125000Y-82040000D01*
X120515000Y-89160000D02*
X119125000Y-89160000D01*
%TO.C,J103*%
X108510000Y-54530000D02*
X107510000Y-54530000D01*
X110510000Y-54530000D02*
X109630000Y-54530000D01*
X109510000Y-55920000D02*
X108630000Y-55920000D01*
X111630000Y-55920000D02*
X110630000Y-55920000D01*
X107510000Y-55920000D02*
X107510000Y-55920000D01*
X111630000Y-54530000D02*
X111630000Y-54530000D01*
X111630000Y-54530000D02*
X111630000Y-53535000D01*
X107510000Y-54530000D02*
X107510000Y-55920000D01*
X111630000Y-54530000D02*
X111630000Y-55920000D01*
%TO.C,C301*%
X62820000Y-66910000D02*
X62820000Y-66410000D01*
X63070000Y-66660000D02*
X62570000Y-66660000D01*
X62330000Y-63904437D02*
X61265563Y-62840000D01*
X62330000Y-66295563D02*
X61265563Y-67360000D01*
X62330000Y-66295563D02*
X62330000Y-66160000D01*
X62330000Y-63904437D02*
X62330000Y-64040000D01*
X61265563Y-62840000D02*
X57810000Y-62840000D01*
X61265563Y-67360000D02*
X57810000Y-67360000D01*
X57810000Y-67360000D02*
X57810000Y-66160000D01*
X57810000Y-62840000D02*
X57810000Y-64040000D01*
%TO.C,e*%
X95570000Y-76040000D02*
X93770000Y-76040000D01*
X93770000Y-79260000D02*
X96220000Y-79260000D01*
D10*
%TO.C,U301*%
X68545000Y-56649999D02*
X67595000Y-56649999D01*
X68545000Y-53549999D02*
X67595000Y-53549999D01*
D12*
X70770000Y-56074999D02*
G75*
G03*
X70770000Y-56074999I-125000J0D01*
G01*
D13*
%TO.C,U203*%
X104059200Y-63971600D02*
X104059200Y-61228400D01*
X99080800Y-61228400D02*
X99080800Y-62295200D01*
X99080800Y-62295200D02*
X99080800Y-62904800D01*
X99080800Y-62904800D02*
X99080800Y-63971600D01*
D14*
X99080800Y-62295200D02*
G75*
G02*
X99080800Y-62904800I0J-304800D01*
G01*
D13*
%TO.C,e*%
X111191600Y-76610800D02*
X108448400Y-76610800D01*
X108448400Y-81589200D02*
X109515200Y-81589200D01*
X109515200Y-81589200D02*
X110124800Y-81589200D01*
X110124800Y-81589200D02*
X111191600Y-81589200D01*
X109515200Y-81589200D02*
G75*
G02*
X110124800Y-81589200I304800J0D01*
G01*
D15*
%TO.C,U201*%
X78440000Y-59280000D02*
X80200000Y-59280000D01*
X78440000Y-62420000D02*
X80200000Y-62420000D01*
D16*
X76920000Y-59850000D02*
G75*
G03*
X76920000Y-59850000I-100000J0D01*
G01*
D11*
%TO.C,R306*%
X98047064Y-72585000D02*
X97592936Y-72585000D01*
X98047064Y-71115000D02*
X97592936Y-71115000D01*
%TO.C,R305*%
X104055000Y-71210436D02*
X104055000Y-71664564D01*
X102585000Y-71210436D02*
X102585000Y-71664564D01*
%TO.C,R304*%
X67805000Y-58872936D02*
X67805000Y-59327064D01*
X66335000Y-58872936D02*
X66335000Y-59327064D01*
%TO.C,R303*%
X83335000Y-75077064D02*
X83335000Y-74622936D01*
X84805000Y-75077064D02*
X84805000Y-74622936D01*
%TO.C,R302*%
X66842936Y-62365000D02*
X67297064Y-62365000D01*
X66842936Y-63835000D02*
X67297064Y-63835000D01*
%TO.C,R301*%
X78342936Y-75365000D02*
X78797064Y-75365000D01*
X78342936Y-76835000D02*
X78797064Y-76835000D01*
%TO.C,R211*%
X111505436Y-60365000D02*
X111959564Y-60365000D01*
X111505436Y-61835000D02*
X111959564Y-61835000D01*
%TO.C,R210*%
X94459564Y-58085000D02*
X94005436Y-58085000D01*
X94459564Y-56615000D02*
X94005436Y-56615000D01*
%TO.C,R209*%
X111430436Y-62865000D02*
X111884564Y-62865000D01*
X111430436Y-64335000D02*
X111884564Y-64335000D01*
%TO.C,R208*%
X89555000Y-55285436D02*
X89555000Y-55739564D01*
X88085000Y-55285436D02*
X88085000Y-55739564D01*
%TO.C,R207*%
X90335000Y-55827064D02*
X90335000Y-55372936D01*
X91805000Y-55827064D02*
X91805000Y-55372936D01*
%TO.C,R206*%
X105842936Y-73365000D02*
X106297064Y-73365000D01*
X105842936Y-74835000D02*
X106297064Y-74835000D01*
%TO.C,R205*%
X105842936Y-71115000D02*
X106297064Y-71115000D01*
X105842936Y-72585000D02*
X106297064Y-72585000D01*
%TO.C,R204*%
X116092936Y-77865000D02*
X116547064Y-77865000D01*
X116092936Y-79335000D02*
X116547064Y-79335000D01*
%TO.C,R203*%
X109055000Y-84460436D02*
X109055000Y-84914564D01*
X107585000Y-84460436D02*
X107585000Y-84914564D01*
%TO.C,R202*%
X104709564Y-88335000D02*
X104255436Y-88335000D01*
X104709564Y-86865000D02*
X104255436Y-86865000D01*
%TO.C,e*%
X104430436Y-82365000D02*
X104884564Y-82365000D01*
X104430436Y-83835000D02*
X104884564Y-83835000D01*
%TO.C,Q301*%
X78010000Y-82100000D02*
X78010000Y-84050000D01*
X78010000Y-82100000D02*
X78010000Y-80150000D01*
X83130000Y-82100000D02*
X83130000Y-84050000D01*
X83130000Y-82100000D02*
X83130000Y-78650000D01*
%TO.C,L301*%
X94407221Y-79840000D02*
X94732779Y-79840000D01*
X94407221Y-80860000D02*
X94732779Y-80860000D01*
%TO.C,L201*%
X72820000Y-65860000D02*
X72820000Y-64730000D01*
X72820000Y-64730000D02*
X87060000Y-64730000D01*
X87060000Y-64730000D02*
X87060000Y-65860000D01*
X72820000Y-68340000D02*
X72820000Y-69470000D01*
X72820000Y-69470000D02*
X87060000Y-69470000D01*
X87060000Y-69470000D02*
X87060000Y-68340000D01*
%TO.C,J302*%
X79780000Y-50490000D02*
X75760000Y-50490000D01*
X75760000Y-50490000D02*
X75760000Y-58210000D01*
X75760000Y-58210000D02*
X79780000Y-58210000D01*
X79780000Y-58210000D02*
X79780000Y-50490000D01*
X78070000Y-50490000D02*
X78070000Y-50990000D01*
X78070000Y-50990000D02*
X79280000Y-50990000D01*
X79280000Y-50990000D02*
X79280000Y-57710000D01*
X79280000Y-57710000D02*
X78070000Y-57710000D01*
X78070000Y-57710000D02*
X78070000Y-58210000D01*
X77260000Y-50490000D02*
X77260000Y-51490000D01*
X77260000Y-51490000D02*
X75760000Y-51490000D01*
X77260000Y-58210000D02*
X77260000Y-57210000D01*
X77260000Y-57210000D02*
X75760000Y-57210000D01*
X77960000Y-50190000D02*
X75460000Y-50190000D01*
X75460000Y-50190000D02*
X75460000Y-52690000D01*
D10*
%TO.C,e*%
X57050000Y-81565000D02*
X63640000Y-81565000D01*
X65215000Y-85560001D02*
X65215000Y-85010001D01*
X55475000Y-85560001D02*
X55475000Y-85010001D01*
D12*
X57495000Y-80885001D02*
G75*
G03*
X57495000Y-80885001I-125000J0D01*
G01*
D11*
%TO.C,FB301*%
X63340000Y-77608000D02*
G75*
G02*
X60800000Y-77608000I-1270000J508000D01*
G01*
X60800000Y-71512000D02*
G75*
G02*
X63340000Y-71512000I1270000J-508000D01*
G01*
X59769932Y-76860068D02*
G75*
G02*
X60038000Y-72020000I2300068J2300068D01*
G01*
X64089572Y-72035535D02*
G75*
G02*
X64356000Y-76846000I-2019572J-2524465D01*
G01*
%TO.C,D303*%
X103720000Y-81000000D02*
X103720000Y-77700000D01*
X103720000Y-77700000D02*
X98320000Y-77700000D01*
X103720000Y-81000000D02*
X98320000Y-81000000D01*
%TO.C,e*%
X89220000Y-78700000D02*
X85920000Y-78700000D01*
X85920000Y-78700000D02*
X85920000Y-84100000D01*
X89220000Y-78700000D02*
X89220000Y-84100000D01*
D15*
%TO.C,D301*%
X62197000Y-56195000D02*
X57625000Y-56195000D01*
X57625000Y-56195000D02*
X57625000Y-60005000D01*
X57625000Y-60005000D02*
X62197000Y-60005000D01*
X62197000Y-60005000D02*
X62197000Y-56195000D01*
D17*
X61435000Y-56322000D02*
X61435000Y-59878000D01*
X58387000Y-56322000D02*
X58387000Y-59878000D01*
D11*
%TO.C,D201*%
X83240000Y-56360000D02*
X84170000Y-56360000D01*
X86400000Y-56360000D02*
X85470000Y-56360000D01*
X86400000Y-56360000D02*
X86400000Y-54200000D01*
X83240000Y-56360000D02*
X83240000Y-54900000D01*
%TO.C,C306*%
X101781252Y-77010000D02*
X100358748Y-77010000D01*
X101781252Y-75190000D02*
X100358748Y-75190000D01*
%TO.C,C305*%
X98081252Y-70335000D02*
X97558748Y-70335000D01*
X98081252Y-68865000D02*
X97558748Y-68865000D01*
%TO.C,C304*%
X73980000Y-53388748D02*
X73980000Y-54811252D01*
X72160000Y-53388748D02*
X72160000Y-54811252D01*
%TO.C,e*%
X90160000Y-79086252D02*
X90160000Y-77663748D01*
X91980000Y-79086252D02*
X91980000Y-77663748D01*
%TO.C,C302*%
X63781252Y-55010000D02*
X62358748Y-55010000D01*
X63781252Y-53190000D02*
X62358748Y-53190000D01*
%TO.C,C203*%
X93781252Y-62510000D02*
X92358748Y-62510000D01*
X93781252Y-60690000D02*
X92358748Y-60690000D01*
%TO.C,C202*%
X90556252Y-59760000D02*
X89133748Y-59760000D01*
X90556252Y-57940000D02*
X89133748Y-57940000D01*
%TO.C,C201*%
X104831252Y-86085000D02*
X104308748Y-86085000D01*
X104831252Y-84615000D02*
X104308748Y-84615000D01*
%TO.C,C110*%
X109055000Y-62038748D02*
X109055000Y-62561252D01*
X107585000Y-62038748D02*
X107585000Y-62561252D01*
%TO.C,C109*%
X111585000Y-86111252D02*
X111585000Y-85588748D01*
X113055000Y-86111252D02*
X113055000Y-85588748D01*
%TO.C,C108*%
X106730000Y-61663748D02*
X106730000Y-63086252D01*
X104910000Y-61663748D02*
X104910000Y-63086252D01*
%TO.C,C107*%
X114410000Y-86311252D02*
X114410000Y-84888748D01*
X116230000Y-86311252D02*
X116230000Y-84888748D01*
%TO.C,J104*%
D10*
X118534285Y-89612380D02*
X118534285Y-90326666D01*
X118486666Y-90469523D01*
X118391428Y-90564761D01*
X118248571Y-90612380D01*
X118153333Y-90612380D01*
X119534285Y-90612380D02*
X118962857Y-90612380D01*
X119248571Y-90612380D02*
X119248571Y-89612380D01*
X119153333Y-89755238D01*
X119058095Y-89850476D01*
X118962857Y-89898095D01*
X120153333Y-89612380D02*
X120248571Y-89612380D01*
X120343809Y-89660000D01*
X120391428Y-89707619D01*
X120439047Y-89802857D01*
X120486666Y-89993333D01*
X120486666Y-90231428D01*
X120439047Y-90421904D01*
X120391428Y-90517142D01*
X120343809Y-90564761D01*
X120248571Y-90612380D01*
X120153333Y-90612380D01*
X120058095Y-90564761D01*
X120010476Y-90517142D01*
X119962857Y-90421904D01*
X119915238Y-90231428D01*
X119915238Y-89993333D01*
X119962857Y-89802857D01*
X120010476Y-89707619D01*
X120058095Y-89660000D01*
X120153333Y-89612380D01*
X121343809Y-89945714D02*
X121343809Y-90612380D01*
X121105714Y-89564761D02*
X120867619Y-90279047D01*
X121486666Y-90279047D01*
%TO.C,J103*%
X112082380Y-56510714D02*
X112796666Y-56510714D01*
X112939523Y-56558333D01*
X113034761Y-56653571D01*
X113082380Y-56796428D01*
X113082380Y-56891666D01*
X113082380Y-55510714D02*
X113082380Y-56082142D01*
X113082380Y-55796428D02*
X112082380Y-55796428D01*
X112225238Y-55891666D01*
X112320476Y-55986904D01*
X112368095Y-56082142D01*
X112082380Y-54891666D02*
X112082380Y-54796428D01*
X112130000Y-54701190D01*
X112177619Y-54653571D01*
X112272857Y-54605952D01*
X112463333Y-54558333D01*
X112701428Y-54558333D01*
X112891904Y-54605952D01*
X112987142Y-54653571D01*
X113034761Y-54701190D01*
X113082380Y-54796428D01*
X113082380Y-54891666D01*
X113034761Y-54986904D01*
X112987142Y-55034523D01*
X112891904Y-55082142D01*
X112701428Y-55129761D01*
X112463333Y-55129761D01*
X112272857Y-55082142D01*
X112177619Y-55034523D01*
X112130000Y-54986904D01*
X112082380Y-54891666D01*
X112082380Y-54225000D02*
X112082380Y-53605952D01*
X112463333Y-53939285D01*
X112463333Y-53796428D01*
X112510952Y-53701190D01*
X112558571Y-53653571D01*
X112653809Y-53605952D01*
X112891904Y-53605952D01*
X112987142Y-53653571D01*
X113034761Y-53701190D01*
X113082380Y-53796428D01*
X113082380Y-54082142D01*
X113034761Y-54177380D01*
X112987142Y-54225000D01*
%TO.C,e*%
X113122000Y-80889180D02*
X113122000Y-81127276D01*
X112883904Y-81032038D02*
X113122000Y-81127276D01*
X113360095Y-81032038D01*
X112979142Y-81317752D02*
X113122000Y-81127276D01*
X113264857Y-81317752D01*
%TO.C,R303*%
X82872380Y-75969047D02*
X82396190Y-76302380D01*
X82872380Y-76540476D02*
X81872380Y-76540476D01*
X81872380Y-76159523D01*
X81920000Y-76064285D01*
X81967619Y-76016666D01*
X82062857Y-75969047D01*
X82205714Y-75969047D01*
X82300952Y-76016666D01*
X82348571Y-76064285D01*
X82396190Y-76159523D01*
X82396190Y-76540476D01*
X81872380Y-75635714D02*
X81872380Y-75016666D01*
X82253333Y-75350000D01*
X82253333Y-75207142D01*
X82300952Y-75111904D01*
X82348571Y-75064285D01*
X82443809Y-75016666D01*
X82681904Y-75016666D01*
X82777142Y-75064285D01*
X82824761Y-75111904D01*
X82872380Y-75207142D01*
X82872380Y-75492857D01*
X82824761Y-75588095D01*
X82777142Y-75635714D01*
X81872380Y-74397619D02*
X81872380Y-74302380D01*
X81920000Y-74207142D01*
X81967619Y-74159523D01*
X82062857Y-74111904D01*
X82253333Y-74064285D01*
X82491428Y-74064285D01*
X82681904Y-74111904D01*
X82777142Y-74159523D01*
X82824761Y-74207142D01*
X82872380Y-74302380D01*
X82872380Y-74397619D01*
X82824761Y-74492857D01*
X82777142Y-74540476D01*
X82681904Y-74588095D01*
X82491428Y-74635714D01*
X82253333Y-74635714D01*
X82062857Y-74588095D01*
X81967619Y-74540476D01*
X81920000Y-74492857D01*
X81872380Y-74397619D01*
X81872380Y-73730952D02*
X81872380Y-73111904D01*
X82253333Y-73445238D01*
X82253333Y-73302380D01*
X82300952Y-73207142D01*
X82348571Y-73159523D01*
X82443809Y-73111904D01*
X82681904Y-73111904D01*
X82777142Y-73159523D01*
X82824761Y-73207142D01*
X82872380Y-73302380D01*
X82872380Y-73588095D01*
X82824761Y-73683333D01*
X82777142Y-73730952D01*
%TO.C,R301*%
X77450952Y-74902380D02*
X77117619Y-74426190D01*
X76879523Y-74902380D02*
X76879523Y-73902380D01*
X77260476Y-73902380D01*
X77355714Y-73950000D01*
X77403333Y-73997619D01*
X77450952Y-74092857D01*
X77450952Y-74235714D01*
X77403333Y-74330952D01*
X77355714Y-74378571D01*
X77260476Y-74426190D01*
X76879523Y-74426190D01*
X77784285Y-73902380D02*
X78403333Y-73902380D01*
X78070000Y-74283333D01*
X78212857Y-74283333D01*
X78308095Y-74330952D01*
X78355714Y-74378571D01*
X78403333Y-74473809D01*
X78403333Y-74711904D01*
X78355714Y-74807142D01*
X78308095Y-74854761D01*
X78212857Y-74902380D01*
X77927142Y-74902380D01*
X77831904Y-74854761D01*
X77784285Y-74807142D01*
X79022380Y-73902380D02*
X79117619Y-73902380D01*
X79212857Y-73950000D01*
X79260476Y-73997619D01*
X79308095Y-74092857D01*
X79355714Y-74283333D01*
X79355714Y-74521428D01*
X79308095Y-74711904D01*
X79260476Y-74807142D01*
X79212857Y-74854761D01*
X79117619Y-74902380D01*
X79022380Y-74902380D01*
X78927142Y-74854761D01*
X78879523Y-74807142D01*
X78831904Y-74711904D01*
X78784285Y-74521428D01*
X78784285Y-74283333D01*
X78831904Y-74092857D01*
X78879523Y-73997619D01*
X78927142Y-73950000D01*
X79022380Y-73902380D01*
X80308095Y-74902380D02*
X79736666Y-74902380D01*
X80022380Y-74902380D02*
X80022380Y-73902380D01*
X79927142Y-74045238D01*
X79831904Y-74140476D01*
X79736666Y-74188095D01*
%TO.C,R204*%
X115200952Y-77402380D02*
X114867619Y-76926190D01*
X114629523Y-77402380D02*
X114629523Y-76402380D01*
X115010476Y-76402380D01*
X115105714Y-76450000D01*
X115153333Y-76497619D01*
X115200952Y-76592857D01*
X115200952Y-76735714D01*
X115153333Y-76830952D01*
X115105714Y-76878571D01*
X115010476Y-76926190D01*
X114629523Y-76926190D01*
X115581904Y-76497619D02*
X115629523Y-76450000D01*
X115724761Y-76402380D01*
X115962857Y-76402380D01*
X116058095Y-76450000D01*
X116105714Y-76497619D01*
X116153333Y-76592857D01*
X116153333Y-76688095D01*
X116105714Y-76830952D01*
X115534285Y-77402380D01*
X116153333Y-77402380D01*
X116772380Y-76402380D02*
X116867619Y-76402380D01*
X116962857Y-76450000D01*
X117010476Y-76497619D01*
X117058095Y-76592857D01*
X117105714Y-76783333D01*
X117105714Y-77021428D01*
X117058095Y-77211904D01*
X117010476Y-77307142D01*
X116962857Y-77354761D01*
X116867619Y-77402380D01*
X116772380Y-77402380D01*
X116677142Y-77354761D01*
X116629523Y-77307142D01*
X116581904Y-77211904D01*
X116534285Y-77021428D01*
X116534285Y-76783333D01*
X116581904Y-76592857D01*
X116629523Y-76497619D01*
X116677142Y-76450000D01*
X116772380Y-76402380D01*
X117962857Y-76735714D02*
X117962857Y-77402380D01*
X117724761Y-76354761D02*
X117486666Y-77069047D01*
X118105714Y-77069047D01*
%TO.C,Q301*%
X84517619Y-83147619D02*
X84470000Y-83242857D01*
X84374761Y-83338095D01*
X84231904Y-83480952D01*
X84184285Y-83576190D01*
X84184285Y-83671428D01*
X84422380Y-83623809D02*
X84374761Y-83719047D01*
X84279523Y-83814285D01*
X84089047Y-83861904D01*
X83755714Y-83861904D01*
X83565238Y-83814285D01*
X83470000Y-83719047D01*
X83422380Y-83623809D01*
X83422380Y-83433333D01*
X83470000Y-83338095D01*
X83565238Y-83242857D01*
X83755714Y-83195238D01*
X84089047Y-83195238D01*
X84279523Y-83242857D01*
X84374761Y-83338095D01*
X84422380Y-83433333D01*
X84422380Y-83623809D01*
X83422380Y-82861904D02*
X83422380Y-82242857D01*
X83803333Y-82576190D01*
X83803333Y-82433333D01*
X83850952Y-82338095D01*
X83898571Y-82290476D01*
X83993809Y-82242857D01*
X84231904Y-82242857D01*
X84327142Y-82290476D01*
X84374761Y-82338095D01*
X84422380Y-82433333D01*
X84422380Y-82719047D01*
X84374761Y-82814285D01*
X84327142Y-82861904D01*
X83422380Y-81623809D02*
X83422380Y-81528571D01*
X83470000Y-81433333D01*
X83517619Y-81385714D01*
X83612857Y-81338095D01*
X83803333Y-81290476D01*
X84041428Y-81290476D01*
X84231904Y-81338095D01*
X84327142Y-81385714D01*
X84374761Y-81433333D01*
X84422380Y-81528571D01*
X84422380Y-81623809D01*
X84374761Y-81719047D01*
X84327142Y-81766666D01*
X84231904Y-81814285D01*
X84041428Y-81861904D01*
X83803333Y-81861904D01*
X83612857Y-81814285D01*
X83517619Y-81766666D01*
X83470000Y-81719047D01*
X83422380Y-81623809D01*
X84422380Y-80338095D02*
X84422380Y-80909523D01*
X84422380Y-80623809D02*
X83422380Y-80623809D01*
X83565238Y-80719047D01*
X83660476Y-80814285D01*
X83708095Y-80909523D01*
%TO.C,L201*%
X78820952Y-64182380D02*
X78344761Y-64182380D01*
X78344761Y-63182380D01*
X79106666Y-63277619D02*
X79154285Y-63230000D01*
X79249523Y-63182380D01*
X79487619Y-63182380D01*
X79582857Y-63230000D01*
X79630476Y-63277619D01*
X79678095Y-63372857D01*
X79678095Y-63468095D01*
X79630476Y-63610952D01*
X79059047Y-64182380D01*
X79678095Y-64182380D01*
X80297142Y-63182380D02*
X80392380Y-63182380D01*
X80487619Y-63230000D01*
X80535238Y-63277619D01*
X80582857Y-63372857D01*
X80630476Y-63563333D01*
X80630476Y-63801428D01*
X80582857Y-63991904D01*
X80535238Y-64087142D01*
X80487619Y-64134761D01*
X80392380Y-64182380D01*
X80297142Y-64182380D01*
X80201904Y-64134761D01*
X80154285Y-64087142D01*
X80106666Y-63991904D01*
X80059047Y-63801428D01*
X80059047Y-63563333D01*
X80106666Y-63372857D01*
X80154285Y-63277619D01*
X80201904Y-63230000D01*
X80297142Y-63182380D01*
X81582857Y-64182380D02*
X81011428Y-64182380D01*
X81297142Y-64182380D02*
X81297142Y-63182380D01*
X81201904Y-63325238D01*
X81106666Y-63420476D01*
X81011428Y-63468095D01*
%TO.C,J302*%
X80322380Y-55635714D02*
X81036666Y-55635714D01*
X81179523Y-55683333D01*
X81274761Y-55778571D01*
X81322380Y-55921428D01*
X81322380Y-56016666D01*
X80322380Y-55254761D02*
X80322380Y-54635714D01*
X80703333Y-54969047D01*
X80703333Y-54826190D01*
X80750952Y-54730952D01*
X80798571Y-54683333D01*
X80893809Y-54635714D01*
X81131904Y-54635714D01*
X81227142Y-54683333D01*
X81274761Y-54730952D01*
X81322380Y-54826190D01*
X81322380Y-55111904D01*
X81274761Y-55207142D01*
X81227142Y-55254761D01*
X80322380Y-54016666D02*
X80322380Y-53921428D01*
X80370000Y-53826190D01*
X80417619Y-53778571D01*
X80512857Y-53730952D01*
X80703333Y-53683333D01*
X80941428Y-53683333D01*
X81131904Y-53730952D01*
X81227142Y-53778571D01*
X81274761Y-53826190D01*
X81322380Y-53921428D01*
X81322380Y-54016666D01*
X81274761Y-54111904D01*
X81227142Y-54159523D01*
X81131904Y-54207142D01*
X80941428Y-54254761D01*
X80703333Y-54254761D01*
X80512857Y-54207142D01*
X80417619Y-54159523D01*
X80370000Y-54111904D01*
X80322380Y-54016666D01*
X80417619Y-53302380D02*
X80370000Y-53254761D01*
X80322380Y-53159523D01*
X80322380Y-52921428D01*
X80370000Y-52826190D01*
X80417619Y-52778571D01*
X80512857Y-52730952D01*
X80608095Y-52730952D01*
X80750952Y-52778571D01*
X81322380Y-53350000D01*
X81322380Y-52730952D01*
%TO.C,FB301*%
X57934571Y-76345714D02*
X57934571Y-76679047D01*
X58458380Y-76679047D02*
X57458380Y-76679047D01*
X57458380Y-76202857D01*
X57934571Y-75488571D02*
X57982190Y-75345714D01*
X58029809Y-75298095D01*
X58125047Y-75250476D01*
X58267904Y-75250476D01*
X58363142Y-75298095D01*
X58410761Y-75345714D01*
X58458380Y-75440952D01*
X58458380Y-75821904D01*
X57458380Y-75821904D01*
X57458380Y-75488571D01*
X57506000Y-75393333D01*
X57553619Y-75345714D01*
X57648857Y-75298095D01*
X57744095Y-75298095D01*
X57839333Y-75345714D01*
X57886952Y-75393333D01*
X57934571Y-75488571D01*
X57934571Y-75821904D01*
X57458380Y-74917142D02*
X57458380Y-74298095D01*
X57839333Y-74631428D01*
X57839333Y-74488571D01*
X57886952Y-74393333D01*
X57934571Y-74345714D01*
X58029809Y-74298095D01*
X58267904Y-74298095D01*
X58363142Y-74345714D01*
X58410761Y-74393333D01*
X58458380Y-74488571D01*
X58458380Y-74774285D01*
X58410761Y-74869523D01*
X58363142Y-74917142D01*
X57458380Y-73679047D02*
X57458380Y-73583809D01*
X57506000Y-73488571D01*
X57553619Y-73440952D01*
X57648857Y-73393333D01*
X57839333Y-73345714D01*
X58077428Y-73345714D01*
X58267904Y-73393333D01*
X58363142Y-73440952D01*
X58410761Y-73488571D01*
X58458380Y-73583809D01*
X58458380Y-73679047D01*
X58410761Y-73774285D01*
X58363142Y-73821904D01*
X58267904Y-73869523D01*
X58077428Y-73917142D01*
X57839333Y-73917142D01*
X57648857Y-73869523D01*
X57553619Y-73821904D01*
X57506000Y-73774285D01*
X57458380Y-73679047D01*
X58458380Y-72393333D02*
X58458380Y-72964761D01*
X58458380Y-72679047D02*
X57458380Y-72679047D01*
X57601238Y-72774285D01*
X57696476Y-72869523D01*
X57744095Y-72964761D01*
%TO.C,C305*%
X92950952Y-69957142D02*
X92903333Y-70004761D01*
X92760476Y-70052380D01*
X92665238Y-70052380D01*
X92522380Y-70004761D01*
X92427142Y-69909523D01*
X92379523Y-69814285D01*
X92331904Y-69623809D01*
X92331904Y-69480952D01*
X92379523Y-69290476D01*
X92427142Y-69195238D01*
X92522380Y-69100000D01*
X92665238Y-69052380D01*
X92760476Y-69052380D01*
X92903333Y-69100000D01*
X92950952Y-69147619D01*
X93284285Y-69052380D02*
X93903333Y-69052380D01*
X93570000Y-69433333D01*
X93712857Y-69433333D01*
X93808095Y-69480952D01*
X93855714Y-69528571D01*
X93903333Y-69623809D01*
X93903333Y-69861904D01*
X93855714Y-69957142D01*
X93808095Y-70004761D01*
X93712857Y-70052380D01*
X93427142Y-70052380D01*
X93331904Y-70004761D01*
X93284285Y-69957142D01*
X94522380Y-69052380D02*
X94617619Y-69052380D01*
X94712857Y-69100000D01*
X94760476Y-69147619D01*
X94808095Y-69242857D01*
X94855714Y-69433333D01*
X94855714Y-69671428D01*
X94808095Y-69861904D01*
X94760476Y-69957142D01*
X94712857Y-70004761D01*
X94617619Y-70052380D01*
X94522380Y-70052380D01*
X94427142Y-70004761D01*
X94379523Y-69957142D01*
X94331904Y-69861904D01*
X94284285Y-69671428D01*
X94284285Y-69433333D01*
X94331904Y-69242857D01*
X94379523Y-69147619D01*
X94427142Y-69100000D01*
X94522380Y-69052380D01*
X95760476Y-69052380D02*
X95284285Y-69052380D01*
X95236666Y-69528571D01*
X95284285Y-69480952D01*
X95379523Y-69433333D01*
X95617619Y-69433333D01*
X95712857Y-69480952D01*
X95760476Y-69528571D01*
X95808095Y-69623809D01*
X95808095Y-69861904D01*
X95760476Y-69957142D01*
X95712857Y-70004761D01*
X95617619Y-70052380D01*
X95379523Y-70052380D01*
X95284285Y-70004761D01*
X95236666Y-69957142D01*
%TO.C,C304*%
X75277142Y-55219047D02*
X75324761Y-55266666D01*
X75372380Y-55409523D01*
X75372380Y-55504761D01*
X75324761Y-55647619D01*
X75229523Y-55742857D01*
X75134285Y-55790476D01*
X74943809Y-55838095D01*
X74800952Y-55838095D01*
X74610476Y-55790476D01*
X74515238Y-55742857D01*
X74420000Y-55647619D01*
X74372380Y-55504761D01*
X74372380Y-55409523D01*
X74420000Y-55266666D01*
X74467619Y-55219047D01*
X74372380Y-54885714D02*
X74372380Y-54266666D01*
X74753333Y-54600000D01*
X74753333Y-54457142D01*
X74800952Y-54361904D01*
X74848571Y-54314285D01*
X74943809Y-54266666D01*
X75181904Y-54266666D01*
X75277142Y-54314285D01*
X75324761Y-54361904D01*
X75372380Y-54457142D01*
X75372380Y-54742857D01*
X75324761Y-54838095D01*
X75277142Y-54885714D01*
X74372380Y-53647619D02*
X74372380Y-53552380D01*
X74420000Y-53457142D01*
X74467619Y-53409523D01*
X74562857Y-53361904D01*
X74753333Y-53314285D01*
X74991428Y-53314285D01*
X75181904Y-53361904D01*
X75277142Y-53409523D01*
X75324761Y-53457142D01*
X75372380Y-53552380D01*
X75372380Y-53647619D01*
X75324761Y-53742857D01*
X75277142Y-53790476D01*
X75181904Y-53838095D01*
X74991428Y-53885714D01*
X74753333Y-53885714D01*
X74562857Y-53838095D01*
X74467619Y-53790476D01*
X74420000Y-53742857D01*
X74372380Y-53647619D01*
X74705714Y-52457142D02*
X75372380Y-52457142D01*
X74324761Y-52695238D02*
X75039047Y-52933333D01*
X75039047Y-52314285D01*
%TO.C,C203*%
X91950952Y-63807142D02*
X91903333Y-63854761D01*
X91760476Y-63902380D01*
X91665238Y-63902380D01*
X91522380Y-63854761D01*
X91427142Y-63759523D01*
X91379523Y-63664285D01*
X91331904Y-63473809D01*
X91331904Y-63330952D01*
X91379523Y-63140476D01*
X91427142Y-63045238D01*
X91522380Y-62950000D01*
X91665238Y-62902380D01*
X91760476Y-62902380D01*
X91903333Y-62950000D01*
X91950952Y-62997619D01*
X92331904Y-62997619D02*
X92379523Y-62950000D01*
X92474761Y-62902380D01*
X92712857Y-62902380D01*
X92808095Y-62950000D01*
X92855714Y-62997619D01*
X92903333Y-63092857D01*
X92903333Y-63188095D01*
X92855714Y-63330952D01*
X92284285Y-63902380D01*
X92903333Y-63902380D01*
X93522380Y-62902380D02*
X93617619Y-62902380D01*
X93712857Y-62950000D01*
X93760476Y-62997619D01*
X93808095Y-63092857D01*
X93855714Y-63283333D01*
X93855714Y-63521428D01*
X93808095Y-63711904D01*
X93760476Y-63807142D01*
X93712857Y-63854761D01*
X93617619Y-63902380D01*
X93522380Y-63902380D01*
X93427142Y-63854761D01*
X93379523Y-63807142D01*
X93331904Y-63711904D01*
X93284285Y-63521428D01*
X93284285Y-63283333D01*
X93331904Y-63092857D01*
X93379523Y-62997619D01*
X93427142Y-62950000D01*
X93522380Y-62902380D01*
X94189047Y-62902380D02*
X94808095Y-62902380D01*
X94474761Y-63283333D01*
X94617619Y-63283333D01*
X94712857Y-63330952D01*
X94760476Y-63378571D01*
X94808095Y-63473809D01*
X94808095Y-63711904D01*
X94760476Y-63807142D01*
X94712857Y-63854761D01*
X94617619Y-63902380D01*
X94331904Y-63902380D01*
X94236666Y-63854761D01*
X94189047Y-63807142D01*
%TD*%
M02*
