%TF.GenerationSoftware,KiCad,Pcbnew,(5.1.10)-1*%
%TF.CreationDate,2022-10-02T14:19:25-06:00*%
%TF.ProjectId,PowerSupply,506f7765-7253-4757-9070-6c792e6b6963,rev?*%
%TF.SameCoordinates,Original*%
%TF.FileFunction,Copper,L4,Bot*%
%TF.FilePolarity,Positive*%
%FSLAX46Y46*%
G04 Gerber Fmt 4.6, Leading zero omitted, Abs format (unit mm)*
G04 Created by KiCad (PCBNEW (5.1.10)-1) date 2022-10-02 14:19:25*
%MOMM*%
%LPD*%
G01*
G04 APERTURE LIST*
%TA.AperFunction,ComponentPad*%
%ADD10O,2.000000X2.000000*%
%TD*%
%TA.AperFunction,ComponentPad*%
%ADD11C,2.000000*%
%TD*%
%TA.AperFunction,ComponentPad*%
%ADD12O,2.000000X1.700000*%
%TD*%
%TA.AperFunction,ComponentPad*%
%ADD13C,0.700000*%
%TD*%
%TA.AperFunction,ComponentPad*%
%ADD14R,0.700000X0.700000*%
%TD*%
%TA.AperFunction,ViaPad*%
%ADD15C,0.800000*%
%TD*%
%TA.AperFunction,Conductor*%
%ADD16C,0.250000*%
%TD*%
%TA.AperFunction,Conductor*%
%ADD17C,0.500000*%
%TD*%
%TA.AperFunction,Conductor*%
%ADD18C,1.000000*%
%TD*%
%TA.AperFunction,Conductor*%
%ADD19C,0.254000*%
%TD*%
%TA.AperFunction,Conductor*%
%ADD20C,0.100000*%
%TD*%
G04 APERTURE END LIST*
D10*
%TO.P,L201,2*%
%TO.N,Net-(D201-Pad2)*%
X87560000Y-67100000D03*
D11*
%TO.P,L201,1*%
%TO.N,VCC*%
X72320000Y-67100000D03*
%TD*%
D12*
%TO.P,J302,2*%
%TO.N,GND*%
X78070000Y-55600000D03*
%TO.P,J302,1*%
%TO.N,+BATT*%
%TA.AperFunction,ComponentPad*%
G36*
G01*
X77320000Y-52250000D02*
X78820000Y-52250000D01*
G75*
G02*
X79070000Y-52500000I0J-250000D01*
G01*
X79070000Y-53700000D01*
G75*
G02*
X78820000Y-53950000I-250000J0D01*
G01*
X77320000Y-53950000D01*
G75*
G02*
X77070000Y-53700000I0J250000D01*
G01*
X77070000Y-52500000D01*
G75*
G02*
X77320000Y-52250000I250000J0D01*
G01*
G37*
%TD.AperFunction*%
%TD*%
%TO.P,e,3*%
%TO.N,N/C*%
%TA.AperFunction,SMDPad,CuDef*%
G36*
G01*
X55375000Y-87934999D02*
X55375000Y-86734999D01*
G75*
G02*
X56025000Y-86084999I650000J0D01*
G01*
X56025000Y-86084999D01*
G75*
G02*
X56675000Y-86734999I0J-650000D01*
G01*
X56675000Y-87934999D01*
G75*
G02*
X56025000Y-88584999I-650000J0D01*
G01*
X56025000Y-88584999D01*
G75*
G02*
X55375000Y-87934999I0J650000D01*
G01*
G37*
%TD.AperFunction*%
%TO.P,e,4*%
%TA.AperFunction,SMDPad,CuDef*%
G36*
G01*
X64015000Y-87934999D02*
X64015000Y-86734999D01*
G75*
G02*
X64665000Y-86084999I650000J0D01*
G01*
X64665000Y-86084999D01*
G75*
G02*
X65315000Y-86734999I0J-650000D01*
G01*
X65315000Y-87934999D01*
G75*
G02*
X64665000Y-88584999I-650000J0D01*
G01*
X64665000Y-88584999D01*
G75*
G02*
X64015000Y-87934999I0J650000D01*
G01*
G37*
%TD.AperFunction*%
%TA.AperFunction,ComponentPad*%
G36*
G01*
X64315000Y-87635001D02*
X64315000Y-86735001D01*
G75*
G02*
X64665000Y-86385001I350000J0D01*
G01*
X64665000Y-86385001D01*
G75*
G02*
X65015000Y-86735001I0J-350000D01*
G01*
X65015000Y-87635001D01*
G75*
G02*
X64665000Y-87985001I-350000J0D01*
G01*
X64665000Y-87985001D01*
G75*
G02*
X64315000Y-87635001I0J350000D01*
G01*
G37*
%TD.AperFunction*%
%TO.P,e,3*%
%TA.AperFunction,ComponentPad*%
G36*
G01*
X55675000Y-87635001D02*
X55675000Y-86735001D01*
G75*
G02*
X56025000Y-86385001I350000J0D01*
G01*
X56025000Y-86385001D01*
G75*
G02*
X56375000Y-86735001I0J-350000D01*
G01*
X56375000Y-87635001D01*
G75*
G02*
X56025000Y-87985001I-350000J0D01*
G01*
X56025000Y-87985001D01*
G75*
G02*
X55675000Y-87635001I0J350000D01*
G01*
G37*
%TD.AperFunction*%
D13*
%TO.P,e,B12*%
X57370000Y-83885002D03*
%TO.P,e,B9*%
X58220000Y-83885002D03*
%TO.P,e,B8*%
X59070000Y-83885002D03*
%TO.P,e,B7*%
X59920000Y-83885002D03*
%TO.P,e,B6*%
X60770000Y-83885002D03*
%TO.P,e,B5*%
X61620000Y-83885002D03*
%TO.P,e,B4*%
X62470000Y-83885002D03*
%TO.P,e,B1*%
X63320000Y-83885002D03*
%TO.P,e,A12*%
%TO.N,GND*%
X63320000Y-82535001D03*
%TO.P,e,A9*%
%TO.N,Net-(FB301-Pad1)*%
X62470000Y-82535001D03*
%TO.P,e,A8*%
%TO.N,N/C*%
X61620000Y-82535001D03*
%TO.P,e,A7*%
X60770000Y-82535001D03*
%TO.P,e,A6*%
X59920000Y-82535001D03*
%TO.P,e,A5*%
X59070000Y-82535001D03*
%TO.P,e,A4*%
%TO.N,Net-(FB301-Pad1)*%
X58220000Y-82535001D03*
D14*
%TO.P,e,A1*%
%TO.N,GND*%
X57370000Y-82535001D03*
%TO.P,e,2*%
%TO.N,N/C*%
%TA.AperFunction,ComponentPad*%
G36*
G01*
X64015000Y-83985001D02*
X64015000Y-82085001D01*
G75*
G02*
X64665000Y-81435001I650000J0D01*
G01*
X64665000Y-81435001D01*
G75*
G02*
X65315000Y-82085001I0J-650000D01*
G01*
X65315000Y-83985001D01*
G75*
G02*
X64665000Y-84635001I-650000J0D01*
G01*
X64665000Y-84635001D01*
G75*
G02*
X64015000Y-83985001I0J650000D01*
G01*
G37*
%TD.AperFunction*%
%TO.P,e,1*%
%TA.AperFunction,ComponentPad*%
G36*
G01*
X55375000Y-83985001D02*
X55375000Y-82085001D01*
G75*
G02*
X56025000Y-81435001I650000J0D01*
G01*
X56025000Y-81435001D01*
G75*
G02*
X56675000Y-82085001I0J-650000D01*
G01*
X56675000Y-83985001D01*
G75*
G02*
X56025000Y-84635001I-650000J0D01*
G01*
X56025000Y-84635001D01*
G75*
G02*
X55375000Y-83985001I0J650000D01*
G01*
G37*
%TD.AperFunction*%
%TD*%
D11*
%TO.P,FB301,1*%
%TO.N,Net-(FB301-Pad1)*%
X62070000Y-77100000D03*
%TO.P,FB301,2*%
%TO.N,VBUS*%
X62070000Y-72020000D03*
%TD*%
D15*
%TO.N,GND*%
X65570000Y-80600000D03*
X86820000Y-56850000D03*
X88320000Y-61100000D03*
X60320000Y-46350000D03*
X57320000Y-48100000D03*
X57820000Y-51100000D03*
X59820000Y-48850000D03*
X58820000Y-54350000D03*
X55570000Y-53600000D03*
X55820000Y-45600000D03*
X55570000Y-50100000D03*
X61070000Y-51350000D03*
X54820000Y-56600000D03*
X57070000Y-61350000D03*
X54320000Y-59850000D03*
X55070000Y-65350000D03*
X57570000Y-69600000D03*
X54320000Y-62850000D03*
X54320000Y-70100000D03*
X55320000Y-67850000D03*
X58570000Y-62600000D03*
X76195000Y-78225000D03*
X105570000Y-70100000D03*
X109570000Y-44850000D03*
X114570000Y-45850000D03*
X115070000Y-49100000D03*
X121570000Y-46850000D03*
X118570000Y-45350000D03*
X118570000Y-48850000D03*
X119820000Y-52350000D03*
X117070000Y-53600000D03*
X111570000Y-52100000D03*
X109570000Y-49850000D03*
X110820000Y-47100000D03*
X112820000Y-49850000D03*
X115070000Y-51850000D03*
X122070000Y-50100000D03*
X117570000Y-50850000D03*
X119320000Y-55600000D03*
X113820000Y-54350000D03*
X112320000Y-44350000D03*
X116820000Y-47100000D03*
X121320000Y-44600000D03*
X107320000Y-87850000D03*
X115570000Y-82350000D03*
X112820000Y-75850000D03*
X97570000Y-76600000D03*
X86320000Y-74600000D03*
X86570000Y-76350000D03*
X88820000Y-74850000D03*
X88320000Y-76850000D03*
X74570000Y-57600000D03*
X72820000Y-59100000D03*
X72820000Y-57350000D03*
X69070000Y-60012500D03*
X77320000Y-58850000D03*
X121570000Y-77350000D03*
X123570000Y-77600000D03*
X122570000Y-70850000D03*
X122570000Y-75100000D03*
X121820000Y-72850000D03*
X122820000Y-66100000D03*
X121820000Y-68600000D03*
X121320000Y-62850000D03*
X122820000Y-59350000D03*
X122820000Y-62350000D03*
X122320000Y-56850000D03*
X122070000Y-53850000D03*
X121570000Y-80100000D03*
X123570000Y-81100000D03*
X122820000Y-89850000D03*
X124070000Y-88100000D03*
X122820000Y-85350000D03*
X123570000Y-83350000D03*
X53320000Y-73350000D03*
X53320000Y-75100000D03*
X53320000Y-77600000D03*
%TO.N,Net-(C202-Pad1)*%
X86570000Y-53350000D03*
X93070000Y-54850000D03*
%TO.N,+BATT*%
X81320000Y-77100000D03*
X80070000Y-51350000D03*
X75570000Y-51600000D03*
X75570000Y-53600000D03*
X69820000Y-51850000D03*
%TO.N,Net-(R206-Pad1)*%
X96820000Y-65850000D03*
X105320000Y-75600000D03*
%TO.N,Net-(R209-Pad2)*%
X100935000Y-62985000D03*
X114570000Y-61850000D03*
%TO.N,CHG_STAT*%
X71570000Y-61350000D03*
X118320000Y-82100000D03*
%TD*%
D16*
%TO.N,GND*%
X78070000Y-55600000D02*
X77320000Y-55600000D01*
X77320000Y-55600000D02*
X75820000Y-57100000D01*
X75820000Y-57100000D02*
X75820000Y-57100000D01*
X75070000Y-57100000D02*
X74570000Y-57600000D01*
X75820000Y-57100000D02*
X75070000Y-57100000D01*
%TO.N,Net-(C202-Pad1)*%
X93070000Y-54850000D02*
X93070000Y-54100000D01*
X93070000Y-54100000D02*
X92320000Y-53350000D01*
X92320000Y-53350000D02*
X86570000Y-53350000D01*
%TO.N,+BATT*%
X81320000Y-77100000D02*
X81320000Y-75350000D01*
D17*
X81320000Y-75350000D02*
X81320000Y-74850000D01*
X81320000Y-74850000D02*
X80570000Y-74100000D01*
D18*
X80570000Y-74100000D02*
X79570000Y-74100000D01*
X79570000Y-74100000D02*
X78320000Y-72850000D01*
D16*
%TO.N,Net-(R206-Pad1)*%
X96820000Y-65850000D02*
X96820000Y-69350000D01*
X103070000Y-75600000D02*
X105320000Y-75600000D01*
X96820000Y-69350000D02*
X103070000Y-75600000D01*
%TO.N,Net-(R209-Pad2)*%
X100935000Y-62985000D02*
X101570000Y-62350000D01*
X101570000Y-62350000D02*
X102070000Y-61850000D01*
X102070000Y-61850000D02*
X114570000Y-61850000D01*
X114570000Y-61850000D02*
X114570000Y-61850000D01*
%TO.N,CHG_STAT*%
X74131715Y-61350000D02*
X71570000Y-61350000D01*
X84070000Y-51100000D02*
X84070000Y-53850000D01*
X85320000Y-49850000D02*
X84070000Y-51100000D01*
X84070000Y-53850000D02*
X76570000Y-61350000D01*
X100570000Y-49850000D02*
X85320000Y-49850000D01*
X109320000Y-58600000D02*
X100570000Y-49850000D01*
X115570000Y-58600000D02*
X109320000Y-58600000D01*
X118320000Y-61350000D02*
X115570000Y-58600000D01*
X76570000Y-61350000D02*
X74131715Y-61350000D01*
X118320000Y-82100000D02*
X118320000Y-61350000D01*
%TD*%
D19*
%TO.N,+BATT*%
X80693092Y-49104939D02*
X80899350Y-55945848D01*
X78309916Y-58535283D01*
X78237205Y-58359744D01*
X78123937Y-58190226D01*
X77979774Y-58046063D01*
X77810256Y-57932795D01*
X77621898Y-57854774D01*
X77421939Y-57815000D01*
X77218061Y-57815000D01*
X77018102Y-57854774D01*
X76829744Y-57932795D01*
X76660226Y-58046063D01*
X76516063Y-58190226D01*
X76402795Y-58359744D01*
X76324774Y-58548102D01*
X76285000Y-58748061D01*
X76285000Y-58951939D01*
X76324774Y-59151898D01*
X76402795Y-59340256D01*
X76516063Y-59509774D01*
X76660226Y-59653937D01*
X76829744Y-59767205D01*
X77005283Y-59839916D01*
X76255199Y-60590000D01*
X72273711Y-60590000D01*
X72229774Y-60546063D01*
X72060256Y-60432795D01*
X71871898Y-60354774D01*
X71671939Y-60315000D01*
X71468061Y-60315000D01*
X71268102Y-60354774D01*
X71079744Y-60432795D01*
X70910226Y-60546063D01*
X70766063Y-60690226D01*
X70652795Y-60859744D01*
X70574774Y-61048102D01*
X70535000Y-61248061D01*
X70535000Y-61451939D01*
X70574774Y-61651898D01*
X70652795Y-61840256D01*
X70766063Y-62009774D01*
X70910226Y-62153937D01*
X71079744Y-62267205D01*
X71268102Y-62345226D01*
X71468061Y-62385000D01*
X71671939Y-62385000D01*
X71871898Y-62345226D01*
X72060256Y-62267205D01*
X72229774Y-62153937D01*
X72273711Y-62110000D01*
X76532678Y-62110000D01*
X76570000Y-62113676D01*
X76607322Y-62110000D01*
X76607333Y-62110000D01*
X76718986Y-62099003D01*
X76862247Y-62055546D01*
X76994276Y-61984974D01*
X77110001Y-61890001D01*
X77133804Y-61860997D01*
X80962265Y-58032536D01*
X81439030Y-73845244D01*
X69691817Y-73600511D01*
X69408348Y-66938967D01*
X70685000Y-66938967D01*
X70685000Y-67261033D01*
X70747832Y-67576912D01*
X70871082Y-67874463D01*
X71050013Y-68142252D01*
X71277748Y-68369987D01*
X71545537Y-68548918D01*
X71843088Y-68672168D01*
X72158967Y-68735000D01*
X72481033Y-68735000D01*
X72796912Y-68672168D01*
X73094463Y-68548918D01*
X73362252Y-68369987D01*
X73589987Y-68142252D01*
X73768918Y-67874463D01*
X73892168Y-67576912D01*
X73955000Y-67261033D01*
X73955000Y-66938967D01*
X73892168Y-66623088D01*
X73768918Y-66325537D01*
X73589987Y-66057748D01*
X73362252Y-65830013D01*
X73094463Y-65651082D01*
X72796912Y-65527832D01*
X72481033Y-65465000D01*
X72158967Y-65465000D01*
X71843088Y-65527832D01*
X71545537Y-65651082D01*
X71277748Y-65830013D01*
X71050013Y-66057748D01*
X70871082Y-66325537D01*
X70747832Y-66623088D01*
X70685000Y-66938967D01*
X69408348Y-66938967D01*
X69157647Y-61047500D01*
X69171939Y-61047500D01*
X69371898Y-61007726D01*
X69560256Y-60929705D01*
X69729774Y-60816437D01*
X69873937Y-60672274D01*
X69987205Y-60502756D01*
X70065226Y-60314398D01*
X70105000Y-60114439D01*
X70105000Y-59910561D01*
X70065226Y-59710602D01*
X69987205Y-59522244D01*
X69873937Y-59352726D01*
X69729774Y-59208563D01*
X69560256Y-59095295D01*
X69371898Y-59017274D01*
X69171939Y-58977500D01*
X69069562Y-58977500D01*
X68995969Y-57248061D01*
X71785000Y-57248061D01*
X71785000Y-57451939D01*
X71824774Y-57651898D01*
X71902795Y-57840256D01*
X72016063Y-58009774D01*
X72160226Y-58153937D01*
X72266580Y-58225000D01*
X72160226Y-58296063D01*
X72016063Y-58440226D01*
X71902795Y-58609744D01*
X71824774Y-58798102D01*
X71785000Y-58998061D01*
X71785000Y-59201939D01*
X71824774Y-59401898D01*
X71902795Y-59590256D01*
X72016063Y-59759774D01*
X72160226Y-59903937D01*
X72329744Y-60017205D01*
X72518102Y-60095226D01*
X72718061Y-60135000D01*
X72921939Y-60135000D01*
X73121898Y-60095226D01*
X73310256Y-60017205D01*
X73479774Y-59903937D01*
X73623937Y-59759774D01*
X73737205Y-59590256D01*
X73815226Y-59401898D01*
X73855000Y-59201939D01*
X73855000Y-58998061D01*
X73815226Y-58798102D01*
X73737205Y-58609744D01*
X73623937Y-58440226D01*
X73479774Y-58296063D01*
X73373420Y-58225000D01*
X73479774Y-58153937D01*
X73620770Y-58012941D01*
X73652795Y-58090256D01*
X73766063Y-58259774D01*
X73910226Y-58403937D01*
X74079744Y-58517205D01*
X74268102Y-58595226D01*
X74468061Y-58635000D01*
X74671939Y-58635000D01*
X74871898Y-58595226D01*
X75060256Y-58517205D01*
X75229774Y-58403937D01*
X75373937Y-58259774D01*
X75487205Y-58090256D01*
X75565226Y-57901898D01*
X75573560Y-57860000D01*
X75782678Y-57860000D01*
X75820000Y-57863676D01*
X75857322Y-57860000D01*
X75857333Y-57860000D01*
X75968986Y-57849003D01*
X76112247Y-57805546D01*
X76244276Y-57734974D01*
X76360001Y-57640001D01*
X76383804Y-57610997D01*
X77132113Y-56862689D01*
X77348966Y-56978599D01*
X77628889Y-57063513D01*
X77847050Y-57085000D01*
X78292950Y-57085000D01*
X78511111Y-57063513D01*
X78791034Y-56978599D01*
X79049014Y-56840706D01*
X79275134Y-56655134D01*
X79460706Y-56429014D01*
X79598599Y-56171034D01*
X79683513Y-55891111D01*
X79712185Y-55600000D01*
X79683513Y-55308889D01*
X79598599Y-55028966D01*
X79460706Y-54770986D01*
X79279392Y-54550055D01*
X79314180Y-54539502D01*
X79424494Y-54480537D01*
X79521185Y-54401185D01*
X79600537Y-54304494D01*
X79659502Y-54194180D01*
X79695812Y-54074482D01*
X79708072Y-53950000D01*
X79705000Y-53385750D01*
X79546250Y-53227000D01*
X78197000Y-53227000D01*
X78197000Y-53247000D01*
X77943000Y-53247000D01*
X77943000Y-53227000D01*
X76593750Y-53227000D01*
X76435000Y-53385750D01*
X76431928Y-53950000D01*
X76444188Y-54074482D01*
X76480498Y-54194180D01*
X76539463Y-54304494D01*
X76618815Y-54401185D01*
X76715506Y-54480537D01*
X76825820Y-54539502D01*
X76860608Y-54550055D01*
X76679294Y-54770986D01*
X76541401Y-55028966D01*
X76456487Y-55308889D01*
X76447766Y-55397432D01*
X75505199Y-56340000D01*
X75107325Y-56340000D01*
X75070000Y-56336324D01*
X75032675Y-56340000D01*
X75032667Y-56340000D01*
X74921014Y-56350997D01*
X74777753Y-56394454D01*
X74645724Y-56465026D01*
X74529999Y-56559999D01*
X74525895Y-56565000D01*
X74468061Y-56565000D01*
X74268102Y-56604774D01*
X74079744Y-56682795D01*
X73910226Y-56796063D01*
X73769230Y-56937059D01*
X73737205Y-56859744D01*
X73623937Y-56690226D01*
X73479774Y-56546063D01*
X73310256Y-56432795D01*
X73121898Y-56354774D01*
X72921939Y-56315000D01*
X72718061Y-56315000D01*
X72518102Y-56354774D01*
X72329744Y-56432795D01*
X72160226Y-56546063D01*
X72016063Y-56690226D01*
X71902795Y-56859744D01*
X71824774Y-57048102D01*
X71785000Y-57248061D01*
X68995969Y-57248061D01*
X68783286Y-52250000D01*
X76431928Y-52250000D01*
X76435000Y-52814250D01*
X76593750Y-52973000D01*
X77943000Y-52973000D01*
X77943000Y-51773750D01*
X78197000Y-51773750D01*
X78197000Y-52973000D01*
X79546250Y-52973000D01*
X79705000Y-52814250D01*
X79708072Y-52250000D01*
X79695812Y-52125518D01*
X79659502Y-52005820D01*
X79600537Y-51895506D01*
X79521185Y-51798815D01*
X79424494Y-51719463D01*
X79314180Y-51660498D01*
X79194482Y-51624188D01*
X79070000Y-51611928D01*
X78355750Y-51615000D01*
X78197000Y-51773750D01*
X77943000Y-51773750D01*
X77784250Y-51615000D01*
X77070000Y-51611928D01*
X76945518Y-51624188D01*
X76825820Y-51660498D01*
X76715506Y-51719463D01*
X76618815Y-51798815D01*
X76539463Y-51895506D01*
X76480498Y-52005820D01*
X76444188Y-52125518D01*
X76431928Y-52250000D01*
X68783286Y-52250000D01*
X68452294Y-44471706D01*
X80449144Y-43982038D01*
X80693092Y-49104939D01*
%TA.AperFunction,Conductor*%
D20*
G36*
X80693092Y-49104939D02*
G01*
X80899350Y-55945848D01*
X78309916Y-58535283D01*
X78237205Y-58359744D01*
X78123937Y-58190226D01*
X77979774Y-58046063D01*
X77810256Y-57932795D01*
X77621898Y-57854774D01*
X77421939Y-57815000D01*
X77218061Y-57815000D01*
X77018102Y-57854774D01*
X76829744Y-57932795D01*
X76660226Y-58046063D01*
X76516063Y-58190226D01*
X76402795Y-58359744D01*
X76324774Y-58548102D01*
X76285000Y-58748061D01*
X76285000Y-58951939D01*
X76324774Y-59151898D01*
X76402795Y-59340256D01*
X76516063Y-59509774D01*
X76660226Y-59653937D01*
X76829744Y-59767205D01*
X77005283Y-59839916D01*
X76255199Y-60590000D01*
X72273711Y-60590000D01*
X72229774Y-60546063D01*
X72060256Y-60432795D01*
X71871898Y-60354774D01*
X71671939Y-60315000D01*
X71468061Y-60315000D01*
X71268102Y-60354774D01*
X71079744Y-60432795D01*
X70910226Y-60546063D01*
X70766063Y-60690226D01*
X70652795Y-60859744D01*
X70574774Y-61048102D01*
X70535000Y-61248061D01*
X70535000Y-61451939D01*
X70574774Y-61651898D01*
X70652795Y-61840256D01*
X70766063Y-62009774D01*
X70910226Y-62153937D01*
X71079744Y-62267205D01*
X71268102Y-62345226D01*
X71468061Y-62385000D01*
X71671939Y-62385000D01*
X71871898Y-62345226D01*
X72060256Y-62267205D01*
X72229774Y-62153937D01*
X72273711Y-62110000D01*
X76532678Y-62110000D01*
X76570000Y-62113676D01*
X76607322Y-62110000D01*
X76607333Y-62110000D01*
X76718986Y-62099003D01*
X76862247Y-62055546D01*
X76994276Y-61984974D01*
X77110001Y-61890001D01*
X77133804Y-61860997D01*
X80962265Y-58032536D01*
X81439030Y-73845244D01*
X69691817Y-73600511D01*
X69408348Y-66938967D01*
X70685000Y-66938967D01*
X70685000Y-67261033D01*
X70747832Y-67576912D01*
X70871082Y-67874463D01*
X71050013Y-68142252D01*
X71277748Y-68369987D01*
X71545537Y-68548918D01*
X71843088Y-68672168D01*
X72158967Y-68735000D01*
X72481033Y-68735000D01*
X72796912Y-68672168D01*
X73094463Y-68548918D01*
X73362252Y-68369987D01*
X73589987Y-68142252D01*
X73768918Y-67874463D01*
X73892168Y-67576912D01*
X73955000Y-67261033D01*
X73955000Y-66938967D01*
X73892168Y-66623088D01*
X73768918Y-66325537D01*
X73589987Y-66057748D01*
X73362252Y-65830013D01*
X73094463Y-65651082D01*
X72796912Y-65527832D01*
X72481033Y-65465000D01*
X72158967Y-65465000D01*
X71843088Y-65527832D01*
X71545537Y-65651082D01*
X71277748Y-65830013D01*
X71050013Y-66057748D01*
X70871082Y-66325537D01*
X70747832Y-66623088D01*
X70685000Y-66938967D01*
X69408348Y-66938967D01*
X69157647Y-61047500D01*
X69171939Y-61047500D01*
X69371898Y-61007726D01*
X69560256Y-60929705D01*
X69729774Y-60816437D01*
X69873937Y-60672274D01*
X69987205Y-60502756D01*
X70065226Y-60314398D01*
X70105000Y-60114439D01*
X70105000Y-59910561D01*
X70065226Y-59710602D01*
X69987205Y-59522244D01*
X69873937Y-59352726D01*
X69729774Y-59208563D01*
X69560256Y-59095295D01*
X69371898Y-59017274D01*
X69171939Y-58977500D01*
X69069562Y-58977500D01*
X68995969Y-57248061D01*
X71785000Y-57248061D01*
X71785000Y-57451939D01*
X71824774Y-57651898D01*
X71902795Y-57840256D01*
X72016063Y-58009774D01*
X72160226Y-58153937D01*
X72266580Y-58225000D01*
X72160226Y-58296063D01*
X72016063Y-58440226D01*
X71902795Y-58609744D01*
X71824774Y-58798102D01*
X71785000Y-58998061D01*
X71785000Y-59201939D01*
X71824774Y-59401898D01*
X71902795Y-59590256D01*
X72016063Y-59759774D01*
X72160226Y-59903937D01*
X72329744Y-60017205D01*
X72518102Y-60095226D01*
X72718061Y-60135000D01*
X72921939Y-60135000D01*
X73121898Y-60095226D01*
X73310256Y-60017205D01*
X73479774Y-59903937D01*
X73623937Y-59759774D01*
X73737205Y-59590256D01*
X73815226Y-59401898D01*
X73855000Y-59201939D01*
X73855000Y-58998061D01*
X73815226Y-58798102D01*
X73737205Y-58609744D01*
X73623937Y-58440226D01*
X73479774Y-58296063D01*
X73373420Y-58225000D01*
X73479774Y-58153937D01*
X73620770Y-58012941D01*
X73652795Y-58090256D01*
X73766063Y-58259774D01*
X73910226Y-58403937D01*
X74079744Y-58517205D01*
X74268102Y-58595226D01*
X74468061Y-58635000D01*
X74671939Y-58635000D01*
X74871898Y-58595226D01*
X75060256Y-58517205D01*
X75229774Y-58403937D01*
X75373937Y-58259774D01*
X75487205Y-58090256D01*
X75565226Y-57901898D01*
X75573560Y-57860000D01*
X75782678Y-57860000D01*
X75820000Y-57863676D01*
X75857322Y-57860000D01*
X75857333Y-57860000D01*
X75968986Y-57849003D01*
X76112247Y-57805546D01*
X76244276Y-57734974D01*
X76360001Y-57640001D01*
X76383804Y-57610997D01*
X77132113Y-56862689D01*
X77348966Y-56978599D01*
X77628889Y-57063513D01*
X77847050Y-57085000D01*
X78292950Y-57085000D01*
X78511111Y-57063513D01*
X78791034Y-56978599D01*
X79049014Y-56840706D01*
X79275134Y-56655134D01*
X79460706Y-56429014D01*
X79598599Y-56171034D01*
X79683513Y-55891111D01*
X79712185Y-55600000D01*
X79683513Y-55308889D01*
X79598599Y-55028966D01*
X79460706Y-54770986D01*
X79279392Y-54550055D01*
X79314180Y-54539502D01*
X79424494Y-54480537D01*
X79521185Y-54401185D01*
X79600537Y-54304494D01*
X79659502Y-54194180D01*
X79695812Y-54074482D01*
X79708072Y-53950000D01*
X79705000Y-53385750D01*
X79546250Y-53227000D01*
X78197000Y-53227000D01*
X78197000Y-53247000D01*
X77943000Y-53247000D01*
X77943000Y-53227000D01*
X76593750Y-53227000D01*
X76435000Y-53385750D01*
X76431928Y-53950000D01*
X76444188Y-54074482D01*
X76480498Y-54194180D01*
X76539463Y-54304494D01*
X76618815Y-54401185D01*
X76715506Y-54480537D01*
X76825820Y-54539502D01*
X76860608Y-54550055D01*
X76679294Y-54770986D01*
X76541401Y-55028966D01*
X76456487Y-55308889D01*
X76447766Y-55397432D01*
X75505199Y-56340000D01*
X75107325Y-56340000D01*
X75070000Y-56336324D01*
X75032675Y-56340000D01*
X75032667Y-56340000D01*
X74921014Y-56350997D01*
X74777753Y-56394454D01*
X74645724Y-56465026D01*
X74529999Y-56559999D01*
X74525895Y-56565000D01*
X74468061Y-56565000D01*
X74268102Y-56604774D01*
X74079744Y-56682795D01*
X73910226Y-56796063D01*
X73769230Y-56937059D01*
X73737205Y-56859744D01*
X73623937Y-56690226D01*
X73479774Y-56546063D01*
X73310256Y-56432795D01*
X73121898Y-56354774D01*
X72921939Y-56315000D01*
X72718061Y-56315000D01*
X72518102Y-56354774D01*
X72329744Y-56432795D01*
X72160226Y-56546063D01*
X72016063Y-56690226D01*
X71902795Y-56859744D01*
X71824774Y-57048102D01*
X71785000Y-57248061D01*
X68995969Y-57248061D01*
X68783286Y-52250000D01*
X76431928Y-52250000D01*
X76435000Y-52814250D01*
X76593750Y-52973000D01*
X77943000Y-52973000D01*
X77943000Y-51773750D01*
X78197000Y-51773750D01*
X78197000Y-52973000D01*
X79546250Y-52973000D01*
X79705000Y-52814250D01*
X79708072Y-52250000D01*
X79695812Y-52125518D01*
X79659502Y-52005820D01*
X79600537Y-51895506D01*
X79521185Y-51798815D01*
X79424494Y-51719463D01*
X79314180Y-51660498D01*
X79194482Y-51624188D01*
X79070000Y-51611928D01*
X78355750Y-51615000D01*
X78197000Y-51773750D01*
X77943000Y-51773750D01*
X77784250Y-51615000D01*
X77070000Y-51611928D01*
X76945518Y-51624188D01*
X76825820Y-51660498D01*
X76715506Y-51719463D01*
X76618815Y-51798815D01*
X76539463Y-51895506D01*
X76480498Y-52005820D01*
X76444188Y-52125518D01*
X76431928Y-52250000D01*
X68783286Y-52250000D01*
X68452294Y-44471706D01*
X80449144Y-43982038D01*
X80693092Y-49104939D01*
G37*
%TD.AperFunction*%
%TD*%
M02*
